<svg width="1019" height="436" viewBox="0 0 1019 436" fill="none" xmlns="http://www.w3.org/2000/svg">
<mask id="path-1-inside-1_132_2456" fill="white">
<path d="M421.001 39.0001C421.001 22.4315 434.432 9.00006 451.001 9.00006H566.001C582.57 9.00006 596.001 22.4315 596.001 39.0001V89.0001H421.001V39.0001Z"/>
</mask>
<path d="M407.001 39.0001C407.001 14.6995 426.7 -4.99994 451.001 -4.99994H566.001C590.301 -4.99994 610.001 14.6995 610.001 39.0001H582.001C582.001 30.1635 574.838 23.0001 566.001 23.0001H451.001C442.164 23.0001 435.001 30.1635 435.001 39.0001H407.001ZM596.001 89.0001H421.001H596.001ZM407.001 89.0001V39.0001C407.001 14.6995 426.7 -4.99994 451.001 -4.99994V23.0001C442.164 23.0001 435.001 30.1635 435.001 39.0001V89.0001H407.001ZM566.001 -4.99994C590.301 -4.99994 610.001 14.6995 610.001 39.0001V89.0001H582.001V39.0001C582.001 30.1635 574.838 23.0001 566.001 23.0001V-4.99994Z" fill="#FC6736" mask="url(#path-1-inside-1_132_2456)"/>
<circle cx="770.002" cy="187" r="4" fill="#FC6736"/>
<circle cx="248.001" cy="187" r="4" fill="#FC6736"/>
<path d="M248.856 108.999C248.981 97.9537 258.036 89 269.082 89H507.649L506.568 184.721H248.001L248.856 108.999Z" fill="#FC6736"/>
<path d="M511.082 89H748.568C759.613 89 768.669 97.9537 768.794 108.999L769.649 184.721H511.082L511.082 89Z" fill="#FC6736"/>
<path d="M248.001 187H770.001V416C770.001 427.046 761.047 436 750.001 436H268.001C256.955 436 248.001 427.046 248.001 416V187Z" fill="#FC6736"/>
<rect x="399.001" y="164" width="20" height="50" rx="5" fill="#0C2D57"/>
<rect x="599.002" y="164" width="20" height="50" rx="5" fill="#0C2D57"/>
<path d="M579.836 304.197L574.217 297.523C572.666 295.679 570.151 295.679 568.599 297.523L565.791 300.858L558.616 292.335C560.014 286.05 558.706 279.093 554.557 274.165L543.323 260.82C527.812 242.393 502.66 242.393 487.146 260.82L509.616 274.165V279.695C509.616 284.7 511.29 289.501 514.271 293.04L526.471 307.532C530.62 312.46 536.476 314.015 541.767 312.354L548.941 320.877L546.134 324.213C544.582 326.056 544.582 329.044 546.134 330.887L551.752 337.561C553.304 339.404 555.818 339.404 557.37 337.561L579.841 310.868C581.387 309.027 581.387 306.04 579.836 304.197ZM508.653 299.714C507.734 298.623 506.955 297.416 506.208 296.19L442.875 366.431C436.527 373.473 436.356 385.361 442.495 392.658C448.635 399.954 458.645 399.751 464.573 392.207L523.693 316.981C522.71 316.123 521.732 315.25 520.853 314.206L508.653 299.714Z" fill="#0C2D57"/>
</svg>
