<svg width="1019" height="436" viewBox="0 0 1019 436" fill="none" xmlns="http://www.w3.org/2000/svg">
<mask id="path-1-inside-1_127_717" fill="white">
<path d="M421.001 39.0001C421.001 22.4315 434.432 9.00006 451.001 9.00006H566.001C582.57 9.00006 596.001 22.4315 596.001 39.0001V89.0001H421.001V39.0001Z"/>
</mask>
<path d="M407.001 39.0001C407.001 14.6995 426.7 -4.99994 451.001 -4.99994H566.001C590.302 -4.99994 610.001 14.6995 610.001 39.0001H582.001C582.001 30.1635 574.838 23.0001 566.001 23.0001H451.001C442.164 23.0001 435.001 30.1635 435.001 39.0001H407.001ZM596.001 89.0001H421.001H596.001ZM407.001 89.0001V39.0001C407.001 14.6995 426.7 -4.99994 451.001 -4.99994V23.0001C442.164 23.0001 435.001 30.1635 435.001 39.0001V89.0001H407.001ZM566.001 -4.99994C590.302 -4.99994 610.001 14.6995 610.001 39.0001V89.0001H582.001V39.0001C582.001 30.1635 574.838 23.0001 566.001 23.0001V-4.99994Z" fill="#FC6736" mask="url(#path-1-inside-1_127_717)"/>
<circle cx="770.002" cy="187" r="4" fill="#FC6736"/>
<circle cx="248.001" cy="187" r="4" fill="#FC6736"/>
<path d="M248.856 108.999C248.981 97.9537 258.036 89 269.082 89H507.649L506.568 184.721H248.001L248.856 108.999Z" fill="#FC6736"/>
<path d="M511.082 89H748.568C759.613 89 768.669 97.9537 768.794 108.999L769.649 184.721H511.082L511.082 89Z" fill="#FC6736"/>
<path d="M248.001 187H770.001V416C770.001 427.046 761.047 436 750.001 436H268.001C256.955 436 248.001 427.046 248.001 416V187Z" fill="#FC6736"/>
<rect x="399.001" y="164" width="20" height="50" rx="5" fill="#0C2D57"/>
<rect x="599.002" y="164" width="20" height="50" rx="5" fill="#0C2D57"/>
</svg>
