<svg width="1019" height="471" viewBox="0 0 1019 471" fill="none" xmlns="http://www.w3.org/2000/svg">
<g clip-path="url(#clip0_55_72)">
<path d="M622.676 144.613L615.209 136.495C613.146 134.253 609.804 134.253 607.741 136.495L604.009 140.552L594.472 130.185C596.33 122.541 594.591 114.079 589.077 108.085L574.145 91.8532C553.528 69.4409 520.097 69.4409 499.476 91.8532L529.343 108.085V114.811C529.343 120.898 531.567 126.738 535.53 131.042L551.746 148.67C557.26 154.664 565.044 156.554 572.076 154.535L581.613 164.901L577.881 168.958C575.818 171.2 575.818 174.834 577.881 177.076L585.348 185.194C587.411 187.436 590.753 187.436 592.816 185.194L622.683 152.727C624.739 150.488 624.739 146.855 622.676 144.613ZM528.063 139.16C526.842 137.833 525.806 136.366 524.812 134.874L440.633 220.308C432.195 228.874 431.967 243.334 440.128 252.208C448.288 261.083 461.593 260.835 469.474 251.659L548.053 160.163C546.746 159.119 545.446 158.057 544.278 156.787L528.063 139.16Z" fill="#D9D9D9"/>
</g>
<g clip-path="url(#clip1_55_72)">
<path d="M387.648 241.125L350.964 145.647C354.599 142.186 357.379 138.345 359.688 133.28C368.157 114.709 359.691 92.6753 340.876 84.3168C335.745 82.0372 331.084 80.9817 326.038 80.7703L339.677 116.269L313.634 126.017L299.995 90.5189C296.36 93.9797 293.58 97.8205 291.27 102.885C282.802 121.457 291.268 143.49 310.083 151.849C315.214 154.128 319.875 155.184 324.921 155.395L361.605 250.873C364.427 258.218 372.124 261.637 379.565 258.852C387.006 256.067 390.47 248.469 387.648 241.125ZM335.569 159.11L328.984 141.973L340.146 137.795L346.73 154.932L335.569 159.11ZM370.371 249.692C366.951 248.172 364.684 244.12 366.609 239.899C368.149 236.523 372.254 234.286 376.53 236.186C380.806 238.085 382.217 241.758 380.293 245.978C378.368 250.199 374.648 251.592 370.371 249.692Z" fill="#D9D9D9"/>
</g>
<g clip-path="url(#clip2_55_72)">
<path d="M704.909 179.742L710.478 170.045L699.766 164.847L733.119 97.8801L742.561 90.7915L745.67 68.2298L737.338 64.1868L719.946 79.8177L719.138 91.8255L686.673 158.494L675.96 153.295L671.581 163.57C671.581 163.57 680.499 166.439 675.232 177.012C672.306 182.887 663.389 180.018 654.612 197.641C651.686 203.516 642.324 222.313 642.324 222.313C642.324 222.313 640.023 232.867 654.307 239.798C668.59 246.729 675.652 238.485 675.652 238.485C675.652 238.485 685.014 219.687 687.94 213.813C696.132 197.365 688.97 190.973 691.311 186.273C696.577 175.699 704.909 179.742 704.909 179.742ZM676.18 185.495L684.512 189.538L662.276 234.183L653.944 230.14L676.18 185.495Z" fill="#D9D9D9"/>
</g>
<path d="M249.082 223.157H771.28V451C771.28 462.046 762.326 471 751.28 471H269.082C258.036 471 249.082 462.046 249.082 451V223.157Z" fill="#FC6736"/>
<path d="M192.995 274.816C184.912 282.344 172.183 281.965 164.564 273.968L-0.000184828 101.246L70.0471 36L248.407 223.202L192.995 274.816Z" fill="#FC6736"/>
<path d="M1018.38 101.228L853.856 273.992C846.239 281.991 833.51 282.374 825.426 274.847L770 223.247L948.313 36L1018.38 101.228Z" fill="#FC6736"/>
<path d="M384.567 268.058L660.262 294.249C664.385 294.641 667.34 298.294 666.862 302.408L651.393 435.432C650.915 439.546 647.184 442.564 643.061 442.172L367.366 415.982C363.243 415.59 360.288 411.937 360.766 407.822L376.235 274.798C376.713 270.684 380.444 267.666 384.567 268.058Z" fill="#0C2D57" stroke="white" stroke-width="5"/>
<path d="M432.525 304.115L439.29 304.758C440.415 304.864 441.437 305.117 442.357 305.516C443.287 305.916 444.005 306.496 444.51 307.257C445.026 308.009 445.215 308.981 445.077 310.173C444.985 310.958 444.755 311.644 444.384 312.231C444.024 312.82 443.577 313.29 443.043 313.64C442.52 313.982 441.967 314.191 441.385 314.266C441.876 314.373 442.342 314.563 442.783 314.836C443.236 315.1 443.628 315.449 443.96 315.882C444.303 316.306 444.55 316.822 444.701 317.428C444.863 318.026 444.898 318.723 444.805 319.517C444.677 320.62 444.315 321.57 443.719 322.367C443.134 323.155 442.341 323.742 441.34 324.129C440.35 324.507 439.173 324.631 437.809 324.502L430.238 323.782L432.525 304.115ZM435.117 320.646L437.148 320.839C437.785 320.899 438.314 320.854 438.734 320.703C439.165 320.543 439.496 320.293 439.727 319.954C439.959 319.604 440.104 319.176 440.163 318.67C440.256 317.875 440.074 317.27 439.619 316.855C439.175 316.432 438.511 316.178 437.625 316.093L435.668 315.908L435.117 320.646ZM436.074 312.421L437.881 312.593C438.408 312.643 438.857 312.59 439.228 312.434C439.608 312.28 439.907 312.042 440.126 311.721C440.355 311.392 440.496 311.003 440.548 310.556C440.642 309.752 440.476 309.189 440.05 308.867C439.626 308.535 439.015 308.332 438.219 308.256L436.576 308.1L436.074 312.421ZM453.017 326.308C451.673 326.18 450.51 325.794 449.528 325.148C448.558 324.493 447.83 323.656 447.344 322.636C446.87 321.606 446.706 320.466 446.851 319.215C446.997 317.963 447.42 316.878 448.121 315.961C448.832 315.034 449.739 314.337 450.84 313.869C451.951 313.402 453.179 313.233 454.522 313.36C455.866 313.488 457.018 313.884 457.978 314.547C458.937 315.211 459.649 316.062 460.112 317.1C460.576 318.128 460.735 319.268 460.59 320.52C460.444 321.771 460.026 322.856 459.335 323.775C458.646 324.684 457.756 325.367 456.666 325.826C455.577 326.275 454.361 326.436 453.017 326.308ZM453.45 322.583C453.968 322.632 454.429 322.561 454.834 322.368C455.239 322.176 455.57 321.881 455.827 321.483C456.085 321.086 456.244 320.624 456.306 320.098C456.368 319.561 456.319 319.074 456.158 318.637C455.998 318.2 455.742 317.845 455.392 317.57C455.041 317.296 454.607 317.134 454.089 317.085C453.572 317.036 453.105 317.112 452.689 317.314C452.283 317.516 451.946 317.815 451.679 318.212C451.421 318.609 451.261 319.076 451.199 319.612C451.137 320.139 451.187 320.621 451.348 321.058C451.518 321.496 451.779 321.847 452.131 322.111C452.493 322.377 452.932 322.534 453.45 322.583ZM462.394 326.837L463.817 314.605L468.356 315.036L466.934 327.269L462.394 326.837ZM466.439 312.308C465.722 312.24 465.144 311.934 464.704 311.39C464.265 310.836 464.086 310.211 464.167 309.516C464.248 308.821 464.567 308.244 465.123 307.784C465.691 307.316 466.328 307.115 467.035 307.183C467.503 307.227 467.917 307.387 468.278 307.662C468.64 307.927 468.917 308.265 469.111 308.675C469.305 309.085 469.374 309.529 469.319 310.006C469.238 310.701 468.914 311.278 468.348 311.736C467.782 312.184 467.146 312.375 466.439 312.308ZM470.439 315.234L472.529 315.432L473.113 310.411L477.608 310.838L477.024 315.859L479.772 316.12L479.338 319.845L476.591 319.584L476.194 322.996C476.135 323.503 476.162 323.922 476.274 324.254C476.388 324.576 476.644 324.756 477.042 324.794C477.311 324.82 477.547 324.782 477.75 324.681C477.953 324.579 478.076 324.511 478.121 324.475L479.3 327.841C479.223 327.894 478.991 327.982 478.604 328.106C478.227 328.231 477.753 328.331 477.18 328.408C476.608 328.484 475.978 328.489 475.291 328.424C474.067 328.308 473.096 327.869 472.379 327.108C471.664 326.337 471.39 325.231 471.557 323.791L472.096 319.157L470.006 318.959L470.439 315.234ZM485.124 323.784C485.103 324.224 485.198 324.625 485.407 324.986C485.617 325.348 485.929 325.648 486.344 325.889C486.77 326.12 487.287 326.265 487.894 326.322C488.471 326.377 488.996 326.367 489.468 326.291C489.95 326.216 490.37 326.106 490.729 325.959C491.099 325.813 491.389 325.655 491.6 325.484L493.036 328.453C492.756 328.697 492.372 328.927 491.884 329.142C491.407 329.347 490.791 329.495 490.036 329.584C489.281 329.673 488.341 329.664 487.216 329.557C485.862 329.428 484.687 329.061 483.691 328.454C482.694 327.847 481.95 327.023 481.457 325.982C480.964 324.941 480.8 323.71 480.965 322.29C481.104 321.098 481.487 320.049 482.116 319.145C482.755 318.232 483.605 317.544 484.666 317.082C485.727 316.611 486.959 316.442 488.363 316.575C489.697 316.702 490.824 317.055 491.743 317.634C492.672 318.215 493.344 319.012 493.759 320.025C494.186 321.03 494.316 322.247 494.15 323.678C494.141 323.757 494.117 323.916 494.08 324.153C494.052 324.392 494.023 324.549 493.994 324.627L485.124 323.784ZM490.044 321.857C490.071 321.538 490.023 321.217 489.899 320.894C489.777 320.561 489.568 320.28 489.272 320.051C488.978 319.812 488.582 319.669 488.084 319.622C487.587 319.574 487.152 319.634 486.78 319.799C486.42 319.956 486.132 320.179 485.917 320.47C485.702 320.761 485.565 321.08 485.504 321.425L490.044 321.857ZM513.202 331.664L513.432 329.682C513.319 329.872 513.057 330.139 512.645 330.481C512.242 330.825 511.725 331.122 511.092 331.373C510.46 331.614 509.745 331.697 508.949 331.622C507.754 331.508 506.743 331.121 505.914 330.459C505.086 329.788 504.48 328.942 504.095 327.922C503.712 326.891 503.589 325.78 503.728 324.588C503.866 323.396 504.241 322.337 504.852 321.41C505.464 320.474 506.252 319.756 507.216 319.255C508.181 318.754 509.26 318.56 510.455 318.674C511.221 318.747 511.879 318.935 512.427 319.238C512.977 319.531 513.411 319.864 513.73 320.235C514.051 320.597 514.264 320.924 514.371 321.215L514.579 319.427L519.089 319.856L517.666 332.088L513.202 331.664ZM508.178 325.01C508.113 325.567 508.184 326.081 508.391 326.552C508.599 327.014 508.903 327.389 509.302 327.678C509.711 327.968 510.179 328.138 510.707 328.188C511.255 328.24 511.752 328.162 512.199 327.953C512.646 327.745 513.014 327.433 513.304 327.019C513.605 326.596 513.788 326.106 513.852 325.549C513.917 324.993 513.85 324.485 513.652 324.024C513.465 323.554 513.177 323.175 512.788 322.887C512.4 322.589 511.932 322.414 511.384 322.362C510.857 322.312 510.359 322.396 509.891 322.612C509.434 322.82 509.05 323.135 508.739 323.557C508.43 323.97 508.242 324.454 508.178 325.01ZM514.591 317.636L509.3 313.804L511.765 311.296L516.148 315.931L514.591 317.636ZM533.598 323.644C533.468 324.767 533.578 325.807 533.93 326.764C534.293 327.712 534.851 328.493 535.605 329.107C536.369 329.722 537.293 330.081 538.379 330.184C539.464 330.287 540.446 330.109 541.324 329.651C542.213 329.193 542.939 328.534 543.502 327.673C544.076 326.804 544.428 325.808 544.559 324.685C544.689 323.563 544.573 322.528 544.21 321.579C543.858 320.632 543.299 319.851 542.535 319.236C541.783 318.612 540.864 318.248 539.778 318.145C538.693 318.042 537.706 318.225 536.816 318.693C535.937 319.151 535.212 319.81 534.639 320.67C534.075 321.53 533.729 322.522 533.598 323.644ZM528.954 323.203C529.12 321.773 529.529 320.466 530.18 319.282C530.832 318.089 531.67 317.074 532.693 316.237C533.716 315.4 534.875 314.782 536.17 314.383C537.464 313.984 538.828 313.852 540.262 313.988C541.715 314.126 543.024 314.512 544.189 315.145C545.363 315.779 546.349 316.6 547.148 317.61C547.956 318.621 548.537 319.771 548.891 321.06C549.255 322.34 549.354 323.695 549.188 325.125C549.02 326.566 548.621 327.883 547.988 329.079C547.357 330.264 546.535 331.28 545.52 332.128C544.507 332.966 543.353 333.584 542.058 333.984C540.764 334.383 539.375 334.512 537.892 334.371C536.378 334.227 535.03 333.838 533.845 333.203C532.671 332.57 531.69 331.748 530.901 330.739C530.114 329.72 529.548 328.572 529.203 327.294C528.87 326.007 528.787 324.643 528.954 323.203ZM555.681 329.056C555.568 330.03 555.662 330.827 555.962 331.448C556.263 332.059 556.847 332.406 557.713 332.488C558.599 332.572 559.255 332.343 559.68 331.801C560.117 331.25 560.392 330.488 560.505 329.514L561.163 323.853L565.643 324.278L564.929 330.417C564.777 331.728 564.37 332.844 563.709 333.766C563.06 334.678 562.192 335.349 561.105 335.778C560.018 336.207 558.743 336.352 557.28 336.213C555.827 336.075 554.618 335.694 553.654 335.07C552.689 334.446 551.995 333.627 551.569 332.612C551.145 331.588 551.009 330.42 551.161 329.109L551.875 322.97L556.34 323.394L555.681 329.056ZM567.239 324.43L569.33 324.628L569.914 319.607L574.408 320.034L573.824 325.055L576.572 325.316L576.139 329.041L573.391 328.78L572.995 332.192C572.936 332.699 572.962 333.118 573.075 333.45C573.188 333.772 573.444 333.952 573.842 333.99C574.111 334.016 574.347 333.978 574.55 333.877C574.753 333.775 574.877 333.707 574.921 333.671L576.1 337.037C576.023 337.09 575.792 337.178 575.405 337.302C575.028 337.427 574.553 337.528 573.981 337.604C573.408 337.68 572.779 337.685 572.092 337.62C570.867 337.504 569.897 337.065 569.18 336.304C568.464 335.533 568.19 334.427 568.358 332.987L568.897 328.353L566.806 328.155L567.239 324.43ZM577.861 337.807L579.283 325.574L583.823 326.005L582.4 338.238L577.861 337.807ZM581.906 323.277C581.189 323.209 580.611 322.903 580.17 322.359C579.732 321.805 579.553 321.181 579.633 320.485C579.714 319.79 580.033 319.213 580.59 318.754C581.158 318.285 581.795 318.085 582.502 318.152C582.97 318.196 583.384 318.356 583.744 318.631C584.106 318.897 584.384 319.234 584.578 319.645C584.772 320.055 584.841 320.498 584.785 320.975C584.704 321.67 584.381 322.247 583.814 322.705C583.249 323.154 582.612 323.344 581.906 323.277ZM590.068 338.966L585.513 338.534L587.897 318.032L592.452 318.464L590.068 338.966ZM599.954 327.176C600.76 327.253 601.489 327.392 602.139 327.595C602.791 327.787 603.332 327.989 603.76 328.201C604.198 328.413 604.476 328.58 604.592 328.701L602.804 331.228C602.631 331.071 602.298 330.859 601.806 330.591C601.324 330.324 600.769 330.161 600.142 330.101C599.664 330.056 599.252 330.092 598.906 330.21C598.562 330.318 598.371 330.526 598.336 330.834C598.3 331.142 598.45 331.407 598.787 331.63C599.134 331.844 599.643 332.053 600.314 332.257C600.897 332.433 601.483 332.679 602.07 332.996C602.657 333.313 603.125 333.744 603.475 334.29C603.835 334.826 603.967 335.511 603.87 336.346C603.77 337.2 603.504 337.888 603.071 338.409C602.638 338.93 602.1 339.316 601.457 339.566C600.814 339.816 600.132 339.968 599.411 340.02C598.689 340.082 597.995 340.081 597.328 340.018C596.392 339.929 595.586 339.767 594.909 339.532C594.241 339.297 593.706 339.051 593.304 338.792C592.901 338.532 592.623 338.33 592.468 338.185L594.278 335.344C594.512 335.587 594.906 335.876 595.461 336.21C596.017 336.534 596.624 336.727 597.281 336.789C597.918 336.85 598.422 336.802 598.792 336.647C599.162 336.491 599.365 336.259 599.401 335.951C599.43 335.703 599.369 335.496 599.217 335.331C599.065 335.166 598.841 335.014 598.545 334.876C598.249 334.737 597.887 334.602 597.46 334.471C597.071 334.354 596.662 334.19 596.234 333.978C595.805 333.767 595.409 333.498 595.044 333.172C594.681 332.836 594.4 332.433 594.203 331.963C594.007 331.492 593.945 330.939 594.019 330.303C594.114 329.489 594.456 328.838 595.046 328.352C595.636 327.866 596.365 327.528 597.232 327.339C598.101 327.141 599.008 327.086 599.954 327.176ZM398.508 374.276L402.13 343.126L411.085 343.977L410.65 347.714L405.842 347.257L403.089 370.933L407.897 371.389L407.463 375.127L398.508 374.276ZM424.528 364.656C425.596 364.758 426.584 364.694 427.492 364.464C428.411 364.234 429.103 363.99 429.567 363.729L431.284 368.356C430.684 368.768 429.695 369.149 428.315 369.498C426.948 369.848 425.358 369.937 423.546 369.765C421.85 369.604 420.294 369.158 418.876 368.425C417.458 367.693 416.242 366.74 415.228 365.566C414.226 364.381 413.484 363.039 413.001 361.54C412.53 360.031 412.393 358.43 412.59 356.738C412.787 355.047 413.289 353.507 414.096 352.119C414.905 350.719 415.935 349.534 417.187 348.563C418.45 347.594 419.86 346.884 421.415 346.434C422.984 345.974 424.616 345.825 426.311 345.986C428.123 346.158 429.658 346.544 430.915 347.144C432.184 347.744 433.064 348.303 433.556 348.818L430.813 353.021C430.419 352.668 429.799 352.298 428.951 351.913C428.116 351.517 427.165 351.269 426.096 351.167C424.912 351.055 423.856 351.142 422.931 351.429C422.006 351.704 421.211 352.133 420.544 352.714C419.878 353.295 419.353 353.971 418.97 354.743C418.586 355.515 418.343 356.342 418.241 357.223C418.137 358.115 418.183 358.98 418.379 359.819C418.577 360.646 418.934 361.407 419.453 362.1C419.971 362.794 420.65 363.368 421.489 363.823C422.33 364.266 423.343 364.544 424.528 364.656ZM441.509 371.472C439.941 371.323 438.584 370.872 437.439 370.119C436.306 369.355 435.457 368.378 434.891 367.188C434.338 365.987 434.146 364.656 434.316 363.196C434.486 361.736 434.979 360.471 435.797 359.4C436.627 358.319 437.684 357.506 438.969 356.96C440.265 356.415 441.697 356.217 443.265 356.366C444.833 356.515 446.177 356.977 447.297 357.751C448.416 358.525 449.246 359.518 449.786 360.729C450.328 361.929 450.514 363.259 450.344 364.719C450.174 366.179 449.686 367.445 448.881 368.517C448.076 369.577 447.038 370.374 445.766 370.91C444.496 371.433 443.077 371.621 441.509 371.472ZM442.014 367.126C442.618 367.183 443.156 367.1 443.629 366.875C444.101 366.651 444.487 366.307 444.788 365.843C445.088 365.379 445.274 364.841 445.346 364.226C445.419 363.601 445.361 363.033 445.174 362.523C444.987 362.013 444.689 361.598 444.279 361.278C443.87 360.958 443.364 360.769 442.76 360.712C442.156 360.654 441.611 360.743 441.126 360.978C440.653 361.215 440.26 361.564 439.947 362.026C439.647 362.49 439.46 363.035 439.388 363.66C439.316 364.275 439.374 364.837 439.561 365.347C439.76 365.857 440.065 366.267 440.475 366.576C440.897 366.885 441.41 367.069 442.014 367.126ZM473.652 359.253C474.732 359.355 475.658 359.672 476.43 360.202C477.204 360.721 477.769 361.466 478.126 362.437C478.494 363.409 478.593 364.626 478.424 366.086L477.449 374.464L472.24 373.97L473.122 366.391C473.237 365.394 473.18 364.574 472.95 363.931C472.719 363.288 472.157 362.925 471.262 362.84C470.728 362.789 470.241 362.883 469.803 363.123C469.364 363.362 469.005 363.721 468.726 364.198C468.449 364.664 468.271 365.238 468.191 365.922L467.31 373.501L462.449 373.039L463.331 365.46C463.447 364.464 463.372 363.642 463.106 362.996C462.853 362.351 462.308 361.989 461.471 361.909C460.937 361.859 460.451 361.953 460.012 362.193C459.574 362.42 459.216 362.773 458.938 363.25C458.672 363.717 458.499 364.298 458.418 364.994L457.536 372.573L452.275 372.073L453.935 357.801L459.196 358.301L458.96 360.335C459.141 359.989 459.485 359.653 459.993 359.326C460.513 358.989 461.137 358.726 461.864 358.537C462.591 358.337 463.344 358.274 464.123 358.348C464.97 358.428 465.664 358.623 466.204 358.932C466.744 359.229 467.17 359.604 467.482 360.055C467.805 360.508 468.049 360.988 468.213 361.495C468.424 361.094 468.792 360.707 469.317 360.335C469.854 359.952 470.499 359.656 471.252 359.447C472.016 359.238 472.816 359.173 473.652 359.253ZM484.885 382.482L479.641 381.984L482.142 360.481L487.438 360.984L487.195 363.07C487.396 362.761 487.745 362.437 488.242 362.098C488.752 361.748 489.378 361.467 490.119 361.257C490.873 361.035 491.703 360.968 492.608 361.054C494.002 361.186 495.153 361.641 496.061 362.419C496.98 363.197 497.64 364.186 498.041 365.384C498.443 366.57 498.563 367.859 498.402 369.249C498.24 370.64 497.808 371.882 497.105 372.975C496.404 374.057 495.497 374.89 494.384 375.476C493.284 376.051 492.037 376.272 490.643 376.14C489.644 376.045 488.811 375.79 488.143 375.375C487.487 374.949 486.982 374.503 486.625 374.036C486.281 373.558 486.071 373.192 485.995 372.939L484.885 382.482ZM493.227 368.758C493.303 368.109 493.225 367.515 492.994 366.978C492.764 366.429 492.417 365.986 491.951 365.649C491.498 365.301 490.964 365.098 490.348 365.039C489.71 364.979 489.117 365.075 488.571 365.327C488.038 365.57 487.596 365.938 487.245 366.432C486.895 366.914 486.683 367.48 486.607 368.129C486.532 368.778 486.609 369.377 486.839 369.926C487.07 370.463 487.418 370.901 487.884 371.238C488.361 371.576 488.919 371.775 489.558 371.836C490.174 371.895 490.742 371.802 491.264 371.559C491.797 371.316 492.238 370.954 492.588 370.472C492.939 369.978 493.152 369.407 493.227 368.758ZM505.168 371.017C505.143 371.53 505.254 371.997 505.498 372.419C505.743 372.841 506.107 373.191 506.591 373.472C507.088 373.742 507.691 373.91 508.399 373.978C509.073 374.042 509.685 374.029 510.235 373.941C510.797 373.854 511.288 373.725 511.707 373.554C512.138 373.384 512.476 373.199 512.723 373L514.398 376.463C514.072 376.748 513.624 377.016 513.054 377.267C512.498 377.507 511.779 377.679 510.898 377.783C510.017 377.886 508.921 377.876 507.608 377.751C506.029 377.601 504.658 377.172 503.495 376.464C502.333 375.756 501.464 374.795 500.889 373.58C500.314 372.366 500.123 370.93 500.315 369.273C500.477 367.882 500.925 366.659 501.658 365.604C502.404 364.539 503.396 363.736 504.633 363.198C505.871 362.648 507.309 362.45 508.947 362.606C510.503 362.754 511.817 363.166 512.889 363.842C513.973 364.519 514.757 365.448 515.242 366.631C515.74 367.803 515.892 369.224 515.698 370.892C515.687 370.985 515.66 371.17 515.616 371.447C515.584 371.725 515.55 371.909 515.516 372L505.168 371.017ZM510.907 368.768C510.939 368.396 510.883 368.021 510.739 367.644C510.596 367.256 510.352 366.928 510.007 366.661C509.664 366.382 509.202 366.215 508.621 366.16C508.041 366.105 507.534 366.174 507.1 366.367C506.68 366.55 506.344 366.811 506.093 367.15C505.842 367.49 505.682 367.861 505.611 368.264L510.907 368.768ZM506.991 361.243L505.69 358.957L511.918 354.628L514.06 358.012L506.991 361.243ZM518.08 363.895L520.519 364.127L521.2 358.269L526.444 358.767L525.763 364.625L528.969 364.93L528.463 369.275L525.258 368.971L524.795 372.952C524.726 373.543 524.757 374.032 524.888 374.419C525.021 374.795 525.319 375.005 525.784 375.049C526.097 375.079 526.373 375.035 526.609 374.917C526.846 374.799 526.991 374.718 527.043 374.677L528.418 378.603C528.328 378.665 528.058 378.768 527.607 378.913C527.167 379.059 526.613 379.176 525.945 379.265C525.277 379.354 524.543 379.36 523.741 379.284C522.313 379.148 521.18 378.636 520.344 377.749C519.509 376.849 519.19 375.559 519.385 373.879L520.014 368.473L517.575 368.241L518.08 363.895ZM535.213 373.871C535.189 374.384 535.299 374.852 535.543 375.273C535.788 375.695 536.152 376.046 536.636 376.326C537.133 376.596 537.736 376.765 538.445 376.832C539.118 376.896 539.73 376.884 540.281 376.795C540.843 376.708 541.333 376.579 541.753 376.408C542.183 376.238 542.522 376.053 542.768 375.854L544.444 379.317C544.117 379.603 543.669 379.871 543.1 380.121C542.543 380.361 541.825 380.533 540.944 380.637C540.063 380.741 538.966 380.73 537.654 380.606C536.074 380.456 534.703 380.027 533.541 379.319C532.378 378.611 531.51 377.649 530.934 376.435C530.359 375.22 530.168 373.784 530.361 372.127C530.523 370.736 530.97 369.514 531.703 368.458C532.45 367.393 533.441 366.591 534.678 366.052C535.916 365.502 537.354 365.305 538.992 365.46C540.548 365.608 541.863 366.02 542.935 366.696C544.019 367.373 544.803 368.303 545.288 369.485C545.786 370.657 545.937 372.078 545.743 373.747C545.733 373.839 545.705 374.024 545.661 374.301C545.629 374.579 545.596 374.764 545.562 374.854L535.213 373.871ZM540.953 371.622C540.984 371.25 540.928 370.876 540.784 370.499C540.641 370.11 540.398 369.782 540.053 369.515C539.709 369.237 539.247 369.07 538.667 369.015C538.086 368.959 537.579 369.028 537.145 369.222C536.725 369.404 536.389 369.665 536.138 370.005C535.888 370.344 535.727 370.715 535.657 371.119L540.953 371.622ZM559.203 367.38C560.201 367.475 561.153 367.771 562.059 368.267C562.964 368.763 563.673 369.48 564.186 370.42C564.701 371.347 564.875 372.524 564.709 373.949L563.697 382.658L558.383 382.153L559.295 374.313C559.413 373.294 559.258 372.506 558.83 371.949C558.403 371.382 557.794 371.06 557.004 370.985C556.482 370.935 555.972 371.028 555.475 371.262C554.991 371.485 554.575 371.832 554.227 372.303C553.891 372.763 553.687 373.312 553.613 373.949L552.721 381.615L547.425 381.112L549.084 366.841L554.381 367.344L554.136 369.447C554.32 369.078 554.655 368.723 555.141 368.383C555.639 368.032 556.24 367.761 556.944 367.57C557.66 367.368 558.413 367.305 559.203 367.38ZM574.961 379.949C575.624 380.012 576.182 379.954 576.638 379.775C577.094 379.584 577.406 379.426 577.573 379.301L579.578 383.112C579.375 383.245 579.033 383.412 578.552 383.612C578.072 383.801 577.479 383.95 576.774 384.058C576.08 384.168 575.297 384.182 574.426 384.099C572.788 383.943 571.384 383.499 570.213 382.767C569.043 382.023 568.175 381.051 567.611 379.849C567.057 378.648 566.87 377.283 567.048 375.753C567.227 374.212 567.724 372.912 568.54 371.853C569.368 370.795 570.439 370.018 571.753 369.521C573.068 369.014 574.545 368.838 576.183 368.993C577.042 369.075 577.798 369.24 578.45 369.49C579.115 369.729 579.666 369.986 580.104 370.262C580.543 370.526 580.846 370.749 581.013 370.928L578.119 374.309C578.047 374.22 577.909 374.09 577.706 373.918C577.514 373.748 577.257 373.589 576.934 373.441C576.61 373.293 576.216 373.197 575.752 373.153C575.183 373.099 574.632 373.193 574.099 373.435C573.577 373.678 573.136 374.041 572.774 374.522C572.413 375.003 572.194 375.574 572.117 376.235C572.04 376.895 572.123 377.5 572.364 378.051C572.607 378.589 572.955 379.027 573.409 379.363C573.875 379.7 574.392 379.895 574.961 379.949ZM586.525 378.746C586.501 379.259 586.611 379.726 586.855 380.148C587.1 380.569 587.464 380.92 587.948 381.201C588.445 381.471 589.048 381.639 589.757 381.706C590.43 381.77 591.042 381.758 591.593 381.67C592.155 381.583 592.645 381.454 593.064 381.283C593.495 381.113 593.834 380.928 594.08 380.729L595.756 384.192C595.429 384.477 594.981 384.745 594.412 384.996C593.855 385.236 593.137 385.408 592.256 385.512C591.375 385.615 590.278 385.605 588.966 385.48C587.386 385.33 586.015 384.901 584.853 384.193C583.69 383.485 582.821 382.524 582.246 381.309C581.671 380.095 581.48 378.659 581.673 377.002C581.835 375.611 582.282 374.388 583.015 373.333C583.762 372.267 584.753 371.465 585.99 370.927C587.228 370.377 588.666 370.179 590.304 370.335C591.86 370.483 593.175 370.895 594.247 371.571C595.33 372.248 596.115 373.177 596.6 374.36C597.097 375.532 597.249 376.952 597.055 378.621C597.045 378.714 597.017 378.899 596.973 379.176C596.941 379.454 596.908 379.638 596.874 379.729L586.525 378.746ZM592.265 376.497C592.296 376.125 592.24 375.75 592.096 375.373C591.953 374.985 591.71 374.657 591.365 374.39C591.021 374.111 590.559 373.944 589.979 373.889C589.398 373.834 588.891 373.903 588.457 374.096C588.037 374.279 587.701 374.54 587.45 374.879C587.2 375.219 587.039 375.59 586.969 375.993L592.265 376.497ZM607.083 371.929C608.023 372.018 608.873 372.181 609.633 372.417C610.393 372.642 611.023 372.877 611.523 373.124C612.035 373.372 612.358 373.566 612.494 373.708L610.408 376.656C610.206 376.473 609.818 376.225 609.244 375.913C608.681 375.601 608.034 375.411 607.302 375.342C606.745 375.289 606.264 375.331 605.861 375.468C605.459 375.594 605.237 375.837 605.195 376.196C605.153 376.555 605.328 376.865 605.721 377.125C606.126 377.374 606.72 377.618 607.503 377.856C608.184 378.062 608.867 378.349 609.552 378.719C610.237 379.088 610.783 379.591 611.19 380.228C611.611 380.853 611.764 381.653 611.651 382.627C611.535 383.623 611.225 384.426 610.72 385.034C610.214 385.642 609.587 386.092 608.836 386.384C608.086 386.676 607.291 386.852 606.45 386.913C605.608 386.985 604.798 386.984 604.019 386.91C602.928 386.807 601.987 386.618 601.197 386.343C600.418 386.07 599.794 385.782 599.324 385.48C598.854 385.178 598.53 384.942 598.35 384.772L600.461 381.458C600.734 381.742 601.193 382.078 601.841 382.468C602.49 382.846 603.198 383.071 603.964 383.144C604.707 383.215 605.295 383.159 605.727 382.978C606.159 382.796 606.396 382.526 606.438 382.166C606.472 381.877 606.4 381.636 606.223 381.443C606.046 381.25 605.784 381.073 605.439 380.912C605.094 380.75 604.672 380.593 604.173 380.44C603.719 380.303 603.242 380.111 602.743 379.865C602.243 379.618 601.78 379.304 601.355 378.924C600.931 378.532 600.604 378.062 600.374 377.513C600.144 376.964 600.072 376.319 600.159 375.577C600.269 374.627 600.669 373.868 601.357 373.3C602.045 372.733 602.895 372.339 603.907 372.119C604.921 371.887 605.979 371.824 607.083 371.929ZM613.199 394.672L613.633 390.934L618.442 391.391L621.195 367.716L616.386 367.259L616.821 363.522L625.776 364.372L622.153 395.522L613.199 394.672Z" fill="white"/>
<rect x="604.216" y="194.522" width="20.0076" height="49.3711" rx="5" fill="#0C2D57"/>
<rect x="404.141" y="194.522" width="20.0076" height="49.3711" rx="5" fill="#0C2D57"/>
<defs>
<clipPath id="clip0_55_72">
<rect width="190.072" height="183.66" fill="white" transform="translate(434.152 75.044)"/>
</clipPath>
<clipPath id="clip1_55_72">
<rect width="149.731" height="148.442" fill="white" transform="matrix(0.913878 0.405988 -0.414888 0.909873 306.667 69.1195)"/>
</clipPath>
<clipPath id="clip2_55_72">
<rect width="149.856" height="148.317" fill="white" transform="matrix(0.947802 -0.318859 0.326396 0.945233 601.215 109.003)"/>
</clipPath>
</defs>
</svg>
