<svg width="526" height="434" viewBox="0 0 526 434" fill="none" xmlns="http://www.w3.org/2000/svg">
<rect x="4" y="84" width="522" height="350" rx="20" fill="#FC6736"/>
<rect x="159" y="157" width="20" height="50" rx="5" fill="#0C2D57"/>
<rect x="359" y="157" width="20" height="50" rx="5" fill="#0C2D57"/>
<mask id="path-4-inside-1_16_152" fill="white">
<path d="M181 30C181 13.4315 194.431 0 211 0H326C342.569 0 356 13.4315 356 30V80H181V30Z"/>
</mask>
<path d="M167 30C167 5.69947 186.699 -14 211 -14H326C350.301 -14 370 5.69947 370 30H342C342 21.1634 334.837 14 326 14H211C202.163 14 195 21.1634 195 30H167ZM356 80H181H356ZM167 80V30C167 5.69947 186.699 -14 211 -14V14C202.163 14 195 21.1634 195 30V80H167ZM326 -14C350.301 -14 370 5.69947 370 30V80H342V30C342 21.1634 334.837 14 326 14V-14Z" fill="#FC6736" mask="url(#path-4-inside-1_16_152)"/>
<path d="M131.12 228.174C131.592 224.059 135.317 221.045 139.44 221.442L415.025 247.966C419.148 248.363 422.107 252.02 421.635 256.135L406.144 391.104C405.671 395.219 401.946 398.233 397.823 397.836L122.239 371.312C118.116 370.915 115.156 367.258 115.628 363.143L131.12 228.174Z" fill="#0C2D57" stroke="white" stroke-width="5"/>
<path d="M187.353 257.972L194.117 258.623C195.242 258.731 196.264 258.985 197.185 259.385C198.115 259.786 198.833 260.367 199.339 261.129C199.857 261.882 200.047 262.855 199.91 264.047C199.82 264.832 199.591 265.518 199.221 266.105C198.862 266.693 198.415 267.163 197.882 267.513C197.36 267.854 196.808 268.062 196.225 268.137C196.716 268.245 197.183 268.435 197.624 268.709C198.077 268.973 198.469 269.322 198.802 269.756C199.146 270.181 199.394 270.697 199.545 271.304C199.708 271.902 199.744 272.599 199.653 273.394C199.526 274.496 199.166 275.446 198.571 276.243C197.987 277.03 197.195 277.617 196.195 278.003C195.206 278.38 194.029 278.503 192.666 278.371L185.096 277.643L187.353 257.972ZM189.969 274.511L191.999 274.706C192.636 274.768 193.165 274.723 193.585 274.573C194.016 274.413 194.346 274.164 194.576 273.824C194.808 273.475 194.952 273.047 195.011 272.54C195.102 271.745 194.92 271.14 194.464 270.725C194.02 270.3 193.355 270.045 192.469 269.96L190.513 269.772L189.969 274.511ZM190.913 266.285L192.72 266.459C193.247 266.509 193.696 266.457 194.066 266.302C194.446 266.148 194.745 265.91 194.963 265.59C195.192 265.26 195.332 264.872 195.383 264.425C195.476 263.62 195.309 263.057 194.883 262.734C194.458 262.402 193.848 262.198 193.051 262.121L191.409 261.963L190.913 266.285ZM207.872 280.196C206.528 280.067 205.365 279.679 204.383 279.032C203.411 278.376 202.682 277.537 202.196 276.516C201.72 275.486 201.554 274.345 201.698 273.093C201.841 271.842 202.263 270.757 202.962 269.84C203.672 268.914 204.577 268.218 205.677 267.751C206.787 267.285 208.014 267.117 209.358 267.246C210.702 267.376 211.854 267.773 212.814 268.438C213.775 269.103 214.487 269.955 214.951 270.994C215.417 272.023 215.578 273.164 215.434 274.415C215.291 275.667 214.874 276.752 214.185 277.67C213.497 278.578 212.609 279.261 211.52 279.719C210.432 280.167 209.216 280.326 207.872 280.196ZM208.3 276.471C208.817 276.521 209.278 276.45 209.683 276.257C210.087 276.065 210.418 275.771 210.675 275.374C210.932 274.976 211.09 274.515 211.151 273.988C211.212 273.452 211.163 272.965 211.001 272.527C210.84 272.09 210.584 271.734 210.233 271.459C209.883 271.184 209.448 271.022 208.931 270.972C208.413 270.922 207.946 270.998 207.531 271.199C207.125 271.401 206.789 271.7 206.522 272.096C206.265 272.493 206.106 272.96 206.044 273.497C205.984 274.023 206.034 274.505 206.195 274.943C206.367 275.381 206.628 275.732 206.98 275.997C207.342 276.263 207.782 276.421 208.3 276.471ZM217.248 280.737L218.652 268.503L223.191 268.939L221.787 281.174L217.248 280.737ZM221.27 266.208C220.554 266.139 219.975 265.833 219.534 265.288C219.095 264.733 218.915 264.108 218.995 263.413C219.075 262.717 219.392 262.14 219.948 261.682C220.515 261.214 221.152 261.014 221.859 261.082C222.327 261.127 222.741 261.287 223.102 261.563C223.464 261.829 223.742 262.167 223.936 262.578C224.131 262.988 224.201 263.432 224.146 263.909C224.066 264.604 223.743 265.181 223.178 265.639C222.613 266.086 221.977 266.276 221.27 266.208ZM225.273 269.14L227.363 269.341L227.94 264.319L232.434 264.752L231.858 269.774L234.605 270.038L234.177 273.764L231.43 273.499L231.038 276.912C230.98 277.418 231.008 277.838 231.12 278.17C231.234 278.492 231.49 278.673 231.889 278.711C232.157 278.737 232.393 278.699 232.596 278.598C232.799 278.497 232.922 278.429 232.967 278.393L234.15 281.761C234.074 281.814 233.842 281.902 233.455 282.026C233.079 282.15 232.604 282.25 232.032 282.326C231.46 282.401 230.83 282.406 230.144 282.34C228.919 282.222 227.948 281.782 227.231 281.02C226.514 280.248 226.239 279.142 226.404 277.701L226.936 273.067L224.845 272.865L225.273 269.14ZM239.967 277.711C239.947 278.151 240.042 278.552 240.252 278.913C240.462 279.275 240.775 279.576 241.19 279.817C241.616 280.049 242.133 280.194 242.74 280.253C243.317 280.308 243.842 280.299 244.313 280.223C244.795 280.149 245.215 280.039 245.574 279.893C245.943 279.747 246.233 279.59 246.444 279.419L247.884 282.39C247.604 282.634 247.221 282.864 246.733 283.078C246.257 283.283 245.641 283.43 244.886 283.518C244.132 283.606 243.192 283.596 242.067 283.488C240.713 283.357 239.538 282.988 238.541 282.38C237.544 281.772 236.798 280.947 236.304 279.905C235.81 278.863 235.644 277.631 235.807 276.211C235.944 275.018 236.326 273.97 236.953 273.066C237.591 272.153 238.44 271.467 239.499 271.006C240.559 270.536 241.791 270.368 243.195 270.503C244.529 270.632 245.656 270.986 246.575 271.567C247.505 272.148 248.178 272.946 248.595 273.961C249.023 274.966 249.155 276.184 248.991 277.615C248.982 277.694 248.958 277.853 248.921 278.09C248.894 278.329 248.865 278.487 248.836 278.564L239.967 277.711ZM244.883 275.788C244.909 275.469 244.861 275.148 244.737 274.825C244.614 274.492 244.405 274.211 244.109 273.981C243.815 273.742 243.418 273.598 242.921 273.55C242.423 273.502 241.989 273.561 241.617 273.726C241.257 273.882 240.97 274.106 240.755 274.397C240.541 274.687 240.404 275.006 240.344 275.351L244.883 275.788ZM268.049 285.627L268.276 283.645C268.164 283.835 267.902 284.101 267.49 284.443C267.089 284.786 266.572 285.083 265.939 285.333C265.308 285.574 264.594 285.656 263.797 285.579C262.603 285.464 261.591 285.075 260.761 284.413C259.932 283.741 259.325 282.894 258.939 281.872C258.554 280.841 258.43 279.729 258.567 278.537C258.704 277.345 259.077 276.286 259.687 275.36C260.297 274.424 261.084 273.706 262.047 273.207C263.01 272.707 264.089 272.514 265.284 272.629C266.05 272.703 266.708 272.892 267.257 273.196C267.807 273.49 268.241 273.823 268.561 274.195C268.882 274.557 269.096 274.884 269.203 275.176L269.408 273.388L273.918 273.822L272.513 286.056L268.049 285.627ZM263.017 278.965C262.953 279.521 263.025 280.035 263.232 280.507C263.441 280.97 263.745 281.345 264.144 281.635C264.554 281.925 265.022 282.096 265.55 282.147C266.097 282.2 266.594 282.122 267.041 281.914C267.488 281.706 267.855 281.394 268.144 280.98C268.445 280.557 268.627 280.067 268.691 279.511C268.754 278.955 268.687 278.446 268.488 277.985C268.301 277.515 268.012 277.136 267.623 276.847C267.234 276.548 266.766 276.373 266.219 276.32C265.691 276.269 265.194 276.352 264.726 276.568C264.269 276.775 263.886 277.09 263.576 277.512C263.267 277.924 263.081 278.409 263.017 278.965ZM269.418 271.596L264.122 267.756L266.583 265.251L270.972 269.892L269.418 271.596ZM288.429 277.629C288.3 278.752 288.412 279.792 288.765 280.75C289.129 281.699 289.688 282.481 290.443 283.096C291.208 283.712 292.132 284.072 293.217 284.177C294.302 284.281 295.284 284.105 296.162 283.647C297.049 283.19 297.774 282.531 298.336 281.671C298.908 280.802 299.259 279.806 299.388 278.684C299.517 277.561 299.399 276.525 299.035 275.576C298.681 274.628 298.122 273.846 297.357 273.23C296.604 272.605 295.684 272.24 294.599 272.136C293.514 272.032 292.527 272.213 291.639 272.68C290.761 273.138 290.036 273.796 289.464 274.655C288.903 275.515 288.558 276.506 288.429 277.629ZM283.785 277.182C283.949 275.752 284.356 274.445 285.005 273.262C285.655 272.069 286.491 271.054 287.513 270.218C288.535 269.383 289.693 268.766 290.986 268.368C292.28 267.97 293.643 267.84 295.077 267.978C296.53 268.118 297.839 268.505 299.004 269.14C300.179 269.775 301.166 270.598 301.966 271.61C302.776 272.622 303.358 273.773 303.714 275.062C304.08 276.343 304.181 277.699 304.017 279.129C303.851 280.57 303.453 281.888 302.823 283.082C302.194 284.267 301.373 285.283 300.36 286.13C299.348 286.967 298.195 287.584 296.902 287.982C295.608 288.38 294.22 288.507 292.737 288.364C291.224 288.219 289.875 287.828 288.69 287.191C287.515 286.556 286.532 285.733 285.743 284.723C284.954 283.703 284.386 282.554 284.04 281.275C283.705 279.987 283.62 278.623 283.785 277.182ZM310.514 283.069C310.402 284.043 310.497 284.841 310.798 285.462C311.1 286.074 311.684 286.421 312.55 286.505C313.436 286.59 314.091 286.362 314.516 285.82C314.951 285.269 315.225 284.507 315.337 283.534L315.987 277.871L320.466 278.302L319.761 284.442C319.611 285.753 319.206 286.869 318.547 287.79C317.899 288.702 317.032 289.372 315.946 289.8C314.86 290.228 313.586 290.371 312.123 290.23C310.669 290.09 309.46 289.708 308.496 289.083C307.531 288.457 306.835 287.637 306.408 286.622C305.982 285.596 305.845 284.428 305.995 283.117L306.7 276.977L311.164 277.407L310.514 283.069ZM322.062 278.455L324.152 278.657L324.729 273.635L329.223 274.067L328.647 279.089L331.394 279.354L330.966 283.079L328.219 282.815L327.827 286.227C327.769 286.734 327.797 287.153 327.909 287.486C328.023 287.808 328.279 287.988 328.678 288.027C328.946 288.053 329.182 288.015 329.385 287.914C329.588 287.813 329.711 287.745 329.756 287.709L330.939 291.077C330.863 291.13 330.631 291.218 330.245 291.342C329.868 291.466 329.394 291.566 328.821 291.642C328.249 291.717 327.619 291.722 326.933 291.656C325.708 291.538 324.737 291.098 324.02 290.336C323.303 289.564 323.028 288.457 323.193 287.017L323.725 282.382L321.635 282.181L322.062 278.455ZM332.701 291.849L334.105 279.615L338.644 280.051L337.24 292.286L332.701 291.849ZM336.723 277.32C336.007 277.251 335.428 276.944 334.987 276.4C334.548 275.845 334.368 275.22 334.448 274.525C334.527 273.829 334.845 273.252 335.401 272.794C335.968 272.326 336.605 272.126 337.312 272.194C337.779 272.239 338.194 272.399 338.555 272.675C338.917 272.941 339.195 273.279 339.389 273.69C339.584 274.1 339.654 274.544 339.599 275.021C339.519 275.716 339.196 276.293 338.63 276.75C338.066 277.198 337.43 277.388 336.723 277.32ZM344.906 293.024L340.352 292.586L342.705 272.08L347.259 272.519L344.906 293.024ZM354.772 281.242C355.579 281.32 356.307 281.46 356.958 281.663C357.61 281.857 358.15 282.059 358.579 282.271C359.018 282.484 359.295 282.652 359.412 282.773L357.628 285.299C357.455 285.141 357.122 284.929 356.629 284.66C356.147 284.393 355.592 284.229 354.965 284.169C354.487 284.123 354.075 284.158 353.73 284.276C353.385 284.383 353.195 284.591 353.16 284.899C353.125 285.207 353.275 285.472 353.612 285.696C353.96 285.91 354.469 286.12 355.14 286.325C355.723 286.502 356.309 286.749 356.896 287.066C357.484 287.384 357.953 287.816 358.303 288.362C358.664 288.899 358.796 289.585 358.701 290.419C358.603 291.274 358.337 291.961 357.905 292.482C357.473 293.003 356.936 293.388 356.293 293.638C355.651 293.887 354.969 294.038 354.249 294.089C353.527 294.15 352.833 294.148 352.166 294.084C351.23 293.994 350.424 293.831 349.746 293.595C349.079 293.36 348.544 293.113 348.141 292.853C347.738 292.593 347.459 292.391 347.305 292.245L349.11 289.406C349.344 289.649 349.738 289.938 350.294 290.273C350.85 290.598 351.457 290.792 352.114 290.855C352.751 290.916 353.255 290.869 353.625 290.714C353.995 290.559 354.197 290.327 354.233 290.019C354.261 289.771 354.199 289.564 354.047 289.399C353.895 289.233 353.671 289.081 353.375 288.942C353.079 288.803 352.717 288.668 352.29 288.537C351.901 288.419 351.492 288.254 351.063 288.042C350.635 287.83 350.238 287.561 349.873 287.234C349.509 286.898 349.228 286.494 349.03 286.023C348.833 285.552 348.771 284.999 348.844 284.363C348.937 283.548 349.278 282.898 349.868 282.412C350.457 281.927 351.185 281.59 352.052 281.402C352.92 281.204 353.827 281.151 354.772 281.242ZM153.447 328.114L157.023 296.958L165.977 297.82L165.548 301.558L160.74 301.095L158.022 324.775L162.83 325.238L162.401 328.976L153.447 328.114ZM179.446 318.523C180.514 318.625 181.502 318.562 182.409 318.333C183.327 318.105 184.019 317.861 184.483 317.601L186.206 322.232C185.607 322.643 184.618 323.022 183.24 323.37C181.873 323.719 180.284 323.806 178.472 323.632C176.777 323.469 175.22 323.02 173.801 322.286C172.382 321.552 171.165 320.597 170.149 319.421C169.147 318.234 168.403 316.891 167.917 315.391C167.445 313.881 167.306 312.28 167.5 310.588C167.694 308.895 168.194 307.356 168.999 305.968C169.805 304.569 170.833 303.385 172.084 302.416C173.345 301.447 174.753 300.739 176.308 300.291C177.875 299.833 179.506 299.685 181.202 299.848C183.014 300.022 184.548 300.41 185.806 301.012C187.075 301.614 187.956 302.174 188.449 302.69L185.712 306.891C185.319 306.537 184.698 306.167 183.85 305.781C183.015 305.384 182.063 305.134 180.994 305.031C179.81 304.917 178.755 305.003 177.83 305.289C176.906 305.563 176.111 305.991 175.446 306.571C174.781 307.152 174.257 307.828 173.875 308.6C173.493 309.372 173.251 310.198 173.15 311.079C173.047 311.971 173.095 312.837 173.292 313.676C173.491 314.504 173.849 315.265 174.368 315.96C174.888 316.654 175.567 317.229 176.407 317.685C177.248 318.129 178.261 318.409 179.446 318.523ZM196.433 325.361C194.865 325.21 193.508 324.757 192.362 324.002C191.228 323.237 190.378 322.258 189.81 321.067C189.255 319.865 189.062 318.534 189.229 317.074C189.397 315.613 189.889 314.348 190.704 313.278C191.533 312.198 192.589 311.385 193.872 310.841C195.168 310.298 196.599 310.101 198.167 310.252C199.734 310.403 201.079 310.866 202.199 311.642C203.319 312.418 204.15 313.412 204.692 314.624C205.235 315.825 205.423 317.156 205.255 318.616C205.088 320.076 204.602 321.342 203.798 322.413C202.996 323.473 201.959 324.269 200.688 324.803C199.419 325.326 198 325.511 196.433 325.361ZM196.932 321.014C197.535 321.072 198.073 320.989 198.545 320.765C199.017 320.541 199.403 320.197 199.703 319.734C200.002 319.271 200.188 318.732 200.258 318.117C200.33 317.492 200.272 316.923 200.084 316.413C199.896 315.903 199.597 315.487 199.188 315.167C198.778 314.846 198.272 314.657 197.668 314.599C197.064 314.541 196.52 314.629 196.035 314.863C195.562 315.099 195.169 315.448 194.858 315.91C194.558 316.374 194.372 316.918 194.301 317.544C194.23 318.158 194.289 318.721 194.477 319.231C194.676 319.742 194.982 320.153 195.392 320.462C195.815 320.772 196.328 320.956 196.932 321.014ZM228.55 313.177C229.63 313.28 230.556 313.598 231.329 314.13C232.103 314.649 232.669 315.395 233.027 316.367C233.397 317.34 233.498 318.557 233.33 320.017L232.368 328.397L227.16 327.896L228.03 320.316C228.144 319.319 228.086 318.499 227.854 317.856C227.623 317.212 227.06 316.848 226.166 316.761C225.632 316.71 225.145 316.804 224.707 317.043C224.269 317.282 223.911 317.64 223.633 318.117C223.356 318.583 223.179 319.158 223.1 319.841L222.23 327.422L217.37 326.954L218.24 319.374C218.355 318.377 218.279 317.555 218.012 316.908C217.758 316.263 217.212 315.9 216.376 315.819C215.842 315.768 215.356 315.862 214.917 316.101C214.48 316.328 214.123 316.68 213.845 317.158C213.58 317.624 213.408 318.205 213.328 318.901L212.458 326.481L207.197 325.975L208.835 311.701L214.096 312.207L213.863 314.241C214.043 313.895 214.387 313.559 214.894 313.233C215.414 312.897 216.037 312.634 216.763 312.446C217.491 312.247 218.243 312.185 219.021 312.259C219.869 312.341 220.563 312.537 221.103 312.846C221.644 313.145 222.07 313.52 222.383 313.972C222.706 314.425 222.95 314.905 223.115 315.413C223.326 315.012 223.693 314.625 224.217 314.254C224.754 313.872 225.398 313.576 226.15 313.367C226.914 313.16 227.714 313.096 228.55 313.177ZM239.814 336.426L234.571 335.922L237.039 314.415L242.335 314.925L242.095 317.011C242.295 316.703 242.643 316.379 243.14 316.04C243.65 315.69 244.275 315.411 245.015 315.201C245.769 314.98 246.598 314.914 247.504 315.001C248.898 315.135 250.049 315.591 250.957 316.37C251.877 317.15 252.539 318.14 252.941 319.339C253.345 320.526 253.467 321.815 253.308 323.206C253.148 324.597 252.718 325.838 252.017 326.931C251.318 328.012 250.412 328.845 249.3 329.429C248.201 330.003 246.954 330.223 245.561 330.089C244.562 329.993 243.729 329.737 243.06 329.321C242.404 328.895 241.898 328.447 241.541 327.979C241.197 327.501 240.986 327.135 240.91 326.882L239.814 336.426ZM248.134 322.708C248.208 322.059 248.13 321.465 247.898 320.927C247.668 320.378 247.319 319.934 246.853 319.596C246.4 319.248 245.866 319.044 245.25 318.985C244.612 318.924 244.019 319.019 243.474 319.271C242.941 319.513 242.5 319.88 242.15 320.374C241.801 320.856 241.589 321.422 241.515 322.071C241.44 322.72 241.518 323.319 241.749 323.869C241.98 324.407 242.329 324.844 242.795 325.182C243.273 325.521 243.831 325.721 244.47 325.783C245.085 325.842 245.654 325.75 246.175 325.507C246.707 325.266 247.148 324.904 247.497 324.422C247.847 323.928 248.059 323.357 248.134 322.708ZM260.075 324.982C260.051 325.495 260.162 325.963 260.407 326.385C260.652 326.807 261.017 327.159 261.501 327.44C261.998 327.71 262.601 327.879 263.31 327.948C263.983 328.012 264.595 328.001 265.145 327.913C265.707 327.827 266.197 327.698 266.616 327.528C267.046 327.358 267.385 327.174 267.63 326.975L269.311 330.441C268.985 330.726 268.537 330.994 267.968 331.244C267.412 331.483 266.694 331.654 265.814 331.757C264.933 331.86 263.836 331.848 262.524 331.722C260.945 331.57 259.574 331.139 258.41 330.429C257.247 329.72 256.377 328.757 255.801 327.541C255.224 326.326 255.031 324.889 255.221 323.232C255.381 321.841 255.826 320.618 256.558 319.564C257.302 318.498 258.293 317.697 259.528 317.16C260.765 316.611 262.203 316.415 263.84 316.573C265.396 316.723 266.711 317.136 267.784 317.814C268.868 318.493 269.654 319.424 270.14 320.607C270.64 321.78 270.793 323.201 270.602 324.87C270.591 324.963 270.564 325.148 270.521 325.425C270.489 325.703 270.456 325.887 270.422 325.978L260.075 324.982ZM265.809 322.739C265.84 322.367 265.784 321.992 265.639 321.615C265.496 321.227 265.252 320.898 264.907 320.631C264.563 320.352 264.101 320.184 263.52 320.128C262.94 320.072 262.433 320.141 262 320.333C261.58 320.516 261.244 320.776 260.994 321.116C260.744 321.455 260.584 321.826 260.514 322.229L265.809 322.739ZM261.884 315.207L260.579 312.919L266.799 308.596L268.946 311.984L261.884 315.207ZM272.973 317.874L275.412 318.109L276.084 312.25L281.328 312.754L280.655 318.613L283.86 318.922L283.361 323.268L280.156 322.96L279.699 326.941C279.631 327.532 279.663 328.022 279.795 328.409C279.928 328.785 280.227 328.996 280.691 329.041C281.005 329.071 281.28 329.027 281.516 328.909C281.753 328.791 281.897 328.711 281.949 328.669L283.33 332.599C283.24 332.661 282.97 332.764 282.519 332.908C282.08 333.053 281.526 333.17 280.859 333.258C280.191 333.346 279.457 333.351 278.655 333.274C277.227 333.137 276.094 332.623 275.257 331.734C274.421 330.833 274.1 329.543 274.292 327.862L274.913 322.455L272.474 322.22L272.973 317.874ZM290.117 327.873C290.093 328.387 290.204 328.855 290.449 329.277C290.694 329.699 291.058 330.05 291.543 330.331C292.04 330.602 292.643 330.771 293.351 330.839C294.025 330.904 294.637 330.892 295.187 330.805C295.749 330.718 296.239 330.59 296.658 330.419C297.088 330.25 297.426 330.065 297.672 329.866L299.353 333.333C299.026 333.618 298.579 333.885 298.01 334.135C297.454 334.375 296.736 334.546 295.855 334.648C294.975 334.751 293.878 334.739 292.566 334.613C290.987 334.461 289.615 334.03 288.452 333.321C287.289 332.611 286.419 331.648 285.843 330.433C285.266 329.217 285.073 327.781 285.263 326.123C285.422 324.732 285.868 323.51 286.6 322.455C287.344 321.39 288.334 320.589 289.57 320.051C290.807 319.503 292.245 319.307 293.882 319.465C295.438 319.614 296.753 320.028 297.826 320.705C298.91 321.384 299.696 322.315 300.182 323.499C300.681 324.672 300.835 326.093 300.644 327.762C300.633 327.854 300.606 328.039 300.562 328.316C300.531 328.595 300.498 328.779 300.464 328.869L290.117 327.873ZM295.851 325.631C295.882 325.259 295.825 324.884 295.681 324.507C295.538 324.118 295.294 323.79 294.949 323.522C294.605 323.243 294.143 323.075 293.562 323.02C292.981 322.964 292.475 323.032 292.041 323.225C291.621 323.407 291.286 323.668 291.036 324.007C290.786 324.346 290.626 324.717 290.556 325.121L295.851 325.631ZM314.09 321.409C315.089 321.506 316.041 321.802 316.947 322.3C317.853 322.797 318.563 323.516 319.077 324.456C319.593 325.384 319.769 326.561 319.605 327.987L318.605 336.697L313.292 336.186L314.192 328.345C314.31 327.325 314.153 326.537 313.724 325.98C313.296 325.411 312.688 325.089 311.898 325.013C311.375 324.963 310.866 325.054 310.369 325.288C309.886 325.511 309.47 325.857 309.123 326.328C308.788 326.788 308.584 327.337 308.511 327.974L307.631 335.641L302.336 335.131L303.974 320.858L309.269 321.367L309.028 323.471C309.211 323.102 309.545 322.747 310.031 322.407C310.529 322.057 311.129 321.787 311.832 321.596C312.548 321.396 313.301 321.333 314.09 321.409ZM329.863 334.002C330.525 334.065 331.084 334.008 331.539 333.829C331.995 333.639 332.307 333.481 332.474 333.356L334.484 337.171C334.281 337.304 333.939 337.47 333.458 337.67C332.978 337.858 332.386 338.006 331.681 338.114C330.987 338.223 330.205 338.236 329.334 338.152C327.697 337.994 326.292 337.549 325.12 336.815C323.949 336.069 323.081 335.095 322.514 333.892C321.959 332.69 321.77 331.324 321.945 329.794C322.122 328.253 322.618 326.953 323.432 325.895C324.258 324.837 325.327 324.061 326.641 323.567C327.955 323.06 329.431 322.886 331.068 323.044C331.928 323.126 332.683 323.293 333.336 323.543C334.001 323.783 334.553 324.041 334.99 324.318C335.43 324.582 335.733 324.805 335.9 324.985L333.011 328.363C332.939 328.274 332.802 328.144 332.598 327.972C332.407 327.801 332.149 327.642 331.826 327.493C331.502 327.345 331.108 327.249 330.644 327.204C330.075 327.149 329.524 327.243 328.991 327.484C328.47 327.727 328.029 328.089 327.669 328.57C327.308 329.051 327.09 329.622 327.014 330.282C326.939 330.943 327.022 331.549 327.264 332.099C327.507 332.638 327.856 333.076 328.311 333.413C328.777 333.751 329.294 333.947 329.863 334.002ZM341.422 332.812C341.399 333.325 341.509 333.793 341.755 334.215C342 334.637 342.364 334.988 342.849 335.269C343.346 335.54 343.949 335.709 344.657 335.777C345.331 335.842 345.943 335.831 346.493 335.743C347.055 335.656 347.545 335.528 347.964 335.357C348.394 335.188 348.732 335.003 348.978 334.804L350.659 338.271C350.332 338.556 349.885 338.823 349.316 339.073C348.76 339.313 348.042 339.484 347.161 339.586C346.281 339.689 345.184 339.677 343.872 339.551C342.293 339.399 340.921 338.968 339.758 338.259C338.595 337.549 337.725 336.586 337.148 335.371C336.572 334.155 336.378 332.719 336.569 331.061C336.728 329.67 337.174 328.448 337.906 327.393C338.65 326.328 339.64 325.527 340.876 324.989C342.113 324.441 343.55 324.245 345.188 324.403C346.744 324.552 348.059 324.966 349.131 325.643C350.216 326.322 351.001 327.253 351.488 328.437C351.987 329.61 352.141 331.031 351.95 332.7C351.939 332.792 351.912 332.977 351.868 333.254C351.836 333.533 351.803 333.717 351.77 333.807L341.422 332.812ZM347.157 330.569C347.188 330.197 347.131 329.822 346.987 329.445C346.844 329.056 346.599 328.728 346.254 328.46C345.911 328.181 345.449 328.014 344.868 327.958C344.287 327.902 343.78 327.97 343.347 328.163C342.927 328.345 342.592 328.606 342.342 328.945C342.091 329.284 341.931 329.655 341.862 330.059L347.157 330.569ZM361.965 326.017C362.905 326.108 363.755 326.272 364.515 326.509C365.275 326.734 365.906 326.971 366.406 327.218C366.917 327.467 367.241 327.662 367.378 327.804L365.296 330.75C365.094 330.566 364.706 330.318 364.131 330.005C363.568 329.693 362.921 329.502 362.189 329.431C361.632 329.378 361.151 329.419 360.748 329.556C360.346 329.682 360.125 329.924 360.084 330.283C360.042 330.643 360.218 330.953 360.611 331.213C361.017 331.463 361.611 331.708 362.393 331.947C363.074 332.153 363.757 332.442 364.443 332.812C365.128 333.183 365.675 333.687 366.083 334.324C366.505 334.95 366.659 335.75 366.548 336.724C366.433 337.721 366.124 338.523 365.62 339.131C365.116 339.738 364.489 340.188 363.739 340.479C362.989 340.77 362.194 340.945 361.354 341.005C360.512 341.076 359.702 341.075 358.924 341C357.832 340.895 356.891 340.705 356.101 340.429C355.322 340.155 354.698 339.867 354.228 339.563C353.758 339.26 353.433 339.024 353.253 338.854L355.359 335.541C355.631 335.826 356.092 336.163 356.74 336.553C357.389 336.932 358.097 337.159 358.863 337.232C359.606 337.304 360.194 337.249 360.626 337.068C361.057 336.887 361.294 336.617 361.335 336.257C361.368 335.968 361.296 335.726 361.119 335.533C360.941 335.341 360.68 335.163 360.335 335.001C359.989 334.839 359.567 334.681 359.068 334.527C358.614 334.39 358.137 334.198 357.637 333.95C357.137 333.703 356.674 333.389 356.248 333.008C355.824 332.616 355.496 332.145 355.266 331.595C355.035 331.046 354.963 330.4 355.048 329.658C355.157 328.708 355.555 327.949 356.242 327.383C356.93 326.816 357.779 326.423 358.791 326.204C359.803 325.973 360.861 325.911 361.965 326.017ZM368.112 348.775L368.541 345.037L373.349 345.499L376.067 321.82L371.259 321.357L371.688 317.619L380.642 318.481L377.066 349.636L368.112 348.775Z" fill="white"/>
<line x1="3.99561" y1="182.029" x2="526.004" y2="182.029" stroke="#0C2D57" stroke-opacity="0.85098" stroke-width="5"/>
<line x1="265.5" y1="85" x2="265.5" y2="179" stroke="#0C2D57"/>
</svg>
