<svg width="242" height="549" viewBox="0 0 242 549" fill="none" xmlns="http://www.w3.org/2000/svg">
<path d="M3.5 10C3.5 6.41015 6.41015 3.5 10 3.5H232C235.59 3.5 238.5 6.41015 238.5 10V539C238.5 542.59 235.59 545.5 232 545.5H9.99999C6.41015 545.5 3.5 542.59 3.5 539V10Z" fill="white" stroke="#FC6736" stroke-width="7"/>
<path d="M17.1416 26.666C17.1416 21.1432 21.6188 16.666 27.1416 16.666H214.858C220.381 16.666 224.858 21.1432 224.858 26.666V522.334C224.858 527.857 220.381 532.334 214.858 532.334H27.1416C21.6188 532.334 17.1416 527.857 17.1416 522.334V26.666Z" fill="#FC6736"/>
<path d="M36.2461 162.099C36.5433 157.968 40.1343 154.846 44.2669 155.127L205.371 166.08C209.503 166.361 212.613 169.938 212.316 174.07L206.505 254.852C206.208 258.984 202.617 262.105 198.485 261.824L37.3808 250.871C33.2482 250.59 30.1389 247.013 30.4361 242.882L36.2461 162.099Z" fill="#0C2D57" stroke="white" stroke-width="5"/>
<line x1="45.375" y1="52.8608" x2="196.625" y2="52.8608" stroke="white" stroke-width="8"/>
<line x1="45.375" y1="107.761" x2="196.625" y2="107.761" stroke="white" stroke-width="8"/>
<line x1="45.375" y1="80.3105" x2="196.625" y2="80.3105" stroke="white" stroke-width="8"/>
<ellipse cx="201.667" cy="301.95" rx="10.0833" ry="9.80357" fill="white"/>
<line x1="201.658" y1="295.087" x2="201.658" y2="308.812" stroke="#FC6736" stroke-width="2"/>
<path d="M56.8777 187.712C57.614 187.762 58.2588 187.703 58.8122 187.537C59.3716 187.37 59.7719 187.199 60.0132 187.023L60.5917 188.388C60.3051 188.609 59.8178 188.82 59.1297 189.019C58.4475 189.22 57.6396 189.288 56.7057 189.225C55.8317 189.165 55.0318 188.954 54.3059 188.592C53.58 188.23 52.9557 187.752 52.4331 187.157C51.9164 186.563 51.5261 185.884 51.2622 185.12C51.0043 184.357 50.9063 183.544 50.9683 182.682C51.0303 181.821 51.2438 181.026 51.6089 180.299C51.974 179.572 52.4549 178.95 53.0516 178.431C53.6548 177.907 54.3417 177.514 55.1124 177.254C55.8894 176.988 56.715 176.885 57.5889 176.944C58.5228 177.008 59.3131 177.185 59.9599 177.475C60.6127 177.766 61.0652 178.041 61.3174 178.298L60.549 179.572C60.3358 179.359 59.9639 179.135 59.4333 178.901C58.9092 178.661 58.279 178.516 57.5427 178.466C56.8722 178.42 56.2505 178.492 55.6774 178.682C55.1043 178.871 54.5962 179.161 54.153 179.552C53.7163 179.937 53.3639 180.404 53.096 180.951C52.834 181.498 52.6792 182.104 52.6314 182.768C52.5832 183.439 52.6494 184.066 52.83 184.649C53.017 185.227 53.299 185.739 53.6759 186.186C54.0593 186.627 54.5211 186.98 55.0615 187.245C55.6018 187.511 56.2072 187.666 56.8777 187.712ZM68.2566 189.793L68.3599 188.357C68.3013 188.503 68.1458 188.7 67.8934 188.948C67.6469 189.196 67.3155 189.414 66.8989 189.602C66.4887 189.784 66.0143 189.857 65.4755 189.821C64.7931 189.774 64.1852 189.571 63.6517 189.21C63.1242 188.849 62.7167 188.367 62.4292 187.764C62.1481 187.156 62.0358 186.46 62.0922 185.676C62.1486 184.892 62.3593 184.221 62.7243 183.662C63.0957 183.098 63.5684 182.673 64.1424 182.387C64.7227 182.096 65.3542 181.974 66.0366 182.02C66.5693 182.056 67.0234 182.183 67.3987 182.401C67.78 182.62 68.0784 182.862 68.2938 183.13C68.5151 183.397 68.6403 183.622 68.6693 183.805L68.7687 182.422L70.3132 182.527L69.7831 189.897L68.2566 189.793ZM63.6366 185.781C63.5983 186.313 63.6819 186.782 63.8874 187.187C64.0929 187.592 64.3734 187.915 64.7291 188.155C65.0911 188.39 65.4847 188.522 65.9097 188.551C66.3647 188.582 66.7795 188.502 67.1541 188.311C67.5288 188.12 67.8349 187.837 68.0724 187.463C68.3103 187.082 68.448 186.631 68.4854 186.11C68.5229 185.59 68.4508 185.128 68.2693 184.725C68.0882 184.315 67.8258 183.991 67.4821 183.751C67.1389 183.505 66.7398 183.367 66.2848 183.336C65.8598 183.307 65.451 183.387 65.0584 183.577C64.6717 183.767 64.3477 184.049 64.0862 184.422C63.8248 184.795 63.6749 185.248 63.6366 185.781ZM75.182 182.642C75.5651 182.668 75.9185 182.731 76.2421 182.831C76.5717 182.932 76.8524 183.044 77.0841 183.168C77.3218 183.292 77.4885 183.4 77.5842 183.491L76.8937 184.436C76.7817 184.32 76.5748 184.186 76.273 184.033C75.9716 183.874 75.6293 183.782 75.2462 183.756C74.8272 183.727 74.465 183.787 74.1596 183.934C73.8547 184.076 73.691 184.302 73.6686 184.614C73.6462 184.925 73.778 185.183 74.064 185.389C74.3564 185.589 74.7527 185.767 75.2529 185.921C75.6531 186.044 76.0239 186.199 76.3655 186.385C76.7131 186.571 76.9872 186.815 77.1881 187.117C77.3893 187.413 77.473 187.798 77.439 188.271C77.408 188.702 77.2917 189.064 77.0902 189.357C76.8891 189.644 76.6292 189.869 76.3105 190.034C75.9923 190.193 75.6417 190.301 75.2585 190.36C74.8753 190.418 74.4892 190.434 74.1001 190.407C73.6452 190.376 73.2386 190.3 72.8803 190.18C72.5216 190.065 72.221 189.937 71.9787 189.794C71.7427 189.645 71.5713 189.52 71.4644 189.416L72.1641 188.345C72.3089 188.505 72.552 188.681 72.8931 188.873C73.2402 189.065 73.6412 189.176 74.0962 189.207C74.599 189.241 75.0136 189.164 75.34 188.976C75.6667 188.782 75.8424 188.514 75.8669 188.173C75.8854 187.916 75.8255 187.704 75.687 187.538C75.5485 187.372 75.357 187.233 75.1125 187.12C74.868 187.007 74.5986 186.905 74.3045 186.813C74.0219 186.727 73.7468 186.621 73.4792 186.495C73.2175 186.369 72.979 186.214 72.7636 186.031C72.5546 185.843 72.393 185.621 72.279 185.367C72.1654 185.107 72.1206 184.809 72.1447 184.474C72.1753 184.049 72.336 183.696 72.6269 183.415C72.9182 183.128 73.2882 182.919 73.7368 182.787C74.1854 182.655 74.6672 182.607 75.182 182.642ZM79.2669 190.542L79.797 183.172L81.3594 183.278L80.8293 190.648L79.2669 190.542ZM80.7775 180.704C80.4962 180.685 80.2609 180.569 80.0715 180.358C79.8886 180.141 79.8073 179.892 79.8275 179.611C79.8477 179.33 79.9639 179.094 80.1761 178.904C80.3943 178.714 80.644 178.629 80.9254 178.648C81.111 178.661 81.2781 178.72 81.4269 178.827C81.5816 178.933 81.7013 179.068 81.7859 179.23C81.8709 179.386 81.9065 179.56 81.8927 179.751C81.8725 180.033 81.7533 180.268 81.5352 180.458C81.3174 180.641 81.0649 180.723 80.7775 180.704ZM84.4385 187.511C84.4126 187.954 84.4794 188.364 84.6387 188.742C84.798 189.12 85.0525 189.429 85.4021 189.669C85.7578 189.91 86.205 190.048 86.7437 190.085C87.1987 190.116 87.5895 190.076 87.9163 189.966C88.2494 189.851 88.5244 189.707 88.7413 189.535C88.9586 189.358 89.1176 189.197 89.2181 189.053L89.9136 190.048C89.6953 190.322 89.4348 190.557 89.132 190.753C88.8352 190.949 88.4791 191.09 88.0639 191.176C87.6482 191.268 87.147 191.294 86.5604 191.254C85.7702 191.201 85.0969 190.986 84.5403 190.612C83.9902 190.232 83.581 189.732 83.3127 189.112C83.0449 188.486 82.939 187.785 82.995 187.007C83.0466 186.289 83.2397 185.652 83.5744 185.098C83.9095 184.537 84.3674 184.108 84.9482 183.811C85.535 183.514 86.2235 183.392 87.0137 183.446C87.738 183.495 88.3556 183.691 88.8664 184.032C89.3837 184.368 89.7691 184.821 90.0229 185.392C90.2826 185.963 90.3849 186.631 90.3298 187.397C90.3263 187.445 90.3171 187.532 90.3021 187.657C90.2875 187.776 90.2755 187.859 90.266 187.907L84.4385 187.511ZM88.887 186.631C88.8987 186.386 88.8462 186.112 88.7296 185.809C88.619 185.507 88.4216 185.241 88.1373 185.011C87.8531 184.781 87.4566 184.649 86.9477 184.614C86.4209 184.578 85.9886 184.651 85.6507 184.833C85.3188 185.015 85.0675 185.247 84.8967 185.53C84.7264 185.807 84.6198 186.077 84.577 186.338L88.887 186.631ZM93.3115 191.497L91.7581 191.391L92.2881 184.021L93.8415 184.127L93.7499 185.401L93.705 185.398C93.7461 185.245 93.8708 185.058 94.0792 184.838C94.2875 184.617 94.566 184.426 94.9145 184.263C95.2631 184.1 95.6708 184.035 96.1378 184.066C96.479 184.09 96.7748 184.158 97.0254 184.271C97.2823 184.379 97.4614 184.481 97.5627 184.578L96.8322 185.828C96.7544 185.738 96.6138 185.644 96.4103 185.546C96.2072 185.442 95.9501 185.38 95.6388 185.359C95.2437 185.332 94.8967 185.431 94.5977 185.658C94.2987 185.884 94.0619 186.165 93.8872 186.502C93.719 186.834 93.6244 187.146 93.6033 187.439L93.3115 191.497ZM108.453 192.526L108.556 191.09C108.498 191.236 108.342 191.433 108.09 191.681C107.843 191.928 107.512 192.146 107.095 192.335C106.685 192.517 106.211 192.59 105.672 192.554C104.989 192.507 104.381 192.303 103.848 191.942C103.32 191.582 102.913 191.1 102.625 190.497C102.344 189.889 102.232 189.193 102.288 188.409C102.345 187.625 102.556 186.953 102.921 186.395C103.292 185.831 103.765 185.406 104.339 185.12C104.919 184.829 105.55 184.706 106.233 184.753C106.766 184.789 107.22 184.916 107.595 185.134C107.976 185.352 108.275 185.595 108.49 185.862C108.711 186.13 108.837 186.355 108.866 186.537L108.965 185.155L110.509 185.26L109.979 192.63L108.453 192.526ZM103.833 188.514C103.795 189.046 103.878 189.515 104.084 189.92C104.289 190.325 104.57 190.647 104.925 190.888C105.287 191.123 105.681 191.255 106.106 191.284C106.561 191.315 106.976 191.235 107.35 191.044C107.725 190.853 108.031 190.57 108.269 190.195C108.507 189.815 108.644 189.364 108.682 188.843C108.719 188.323 108.647 187.861 108.466 187.457C108.284 187.048 108.022 186.724 107.678 186.484C107.335 186.238 106.936 186.1 106.481 186.069C106.056 186.04 105.647 186.12 105.255 186.31C104.868 186.5 104.544 186.782 104.283 187.155C104.021 187.528 103.871 187.981 103.833 188.514ZM108.148 183.719L105.221 181.635L106.181 180.582L108.767 183.022L108.148 183.719ZM121.9 193.44L120.086 193.317L116.601 181.173L118.334 181.291L121.127 191.512L125.374 181.769L127.098 181.886L121.9 193.44ZM127.827 190.461C127.801 190.904 127.867 191.314 128.027 191.692C128.186 192.07 128.441 192.379 128.79 192.619C129.146 192.86 129.593 192.998 130.132 193.035C130.587 193.066 130.978 193.026 131.304 192.916C131.638 192.8 131.913 192.657 132.129 192.485C132.347 192.307 132.506 192.147 132.606 192.003L133.302 192.998C133.083 193.272 132.823 193.506 132.52 193.702C132.223 193.899 131.867 194.04 131.452 194.126C131.036 194.218 130.535 194.244 129.949 194.204C129.158 194.15 128.485 193.936 127.928 193.562C127.378 193.181 126.969 192.681 126.701 192.062C126.433 191.436 126.327 190.734 126.383 189.956C126.435 189.238 126.628 188.602 126.963 188.047C127.298 187.487 127.756 187.058 128.336 186.761C128.923 186.464 129.612 186.342 130.402 186.396C131.126 186.445 131.744 186.64 132.255 186.982C132.772 187.318 133.157 187.771 133.411 188.341C133.671 188.912 133.773 189.581 133.718 190.347C133.714 190.395 133.705 190.481 133.69 190.607C133.676 190.726 133.664 190.809 133.654 190.857L127.827 190.461ZM132.275 189.581C132.287 189.336 132.234 189.061 132.118 188.759C132.007 188.457 131.81 188.191 131.525 187.961C131.241 187.731 130.845 187.599 130.336 187.564C129.809 187.528 129.377 187.601 129.039 187.783C128.707 187.965 128.456 188.197 128.285 188.48C128.115 188.757 128.008 189.027 127.965 189.288L132.275 189.581ZM132.467 185.905L130.562 184.296L128.454 185.623L127.837 184.67L130.663 182.887L133.216 185.036L132.467 185.905ZM135.083 186.931L136.529 187.029L136.746 184.004L138.3 184.109L138.082 187.135L139.977 187.263L139.881 188.601L137.986 188.472L137.724 192.117C137.693 192.548 137.745 192.87 137.88 193.084C138.021 193.298 138.22 193.413 138.478 193.431C138.705 193.446 138.885 193.416 139.016 193.341C139.148 193.266 139.227 193.214 139.253 193.186L139.79 194.377C139.752 194.405 139.652 194.455 139.49 194.528C139.329 194.601 139.123 194.662 138.873 194.712C138.623 194.761 138.333 194.774 138.004 194.752C137.429 194.713 136.96 194.506 136.595 194.133C136.238 193.754 136.086 193.184 136.141 192.424L136.433 188.367L134.987 188.268L135.083 186.931ZM142.348 191.448C142.322 191.891 142.389 192.302 142.548 192.679C142.707 193.057 142.962 193.366 143.311 193.606C143.667 193.847 144.114 193.985 144.653 194.022C145.108 194.053 145.499 194.013 145.826 193.903C146.159 193.788 146.434 193.644 146.651 193.472C146.868 193.295 147.027 193.134 147.127 192.991L147.823 193.985C147.605 194.259 147.344 194.494 147.041 194.69C146.744 194.886 146.388 195.027 145.973 195.113C145.557 195.205 145.056 195.231 144.47 195.191C143.68 195.138 143.006 194.923 142.45 194.549C141.899 194.169 141.49 193.669 141.222 193.049C140.954 192.424 140.848 191.722 140.904 190.944C140.956 190.226 141.149 189.589 141.484 189.035C141.819 188.474 142.277 188.045 142.858 187.748C143.444 187.451 144.133 187.329 144.923 187.383C145.647 187.432 146.265 187.628 146.776 187.969C147.293 188.305 147.678 188.758 147.932 189.329C148.192 189.9 148.294 190.568 148.239 191.334C148.236 191.382 148.226 191.469 148.211 191.594C148.197 191.713 148.185 191.797 148.175 191.844L142.348 191.448ZM146.796 190.569C146.808 190.323 146.755 190.049 146.639 189.746C146.528 189.444 146.331 189.178 146.047 188.948C145.762 188.718 145.366 188.586 144.857 188.551C144.33 188.516 143.898 188.588 143.56 188.77C143.228 188.952 142.977 189.184 142.806 189.467C142.636 189.744 142.529 190.014 142.486 190.276L146.796 190.569ZM159.075 188.345C159.62 188.382 160.079 188.534 160.45 188.8C160.823 189.059 161.093 189.439 161.262 189.937C161.437 190.436 161.497 191.063 161.442 191.817L161.134 196.108L159.589 196.003L159.875 192.026C159.933 191.23 159.865 190.624 159.672 190.208C159.48 189.792 159.09 189.564 158.503 189.524C158.192 189.503 157.887 189.569 157.587 189.724C157.293 189.872 157.041 190.116 156.83 190.457C156.625 190.798 156.503 191.243 156.463 191.794L156.177 195.771L154.723 195.672L155.009 191.695C155.066 190.899 154.971 190.291 154.725 189.872C154.478 189.452 154.107 189.225 153.61 189.192C153.292 189.17 152.987 189.233 152.694 189.382C152.407 189.525 152.164 189.767 151.965 190.108C151.766 190.449 151.646 190.901 151.606 191.464L151.32 195.441L149.766 195.335L150.296 187.965L151.85 188.071L151.768 189.202C151.847 189.021 152.002 188.833 152.233 188.638C152.469 188.443 152.763 188.286 153.115 188.166C153.473 188.04 153.864 187.991 154.289 188.02C154.732 188.05 155.097 188.165 155.384 188.365C155.67 188.565 155.89 188.802 156.045 189.077C156.2 189.347 156.302 189.603 156.351 189.847C156.453 189.595 156.633 189.349 156.891 189.108C157.15 188.861 157.467 188.666 157.845 188.523C158.222 188.375 158.632 188.315 159.075 188.345ZM164.515 192.955C164.49 193.398 164.556 193.809 164.716 194.186C164.875 194.564 165.129 194.873 165.479 195.113C165.835 195.354 166.282 195.493 166.821 195.529C167.276 195.56 167.666 195.521 167.993 195.41C168.326 195.295 168.601 195.151 168.818 194.979C169.035 194.802 169.194 194.641 169.295 194.498L169.99 195.492C169.772 195.766 169.512 196.001 169.209 196.197C168.912 196.393 168.556 196.534 168.141 196.62C167.725 196.712 167.224 196.738 166.637 196.698C165.847 196.645 165.174 196.431 164.617 196.056C164.067 195.676 163.658 195.176 163.39 194.556C163.122 193.931 163.016 193.229 163.072 192.451C163.123 191.733 163.317 191.096 163.651 190.542C163.986 189.981 164.444 189.552 165.025 189.255C165.612 188.958 166.3 188.837 167.091 188.89C167.815 188.939 168.432 189.135 168.943 189.476C169.461 189.812 169.846 190.265 170.1 190.836C170.359 191.407 170.462 192.075 170.407 192.841C170.403 192.889 170.394 192.976 170.379 193.101C170.364 193.22 170.352 193.304 170.343 193.351L164.515 192.955ZM168.964 192.076C168.976 191.83 168.923 191.556 168.806 191.253C168.696 190.951 168.498 190.685 168.214 190.455C167.93 190.225 167.533 190.093 167.025 190.058C166.498 190.023 166.065 190.095 165.728 190.277C165.396 190.459 165.144 190.691 164.974 190.974C164.803 191.252 164.697 191.521 164.654 191.783L168.964 192.076ZM176.52 189.531C177.005 189.564 177.467 189.698 177.908 189.932C178.354 190.167 178.708 190.516 178.969 190.979C179.237 191.436 179.346 192.018 179.295 192.724L178.964 197.32L177.384 197.213L177.693 192.922C177.745 192.192 177.613 191.65 177.295 191.298C176.978 190.94 176.55 190.742 176.011 190.706C175.658 190.682 175.31 190.76 174.966 190.941C174.628 191.117 174.342 191.374 174.107 191.713C173.873 192.046 173.74 192.433 173.708 192.876L173.415 196.943L171.853 196.837L172.383 189.467L173.945 189.573L173.851 190.883C173.92 190.684 174.082 190.472 174.339 190.249C174.596 190.026 174.915 189.843 175.299 189.701C175.682 189.559 176.089 189.502 176.52 189.531ZM180.909 190.046L182.355 190.145L182.572 187.119L184.126 187.225L183.908 190.25L185.803 190.379L185.707 191.716L183.812 191.588L183.55 195.232C183.519 195.663 183.571 195.985 183.706 196.199C183.847 196.413 184.046 196.529 184.303 196.546C184.531 196.562 184.711 196.532 184.842 196.457C184.974 196.381 185.053 196.33 185.079 196.301L185.616 197.493C185.578 197.52 185.478 197.57 185.316 197.644C185.155 197.717 184.949 197.778 184.699 197.827C184.448 197.876 184.159 197.89 183.829 197.867C183.255 197.828 182.785 197.622 182.421 197.248C182.064 196.869 181.912 196.3 181.967 195.54L182.259 191.482L180.813 191.384L180.909 190.046ZM190.264 190.466C190.647 190.492 191 190.555 191.324 190.655C191.654 190.756 191.934 190.868 192.166 190.992C192.404 191.116 192.571 191.224 192.666 191.315L191.976 192.26C191.864 192.144 191.657 192.01 191.355 191.857C191.054 191.698 190.711 191.606 190.328 191.58C189.909 191.551 189.547 191.611 189.242 191.758C188.937 191.9 188.773 192.126 188.751 192.438C188.728 192.749 188.86 193.007 189.146 193.213C189.438 193.414 189.835 193.591 190.335 193.745C190.735 193.869 191.106 194.023 191.448 194.209C191.795 194.395 192.069 194.639 192.27 194.941C192.471 195.237 192.555 195.622 192.521 196.095C192.49 196.526 192.374 196.888 192.172 197.181C191.971 197.468 191.711 197.693 191.393 197.858C191.074 198.017 190.724 198.125 190.341 198.184C189.957 198.242 189.571 198.258 189.182 198.231C188.727 198.2 188.321 198.124 187.962 198.004C187.604 197.889 187.303 197.761 187.061 197.618C186.825 197.47 186.653 197.344 186.546 197.24L187.246 196.169C187.391 196.329 187.634 196.505 187.975 196.697C188.322 196.889 188.723 197 189.178 197.031C189.681 197.065 190.096 196.988 190.422 196.8C190.749 196.606 190.924 196.338 190.949 195.997C190.967 195.74 190.907 195.528 190.769 195.362C190.631 195.196 190.439 195.057 190.195 194.944C189.95 194.831 189.681 194.729 189.386 194.637C189.104 194.551 188.829 194.446 188.561 194.319C188.3 194.193 188.061 194.039 187.846 193.855C187.637 193.667 187.475 193.445 187.361 193.191C187.247 192.931 187.203 192.633 187.227 192.298C187.257 191.873 187.418 191.52 187.709 191.239C188 190.952 188.37 190.743 188.819 190.611C189.267 190.479 189.749 190.431 190.264 190.466ZM94.5659 229.87L96.1728 207.528L102.583 207.963L102.39 210.644L98.9481 210.41L97.7268 227.391L101.169 227.625L100.976 230.306L94.5659 229.87ZM112.813 222.491C113.578 222.543 114.281 222.478 114.92 222.296C115.568 222.114 116.054 221.926 116.377 221.731L117.746 225.006C117.331 225.312 116.637 225.603 115.665 225.879C114.701 226.156 113.571 226.251 112.274 226.163C111.06 226.08 109.936 225.791 108.902 225.294C107.869 224.798 106.972 224.14 106.212 223.32C105.461 222.492 104.89 221.547 104.498 220.485C104.116 219.415 103.968 218.273 104.056 217.059C104.143 215.846 104.452 214.735 104.984 213.727C105.517 212.711 106.214 211.844 107.076 211.126C107.947 210.408 108.929 209.873 110.024 209.522C111.128 209.162 112.286 209.024 113.5 209.107C114.797 209.195 115.903 209.441 116.818 209.846C117.742 210.251 118.387 210.633 118.754 210.992L116.929 214.051C116.638 213.805 116.184 213.553 115.568 213.294C114.96 213.027 114.274 212.868 113.509 212.816C112.661 212.758 111.912 212.841 111.261 213.064C110.61 213.278 110.057 213.6 109.6 214.028C109.143 214.457 108.79 214.95 108.541 215.51C108.292 216.069 108.144 216.665 108.099 217.297C108.053 217.937 108.113 218.555 108.279 219.15C108.445 219.738 108.724 220.275 109.116 220.761C109.507 221.247 110.009 221.644 110.621 221.953C111.235 222.254 111.965 222.433 112.813 222.491ZM129.057 227.003L124.842 226.716L120.164 209.86L124.367 210.146L127.291 222.109L131.9 210.658L136.102 210.944L129.057 227.003ZM136.474 232.719L136.667 230.039L140.109 230.273L141.33 213.291L137.888 213.057L138.081 210.377L144.491 210.813L142.884 233.155L136.474 232.719Z" fill="white"/>
</svg>
