<svg width="434" height="560" viewBox="0 0 434 560" fill="none" xmlns="http://www.w3.org/2000/svg">
<path d="M197.5 10C197.5 6.41015 200.41 3.5 204 3.5H424C427.59 3.5 430.5 6.41015 430.5 10V550C430.5 553.59 427.59 556.5 424 556.5H204C200.41 556.5 197.5 553.59 197.5 550V10Z" fill="#FC6736" fill-opacity="0.36" stroke="#FC6736" stroke-width="7"/>
<path d="M0 27C0 21.4771 4.47715 17 10 17H196C201.523 17 206 21.4772 206 27V533C206 538.523 201.523 543 196 543H10C4.47715 543 0 538.523 0 533V27Z" fill="#FC6736"/>
<line x1="28" y1="54" x2="178" y2="54" stroke="white" stroke-width="8"/>
<line x1="28" y1="110" x2="178" y2="110" stroke="white" stroke-width="8"/>
<line x1="28" y1="82" x2="178" y2="82" stroke="white" stroke-width="8"/>
<circle cx="23" cy="308" r="10" fill="white"/>
<line x1="23" y1="301" x2="23" y2="315" stroke="#FC6736" stroke-width="2"/>
<line x1="206" y1="126" x2="427" y2="126" stroke="white" stroke-opacity="0.5" stroke-width="10"/>
<path fill-rule="evenodd" clip-rule="evenodd" d="M318.75 83.0833V103.667C318.75 106.658 321.175 109.083 324.167 109.083C327.158 109.083 329.583 111.508 329.583 114.5C329.583 117.492 327.158 119.917 324.167 119.917H215.833C212.842 119.917 210.417 117.492 210.417 114.5C210.417 111.508 212.842 109.083 215.833 109.083C218.825 109.083 221.25 106.658 221.25 103.667V83.0833C221.25 68.1776 231.703 55.2249 247.064 48.6606C247.419 44.0764 250.69 40.0504 255.406 38.9501C256.213 38.7617 257.039 38.6667 257.868 38.6667H282.132C287.833 38.6667 292.505 43.0692 292.934 48.6596C308.296 55.2235 318.75 68.1768 318.75 83.0833ZM232.083 83.0833V103.667C232.083 105.566 231.758 107.389 231.159 109.083H308.841C308.243 107.389 307.917 105.566 307.917 103.667V83.0833C307.917 73.5777 301.249 64.7783 290.894 59.6265L287.914 72.3975C287.234 75.3108 284.321 77.1214 281.408 76.4416C278.495 75.7619 276.684 72.8491 277.364 69.9358L282.132 49.5H257.868L262.636 69.9358C263.316 72.8491 261.505 75.7619 258.592 76.4416C255.679 77.1214 252.766 75.3108 252.086 72.3975L249.106 59.6265C238.751 64.7783 232.083 73.5777 232.083 83.0833Z" fill="white" fill-opacity="0.7"/>
<g clip-path="url(#clip0_65_90)">
<path d="M395 517.5H380C379.337 517.499 378.702 517.236 378.233 516.767C377.764 516.298 377.501 515.663 377.5 515V485C377.498 483.674 376.971 482.404 376.034 481.466C375.096 480.529 373.826 480.002 372.5 480H347.5C346.174 480.002 344.904 480.529 343.966 481.466C343.029 482.404 342.502 483.674 342.5 485V545C342.502 546.326 343.029 547.596 343.966 548.534C344.904 549.471 346.174 549.998 347.5 550H402.5C403.826 549.998 405.096 549.471 406.034 548.534C406.971 547.596 407.498 546.326 407.5 545V530C407.496 526.686 406.178 523.509 403.835 521.165C401.491 518.822 398.314 517.504 395 517.5ZM402.5 530V535H392.5V522.5H395C396.988 522.502 398.895 523.293 400.301 524.699C401.707 526.105 402.498 528.012 402.5 530ZM372.5 485V490H362.5V495H372.5V500H362.5V505H372.5V510H362.5V515H372.5C372.502 516.988 373.293 518.895 374.699 520.301C376.105 521.707 378.012 522.498 380 522.5H387.5V535H370.406L362.906 532.5H347.5V485H372.5ZM397.5 545V542.5H392.5V545H387.5V542.5H382.5V545H377.5V542.5H372.5V545H367.5V542.5H362.5V545H347.5V537.5H362.094L369.594 540H402.5V545H397.5Z" fill="white" fill-opacity="0.7"/>
</g>
<g clip-path="url(#clip1_65_90)">
<path d="M310 517.5H295C294.337 517.499 293.702 517.236 293.233 516.767C292.764 516.298 292.501 515.663 292.5 515V485C292.498 483.674 291.971 482.404 291.034 481.466C290.096 480.529 288.826 480.002 287.5 480H262.5C261.174 480.002 259.904 480.529 258.966 481.466C258.029 482.404 257.502 483.674 257.5 485V545C257.502 546.326 258.029 547.596 258.966 548.534C259.904 549.471 261.174 549.998 262.5 550H317.5C318.826 549.998 320.096 549.471 321.034 548.534C321.971 547.596 322.498 546.326 322.5 545V530C322.496 526.686 321.178 523.509 318.835 521.165C316.491 518.822 313.314 517.504 310 517.5ZM317.5 530V535H307.5V522.5H310C311.988 522.502 313.895 523.293 315.301 524.699C316.707 526.105 317.498 528.012 317.5 530ZM287.5 485V490H277.5V495H287.5V500H277.5V505H287.5V510H277.5V515H287.5C287.502 516.988 288.293 518.895 289.699 520.301C291.105 521.707 293.012 522.498 295 522.5H302.5V535H285.406L277.906 532.5H262.5V485H287.5ZM312.5 545V542.5H307.5V545H302.5V542.5H297.5V545H292.5V542.5H287.5V545H282.5V542.5H277.5V545H262.5V537.5H277.094L284.594 540H317.5V545H312.5Z" fill="white" fill-opacity="0.7"/>
</g>
<line x1="300" y1="149.5" x2="330" y2="149.5" stroke="white" stroke-opacity="0.5" stroke-width="3"/>
<line x1="315.5" y1="148" x2="315.5" y2="131" stroke="white" stroke-opacity="0.5" stroke-width="3"/>
<path d="M401.18 162.976L337.293 146.355H336.042H335.863C333.362 146.355 331.324 147.968 330.948 150.377C330.432 153.686 328.61 156.342 325.499 158.597C322.445 160.81 318.975 161.902 315.043 161.902C311.112 161.902 307.628 160.831 304.499 158.597C301.373 156.363 299.616 153.677 299.049 150.377C298.634 147.958 296.546 146.355 294.135 146.355H293.777H292.526L228.638 162.976C226.036 163.652 224.49 166.447 225.153 169.051L234.088 204.168C234.651 206.375 236.679 207.832 239.092 207.832H262.682V286.731C262.682 289.501 264.827 291.645 267.596 291.645H362.222C364.992 291.645 367.316 289.501 367.316 286.731V207.832H390.906C393.14 207.832 395.179 206.287 395.73 204.168L404.844 169.051C405.519 166.449 403.95 163.696 401.18 162.976ZM387.063 197.913H362.222C359.632 197.913 357.308 200.147 357.308 202.917V281.727H272.51V202.917C272.51 200.147 270.366 197.913 267.596 197.913H242.935L235.964 171.375L290.827 157.167C292.795 161.546 295.921 165.12 300.3 167.89C304.678 170.66 309.593 172 315.043 172C320.405 172 325.23 170.66 329.608 167.89C333.987 165.12 337.203 161.546 339.168 157.167L394.032 171.375L387.063 197.913Z" fill="white" fill-opacity="0.7"/>
<defs>
<clipPath id="clip0_65_90">
<rect width="80" height="80" fill="white" transform="translate(335 475)"/>
</clipPath>
<clipPath id="clip1_65_90">
<rect width="80" height="80" fill="white" transform="translate(250 475)"/>
</clipPath>
</defs>
</svg>
