<svg width="175" height="155" viewBox="0 0 175 155" fill="none" xmlns="http://www.w3.org/2000/svg">
<rect x="53.5" y="64.5" width="69" height="90" rx="14.5" fill="#FC6736" stroke="#887171"/>
<rect x="11.1709" y="51.9626" width="48" height="35" transform="rotate(-45 11.1709 51.9626)" fill="#FC6736"/>
<path d="M3.53553 48.3051C1.58291 46.3524 1.58291 43.1866 3.53553 41.234L33.234 11.5355C35.1866 9.58289 38.3525 9.58289 40.3051 11.5355L45.9619 17.1924L9.19239 53.9619L3.53553 48.3051Z" fill="#756666"/>
<circle cx="16.9972" cy="52.7632" r="1" transform="rotate(-45 16.9972 52.7632)" fill="#756666"/>
<circle cx="20.6505" cy="56.1768" r="1" transform="rotate(-45 20.6505 56.1768)" fill="#756666"/>
<circle cx="24.3048" cy="59.5903" r="1" transform="rotate(-45 24.3048 59.5903)" fill="#756666"/>
<circle cx="27.9582" cy="63.0042" r="1" transform="rotate(-45 27.9582 63.0042)" fill="#756666"/>
<circle cx="44.3068" cy="23.5364" r="1" transform="rotate(-45 44.3068 23.5364)" fill="#756666"/>
<circle cx="47.9601" cy="26.95" r="1" transform="rotate(-45 47.9601 26.95)" fill="#756666"/>
<circle cx="51.6134" cy="30.3635" r="1" transform="rotate(-45 51.6134 30.3635)" fill="#756666"/>
<circle cx="55.2668" cy="33.7773" r="1" transform="rotate(-45 55.2668 33.7773)" fill="#756666"/>
<rect x="14.6494" y="25.9087" width="3" height="1" transform="rotate(-45 14.6494 25.9087)" fill="#D9D9D9"/>
<rect x="13.9062" y="23.8241" width="1" height="2" transform="rotate(-45 13.9062 23.8241)" fill="#BDBF76"/>
<rect x="14.6963" y="28.6885" width="7" height="1" transform="rotate(-45 14.6963 28.6885)" fill="#A09F9F"/>
<rect x="14.6729" y="27.2988" width="5" height="1" transform="rotate(-45 14.6729 27.2988)" fill="#D9D9D9"/>
<rect x="129.75" y="18.3701" width="48" height="35" transform="rotate(45 129.75 18.3701)" fill="#FC6736"/>
<path d="M134.224 11.5355C136.177 9.58291 139.343 9.58291 141.295 11.5355L170.994 41.234C172.946 43.1866 172.946 46.3525 170.994 48.3051L165.337 53.9619L128.567 17.1924L134.224 11.5355Z" fill="#756666"/>
<circle cx="130.078" cy="23.9655" r="1" transform="rotate(45 130.078 23.9655)" fill="#756666"/>
<circle cx="126.492" cy="27.4517" r="1" transform="rotate(45 126.492 27.4517)" fill="#756666"/>
<circle cx="122.908" cy="30.938" r="1" transform="rotate(45 122.908 30.938)" fill="#756666"/>
<circle cx="119.324" cy="34.4242" r="1" transform="rotate(45 119.324 34.4242)" fill="#756666"/>
<circle cx="157.967" cy="52.6387" r="1" transform="rotate(45 157.967 52.6387)" fill="#756666"/>
<circle cx="154.383" cy="56.1249" r="1" transform="rotate(45 154.383 56.1249)" fill="#756666"/>
<circle cx="150.797" cy="59.6111" r="1" transform="rotate(45 150.797 59.6111)" fill="#756666"/>
<circle cx="147.215" cy="63.0974" r="1" transform="rotate(45 147.215 63.0974)" fill="#756666"/>
<rect x="156.945" y="22.9331" width="3" height="1" transform="rotate(45 156.945 22.9331)" fill="#D9D9D9"/>
<rect x="159.08" y="22.2408" width="1" height="2" transform="rotate(45 159.08 22.2408)" fill="#BDBF76"/>
<rect x="154.098" y="22.9133" width="7" height="1" transform="rotate(45 154.098 22.9133)" fill="#A09F9F"/>
<rect x="155.52" y="22.9231" width="5" height="1" transform="rotate(45 155.52 22.9231)" fill="#D9D9D9"/>
<rect x="65" width="6" height="37" fill="#756666"/>
<rect x="104" width="6" height="37" fill="#756666"/>
<g filter="url(#filter0_dd_133_792)">
<circle cx="87.5" cy="84.5" r="52.5" fill="#FC6736"/>
</g>
<g filter="url(#filter1_d_133_792)">
<circle cx="88" cy="85" r="40" fill="#CCCCCC"/>
<circle cx="88" cy="85" r="35" stroke="#8F7C7C" stroke-width="10"/>
</g>
<circle cx="91.5" cy="77.5" r="2.5" fill="#8F7C7C"/>
<circle cx="95.5" cy="84.5" r="2.5" fill="#8F7C7C"/>
<circle cx="79.5" cy="84.5" r="2.5" fill="#8F7C7C"/>
<circle cx="87.5" cy="84.5" r="2.5" fill="#8F7C7C"/>
<circle cx="91.5" cy="91.5" r="2.5" fill="#8F7C7C"/>
<circle cx="83.5" cy="91.5" r="2.5" fill="#8F7C7C"/>
<circle cx="83.5" cy="77.5" r="2.5" fill="#8F7C7C"/>
<defs>
<filter id="filter0_dd_133_792" x="29" y="28" width="117" height="115" filterUnits="userSpaceOnUse" color-interpolation-filters="sRGB">
<feFlood flood-opacity="0" result="BackgroundImageFix"/>
<feColorMatrix in="SourceAlpha" type="matrix" values="0 0 0 0 0 0 0 0 0 0 0 0 0 0 0 0 0 0 127 0" result="hardAlpha"/>
<feOffset dx="2" dy="2"/>
<feGaussianBlur stdDeviation="2"/>
<feComposite in2="hardAlpha" operator="out"/>
<feColorMatrix type="matrix" values="0 0 0 0 0 0 0 0 0 0 0 0 0 0 0 0 0 0 0.25 0"/>
<feBlend mode="normal" in2="BackgroundImageFix" result="effect1_dropShadow_133_792"/>
<feColorMatrix in="SourceAlpha" type="matrix" values="0 0 0 0 0 0 0 0 0 0 0 0 0 0 0 0 0 0 127 0" result="hardAlpha"/>
<feOffset dx="-2"/>
<feGaussianBlur stdDeviation="2"/>
<feComposite in2="hardAlpha" operator="out"/>
<feColorMatrix type="matrix" values="0 0 0 0 0 0 0 0 0 0 0 0 0 0 0 0 0 0 0.25 0"/>
<feBlend mode="normal" in2="effect1_dropShadow_133_792" result="effect2_dropShadow_133_792"/>
<feBlend mode="normal" in="SourceGraphic" in2="effect2_dropShadow_133_792" result="shape"/>
</filter>
<filter id="filter1_d_133_792" x="44" y="45" width="88" height="88" filterUnits="userSpaceOnUse" color-interpolation-filters="sRGB">
<feFlood flood-opacity="0" result="BackgroundImageFix"/>
<feColorMatrix in="SourceAlpha" type="matrix" values="0 0 0 0 0 0 0 0 0 0 0 0 0 0 0 0 0 0 127 0" result="hardAlpha"/>
<feOffset dy="4"/>
<feGaussianBlur stdDeviation="2"/>
<feComposite in2="hardAlpha" operator="out"/>
<feColorMatrix type="matrix" values="0 0 0 0 0 0 0 0 0 0 0 0 0 0 0 0 0 0 0.25 0"/>
<feBlend mode="normal" in2="BackgroundImageFix" result="effect1_dropShadow_133_792"/>
<feBlend mode="normal" in="SourceGraphic" in2="effect1_dropShadow_133_792" result="shape"/>
</filter>
</defs>
</svg>
