<svg width="590" height="538" viewBox="0 0 590 538" fill="none" xmlns="http://www.w3.org/2000/svg">
<g filter="url(#filter0_d_127_148)">
<path d="M120.408 201L469.592 329.76V531H120.408V201Z" fill="#FC6736"/>
</g>
<g filter="url(#filter1_i_127_148)">
<path d="M15.051 0H105.357L120.408 531H0L15.051 0Z" fill="#FC6736"/>
</g>
<mask id="path-3-inside-1_127_148" fill="white">
<path d="M198.673 511H389.32V521H198.673V511Z"/>
</mask>
<path d="M198.673 511H389.32V521H198.673V511Z" fill="#D9D9D9"/>
<path d="M198.673 511V508H195.673V511H198.673ZM389.32 511H392.32V508H389.32V511ZM198.673 514H389.32V508H198.673V514ZM386.32 511V521H392.32V511H386.32ZM201.673 521V511H195.673V521H201.673Z" fill="white" mask="url(#path-3-inside-1_127_148)"/>
<g filter="url(#filter2_d_127_148)">
<path d="M117.899 192.185L470.595 321.5V330.185L117.899 200.185V192.185Z" fill="#D9D9D9"/>
</g>
<mask id="path-6-inside-2_127_148" fill="white">
<path d="M198.673 521H389.32V531H198.673V521Z"/>
</mask>
<path d="M198.673 521H389.32V531H198.673V521Z" fill="#D9D9D9"/>
<path d="M198.673 521V518H195.673V521H198.673ZM389.32 521H392.32V518H389.32V521ZM198.673 524H389.32V518H198.673V524ZM386.32 521V531H392.32V521H386.32ZM201.673 531V521H195.673V531H201.673Z" fill="white" mask="url(#path-6-inside-2_127_148)"/>
<mask id="path-8-inside-3_127_148" fill="white">
<path d="M198.673 491H389.32V501H198.673V491Z"/>
</mask>
<path d="M198.673 491H389.32V501H198.673V491Z" fill="#D9D9D9"/>
<path d="M198.673 491V488H195.673V491H198.673ZM389.32 491H392.32V488H389.32V491ZM198.673 494H389.32V488H198.673V494ZM386.32 491V501H392.32V491H386.32ZM201.673 501V491H195.673V501H201.673Z" fill="white" mask="url(#path-8-inside-3_127_148)"/>
<mask id="path-10-inside-4_127_148" fill="white">
<path d="M198.673 501H389.32V511H198.673V501Z"/>
</mask>
<path d="M198.673 501H389.32V511H198.673V501Z" fill="#D9D9D9"/>
<path d="M198.673 501V498H195.673V501H198.673ZM389.32 501H392.32V498H389.32V501ZM198.673 504H389.32V498H198.673V504ZM386.32 501V511H392.32V501H386.32ZM201.673 511V501H195.673V511H201.673Z" fill="white" mask="url(#path-10-inside-4_127_148)"/>
<mask id="path-12-inside-5_127_148" fill="white">
<path d="M198.673 471H389.32V481H198.673V471Z"/>
</mask>
<path d="M198.673 471H389.32V481H198.673V471Z" fill="#D9D9D9"/>
<path d="M198.673 471V468H195.673V471H198.673ZM389.32 471H392.32V468H389.32V471ZM198.673 474H389.32V468H198.673V474ZM386.32 471V481H392.32V471H386.32ZM201.673 481V471H195.673V481H201.673Z" fill="white" mask="url(#path-12-inside-5_127_148)"/>
<mask id="path-14-inside-6_127_148" fill="white">
<path d="M198.673 481H389.32V491H198.673V481Z"/>
</mask>
<path d="M198.673 481H389.32V491H198.673V481Z" fill="#D9D9D9"/>
<path d="M198.673 481V478H195.673V481H198.673ZM389.32 481H392.32V478H389.32V481ZM198.673 484H389.32V478H198.673V484ZM386.32 481V491H392.32V481H386.32ZM201.673 491V481H195.673V491H201.673Z" fill="white" mask="url(#path-14-inside-6_127_148)"/>
<mask id="path-16-inside-7_127_148" fill="white">
<path d="M198.673 451H389.32V461H198.673V451Z"/>
</mask>
<path d="M198.673 451H389.32V461H198.673V451Z" fill="#D9D9D9"/>
<path d="M198.673 451V448H195.673V451H198.673ZM389.32 451H392.32V448H389.32V451ZM198.673 454H389.32V448H198.673V454ZM386.32 451V461H392.32V451H386.32ZM201.673 461V451H195.673V461H201.673Z" fill="white" mask="url(#path-16-inside-7_127_148)"/>
<mask id="path-18-inside-8_127_148" fill="white">
<path d="M198.673 461H389.32V471H198.673V461Z"/>
</mask>
<path d="M198.673 461H389.32V471H198.673V461Z" fill="#D9D9D9"/>
<path d="M198.673 461V458H195.673V461H198.673ZM389.32 461H392.32V458H389.32V461ZM198.673 464H389.32V458H198.673V464ZM386.32 461V471H392.32V461H386.32ZM201.673 471V461H195.673V471H201.673Z" fill="white" mask="url(#path-18-inside-8_127_148)"/>
<mask id="path-20-inside-9_127_148" fill="white">
<path d="M198.673 431H389.32V441H198.673V431Z"/>
</mask>
<path d="M198.673 431H389.32V441H198.673V431Z" fill="#D9D9D9"/>
<path d="M198.673 431V428H195.673V431H198.673ZM389.32 431H392.32V428H389.32V431ZM198.673 434H389.32V428H198.673V434ZM386.32 431V441H392.32V431H386.32ZM201.673 441V431H195.673V441H201.673Z" fill="white" mask="url(#path-20-inside-9_127_148)"/>
<mask id="path-22-inside-10_127_148" fill="white">
<path d="M198.673 441H389.32V451H198.673V441Z"/>
</mask>
<path d="M198.673 441H389.32V451H198.673V441Z" fill="#D9D9D9"/>
<path d="M198.673 441V438H195.673V441H198.673ZM389.32 441H392.32V438H389.32V441ZM198.673 444H389.32V438H198.673V444ZM386.32 441V451H392.32V441H386.32ZM201.673 451V441H195.673V451H201.673Z" fill="white" mask="url(#path-22-inside-10_127_148)"/>
<mask id="path-24-inside-11_127_148" fill="white">
<path d="M198.673 411H389.32V421H198.673V411Z"/>
</mask>
<path d="M198.673 411H389.32V421H198.673V411Z" fill="#D9D9D9"/>
<path d="M198.673 411V408H195.673V411H198.673ZM389.32 411H392.32V408H389.32V411ZM198.673 414H389.32V408H198.673V414ZM386.32 411V421H392.32V411H386.32ZM201.673 421V411H195.673V421H201.673Z" fill="white" mask="url(#path-24-inside-11_127_148)"/>
<mask id="path-26-inside-12_127_148" fill="white">
<path d="M198.673 421H389.32V431H198.673V421Z"/>
</mask>
<path d="M198.673 421H389.32V431H198.673V421Z" fill="#D9D9D9"/>
<path d="M198.673 421V418H195.673V421H198.673ZM389.32 421H392.32V418H389.32V421ZM198.673 424H389.32V418H198.673V424ZM386.32 421V431H392.32V421H386.32ZM201.673 431V421H195.673V431H201.673Z" fill="white" mask="url(#path-26-inside-12_127_148)"/>
<g filter="url(#filter3_d_127_148)">
<rect x="191.649" y="411" width="7.02381" height="120" fill="#FC6736"/>
</g>
<g filter="url(#filter4_d_127_148)">
<rect x="389.32" y="411" width="7.02381" height="120" fill="#FC6736"/>
</g>
<g filter="url(#filter5_d_127_148)">
<rect x="198.673" y="404" width="190.646" height="7" fill="#FC6736"/>
</g>
<rect x="191.649" y="405" width="204.694" height="6" fill="#DF9178"/>
<rect x="183.119" y="330.5" width="54.1871" height="54" fill="#6C6262" stroke="#6C6262"/>
<rect x="186.129" y="333.5" width="48.1667" height="48" fill="#78C0DF" fill-opacity="0.7" stroke="white"/>
<line x1="210.708" y1="334" x2="210.708" y2="381" stroke="white" stroke-width="4"/>
<line x1="186.633" y1="357" x2="233.793" y2="357" stroke="white" stroke-width="4"/>
<rect x="239.31" y="330.5" width="54.1871" height="54" fill="#6C6262" stroke="#6C6262"/>
<rect x="242.32" y="333.5" width="48.1667" height="48" fill="#78C0DF" fill-opacity="0.7" stroke="white"/>
<line x1="266.898" y1="334" x2="266.898" y2="381" stroke="white" stroke-width="4"/>
<line x1="242.823" y1="357" x2="289.983" y2="357" stroke="white" stroke-width="4"/>
<rect x="295.5" y="330.5" width="54.1871" height="54" fill="#6C6262" stroke="#6C6262"/>
<rect x="298.51" y="333.5" width="48.1667" height="48" fill="#78C0DF" fill-opacity="0.7" stroke="white"/>
<line x1="323.088" y1="334" x2="323.088" y2="381" stroke="white" stroke-width="4"/>
<line x1="299.014" y1="357" x2="346.174" y2="357" stroke="white" stroke-width="4"/>
<rect x="351.69" y="330.5" width="54.1871" height="54" fill="#6C6262" stroke="#6C6262"/>
<rect x="354.701" y="333.5" width="48.1667" height="48" fill="#78C0DF" fill-opacity="0.7" stroke="white"/>
<line x1="379.279" y1="334" x2="379.279" y2="381" stroke="white" stroke-width="4"/>
<line x1="355.204" y1="357" x2="402.364" y2="357" stroke="white" stroke-width="4"/>
<defs>
<filter id="filter0_d_127_148" x="120.408" y="197" width="358.184" height="338" filterUnits="userSpaceOnUse" color-interpolation-filters="sRGB">
<feFlood flood-opacity="0" result="BackgroundImageFix"/>
<feColorMatrix in="SourceAlpha" type="matrix" values="0 0 0 0 0 0 0 0 0 0 0 0 0 0 0 0 0 0 127 0" result="hardAlpha"/>
<feOffset dx="5"/>
<feGaussianBlur stdDeviation="2"/>
<feComposite in2="hardAlpha" operator="out"/>
<feColorMatrix type="matrix" values="0 0 0 0 0 0 0 0 0 0 0 0 0 0 0 0 0 0 0.25 0"/>
<feBlend mode="normal" in2="BackgroundImageFix" result="effect1_dropShadow_127_148"/>
<feBlend mode="normal" in="SourceGraphic" in2="effect1_dropShadow_127_148" result="shape"/>
</filter>
<filter id="filter1_i_127_148" x="-4" y="0" width="124.408" height="531" filterUnits="userSpaceOnUse" color-interpolation-filters="sRGB">
<feFlood flood-opacity="0" result="BackgroundImageFix"/>
<feBlend mode="normal" in="SourceGraphic" in2="BackgroundImageFix" result="shape"/>
<feColorMatrix in="SourceAlpha" type="matrix" values="0 0 0 0 0 0 0 0 0 0 0 0 0 0 0 0 0 0 127 0" result="hardAlpha"/>
<feOffset dx="-5"/>
<feGaussianBlur stdDeviation="2"/>
<feComposite in2="hardAlpha" operator="arithmetic" k2="-1" k3="1"/>
<feColorMatrix type="matrix" values="0 0 0 0 0 0 0 0 0 0 0 0 0 0 0 0 0 0 0.25 0"/>
<feBlend mode="normal" in2="shape" result="effect1_innerShadow_127_148"/>
</filter>
<filter id="filter2_d_127_148" x="117.899" y="192.185" width="360.696" height="146" filterUnits="userSpaceOnUse" color-interpolation-filters="sRGB">
<feFlood flood-opacity="0" result="BackgroundImageFix"/>
<feColorMatrix in="SourceAlpha" type="matrix" values="0 0 0 0 0 0 0 0 0 0 0 0 0 0 0 0 0 0 127 0" result="hardAlpha"/>
<feOffset dx="4" dy="4"/>
<feGaussianBlur stdDeviation="2"/>
<feComposite in2="hardAlpha" operator="out"/>
<feColorMatrix type="matrix" values="0 0 0 0 0 0 0 0 0 0 0 0 0 0 0 0 0 0 0.25 0"/>
<feBlend mode="normal" in2="BackgroundImageFix" result="effect1_dropShadow_127_148"/>
<feBlend mode="normal" in="SourceGraphic" in2="effect1_dropShadow_127_148" result="shape"/>
</filter>
<filter id="filter3_d_127_148" x="190.649" y="410" width="15.0239" height="128" filterUnits="userSpaceOnUse" color-interpolation-filters="sRGB">
<feFlood flood-opacity="0" result="BackgroundImageFix"/>
<feColorMatrix in="SourceAlpha" type="matrix" values="0 0 0 0 0 0 0 0 0 0 0 0 0 0 0 0 0 0 127 0" result="hardAlpha"/>
<feOffset dx="3" dy="3"/>
<feGaussianBlur stdDeviation="2"/>
<feComposite in2="hardAlpha" operator="out"/>
<feColorMatrix type="matrix" values="0 0 0 0 0 0 0 0 0 0 0 0 0 0 0 0 0 0 0.25 0"/>
<feBlend mode="normal" in2="BackgroundImageFix" result="effect1_dropShadow_127_148"/>
<feBlend mode="normal" in="SourceGraphic" in2="effect1_dropShadow_127_148" result="shape"/>
</filter>
<filter id="filter4_d_127_148" x="382.32" y="410" width="15.0239" height="128" filterUnits="userSpaceOnUse" color-interpolation-filters="sRGB">
<feFlood flood-opacity="0" result="BackgroundImageFix"/>
<feColorMatrix in="SourceAlpha" type="matrix" values="0 0 0 0 0 0 0 0 0 0 0 0 0 0 0 0 0 0 127 0" result="hardAlpha"/>
<feOffset dx="-3" dy="3"/>
<feGaussianBlur stdDeviation="2"/>
<feComposite in2="hardAlpha" operator="out"/>
<feColorMatrix type="matrix" values="0 0 0 0 0 0 0 0 0 0 0 0 0 0 0 0 0 0 0.25 0"/>
<feBlend mode="normal" in2="BackgroundImageFix" result="effect1_dropShadow_127_148"/>
<feBlend mode="normal" in="SourceGraphic" in2="effect1_dropShadow_127_148" result="shape"/>
</filter>
<filter id="filter5_d_127_148" x="194.673" y="403" width="198.646" height="15" filterUnits="userSpaceOnUse" color-interpolation-filters="sRGB">
<feFlood flood-opacity="0" result="BackgroundImageFix"/>
<feColorMatrix in="SourceAlpha" type="matrix" values="0 0 0 0 0 0 0 0 0 0 0 0 0 0 0 0 0 0 127 0" result="hardAlpha"/>
<feOffset dy="3"/>
<feGaussianBlur stdDeviation="2"/>
<feComposite in2="hardAlpha" operator="out"/>
<feColorMatrix type="matrix" values="0 0 0 0 0 0 0 0 0 0 0 0 0 0 0 0 0 0 0.25 0"/>
<feBlend mode="normal" in2="BackgroundImageFix" result="effect1_dropShadow_127_148"/>
<feBlend mode="normal" in="SourceGraphic" in2="effect1_dropShadow_127_148" result="shape"/>
</filter>
</defs>
</svg>
