<svg width="950" height="541" viewBox="0 0 950 541" fill="none" xmlns="http://www.w3.org/2000/svg">
<g filter="url(#filter0_d_127_268)">
<path d="M472 50L838 167.5V218H106V167.5L472 50Z" fill="#FC6736"/>
</g>
<g filter="url(#filter1_d_127_268)">
<mask id="path-2-inside-1_127_268" fill="white">
<path d="M156 512H788V533H156V512Z"/>
</mask>
<path d="M156 512H788V533H156V512Z" fill="#D9D9D9"/>
<path d="M156 512V509H153V512H156ZM788 512H791V509H788V512ZM156 515H788V509H156V515ZM785 512V533H791V512H785ZM159 533V512H153V533H159Z" fill="white" mask="url(#path-2-inside-1_127_268)"/>
</g>
<mask id="path-4-inside-2_127_268" fill="white">
<path d="M156 470H788V491H156V470Z"/>
</mask>
<path d="M156 470H788V491H156V470Z" fill="#D9D9D9"/>
<path d="M156 470V467H153V470H156ZM788 470H791V467H788V470ZM156 473H788V467H156V473ZM785 470V491H791V470H785ZM159 491V470H153V491H159Z" fill="white" mask="url(#path-4-inside-2_127_268)"/>
<mask id="path-6-inside-3_127_268" fill="white">
<path d="M156 491H788V512H156V491Z"/>
</mask>
<path d="M156 491H788V512H156V491Z" fill="#D9D9D9"/>
<path d="M156 491V488H153V491H156ZM788 491H791V488H788V491ZM156 494H788V488H156V494ZM785 491V512H791V491H785ZM159 512V491H153V512H159Z" fill="white" mask="url(#path-6-inside-3_127_268)"/>
<mask id="path-8-inside-4_127_268" fill="white">
<path d="M156 428H788V449H156V428Z"/>
</mask>
<path d="M156 428H788V449H156V428Z" fill="#D9D9D9"/>
<path d="M156 428V425H153V428H156ZM788 428H791V425H788V428ZM156 431H788V425H156V431ZM785 428V449H791V428H785ZM159 449V428H153V449H159Z" fill="white" mask="url(#path-8-inside-4_127_268)"/>
<mask id="path-10-inside-5_127_268" fill="white">
<path d="M156 449H788V470H156V449Z"/>
</mask>
<path d="M156 449H788V470H156V449Z" fill="#D9D9D9"/>
<path d="M156 449V446H153V449H156ZM788 449H791V446H788V449ZM156 452H788V446H156V452ZM785 449V470H791V449H785ZM159 470V449H153V470H159Z" fill="white" mask="url(#path-10-inside-5_127_268)"/>
<mask id="path-12-inside-6_127_268" fill="white">
<path d="M156 386H788V407H156V386Z"/>
</mask>
<path d="M156 386H788V407H156V386Z" fill="#D9D9D9"/>
<path d="M156 386V383H153V386H156ZM788 386H791V383H788V386ZM156 389H788V383H156V389ZM785 386V407H791V386H785ZM159 407V386H153V407H159Z" fill="white" mask="url(#path-12-inside-6_127_268)"/>
<mask id="path-14-inside-7_127_268" fill="white">
<path d="M156 407H788V428H156V407Z"/>
</mask>
<path d="M156 407H788V428H156V407Z" fill="#D9D9D9"/>
<path d="M156 407V404H153V407H156ZM788 407H791V404H788V407ZM156 410H788V404H156V410ZM785 407V428H791V407H785ZM159 428V407H153V428H159Z" fill="white" mask="url(#path-14-inside-7_127_268)"/>
<mask id="path-16-inside-8_127_268" fill="white">
<path d="M156 344H788V365H156V344Z"/>
</mask>
<path d="M156 344H788V365H156V344Z" fill="#D9D9D9"/>
<path d="M156 344V341H153V344H156ZM788 344H791V341H788V344ZM156 347H788V341H156V347ZM785 344V365H791V344H785ZM159 365V344H153V365H159Z" fill="white" mask="url(#path-16-inside-8_127_268)"/>
<mask id="path-18-inside-9_127_268" fill="white">
<path d="M156 365H788V386H156V365Z"/>
</mask>
<path d="M156 365H788V386H156V365Z" fill="#D9D9D9"/>
<path d="M156 365V362H153V365H156ZM788 365H791V362H788V365ZM156 368H788V362H156V368ZM785 365V386H791V365H785ZM159 386V365H153V386H159Z" fill="white" mask="url(#path-18-inside-9_127_268)"/>
<mask id="path-20-inside-10_127_268" fill="white">
<path d="M156 302H788V323H156V302Z"/>
</mask>
<path d="M156 302H788V323H156V302Z" fill="#D9D9D9"/>
<path d="M156 302V299H153V302H156ZM788 302H791V299H788V302ZM156 305H788V299H156V305ZM785 302V323H791V302H785ZM159 323V302H153V323H159Z" fill="white" mask="url(#path-20-inside-10_127_268)"/>
<mask id="path-22-inside-11_127_268" fill="white">
<path d="M156 323H788V344H156V323Z"/>
</mask>
<path d="M156 323H788V344H156V323Z" fill="#D9D9D9"/>
<path d="M156 323V320H153V323H156ZM788 323H791V320H788V323ZM156 326H788V320H156V326ZM785 323V344H791V323H785ZM159 344V323H153V344H159Z" fill="white" mask="url(#path-22-inside-11_127_268)"/>
<mask id="path-24-inside-12_127_268" fill="white">
<path d="M156 260H788V281H156V260Z"/>
</mask>
<path d="M156 260H788V281H156V260Z" fill="#D9D9D9"/>
<path d="M156 260V257H153V260H156ZM788 260H791V257H788V260ZM156 263H788V257H156V263ZM785 260V281H791V260H785ZM159 281V260H153V281H159Z" fill="white" mask="url(#path-24-inside-12_127_268)"/>
<mask id="path-26-inside-13_127_268" fill="white">
<path d="M156 281H788V302H156V281Z"/>
</mask>
<path d="M156 281H788V302H156V281Z" fill="#D9D9D9"/>
<path d="M156 281V278H153V281H156ZM788 281H791V278H788V281ZM156 284H788V278H156V284ZM785 281V302H791V281H785ZM159 302V281H153V302H159Z" fill="white" mask="url(#path-26-inside-13_127_268)"/>
<mask id="path-28-inside-14_127_268" fill="white">
<path d="M156 239H788V260H156V239Z"/>
</mask>
<path d="M156 239H788V260H156V239Z" fill="#D9D9D9"/>
<path d="M156 239V236H153V239H156ZM788 239H791V236H788V239ZM156 242H788V236H156V242ZM785 239V260H791V239H785ZM159 260V239H153V260H159Z" fill="white" mask="url(#path-28-inside-14_127_268)"/>
<g filter="url(#filter2_d_127_268)">
<rect x="106" y="239" width="50" height="294" fill="#FC6736"/>
</g>
<g filter="url(#filter3_d_127_268)">
<rect x="788" y="239" width="50" height="294" fill="#FC6736"/>
</g>
<g filter="url(#filter4_d_127_268)">
<rect x="156" y="215" width="632" height="3" fill="#FC6736"/>
</g>
<rect x="106" y="218" width="732" height="21" fill="#FC6736"/>
<g filter="url(#filter5_d_127_268)">
<path d="M838 167.324L888 183.367V533H838V167.324Z" fill="#FC6736"/>
</g>
<g filter="url(#filter6_d_127_268)">
<path d="M56 183.363L106 167.332V533H56V183.363Z" fill="#FC6736"/>
</g>
<g filter="url(#filter7_d_127_268)">
<path d="M472 0V50L1 201C1 181.474 1 170.526 1 151L472 0Z" fill="#FC6736"/>
</g>
<g filter="url(#filter8_d_127_268)">
<path d="M943 151V201L472 50C472 30.4738 472 19.5262 472 0L943 151Z" fill="#FC6736"/>
</g>
<defs>
<filter id="filter0_d_127_268" x="102" y="50" width="740" height="186" filterUnits="userSpaceOnUse" color-interpolation-filters="sRGB">
<feFlood flood-opacity="0" result="BackgroundImageFix"/>
<feColorMatrix in="SourceAlpha" type="matrix" values="0 0 0 0 0 0 0 0 0 0 0 0 0 0 0 0 0 0 127 0" result="hardAlpha"/>
<feOffset dy="14"/>
<feGaussianBlur stdDeviation="2"/>
<feComposite in2="hardAlpha" operator="out"/>
<feColorMatrix type="matrix" values="0 0 0 0 0 0 0 0 0 0 0 0 0 0 0 0 0 0 0.25 0"/>
<feBlend mode="normal" in2="BackgroundImageFix" result="effect1_dropShadow_127_268"/>
<feBlend mode="normal" in="SourceGraphic" in2="effect1_dropShadow_127_268" result="shape"/>
</filter>
<filter id="filter1_d_127_268" x="152" y="512" width="640" height="29" filterUnits="userSpaceOnUse" color-interpolation-filters="sRGB">
<feFlood flood-opacity="0" result="BackgroundImageFix"/>
<feColorMatrix in="SourceAlpha" type="matrix" values="0 0 0 0 0 0 0 0 0 0 0 0 0 0 0 0 0 0 127 0" result="hardAlpha"/>
<feOffset dy="4"/>
<feGaussianBlur stdDeviation="2"/>
<feComposite in2="hardAlpha" operator="out"/>
<feColorMatrix type="matrix" values="0 0 0 0 0 0 0 0 0 0 0 0 0 0 0 0 0 0 0.25 0"/>
<feBlend mode="normal" in2="BackgroundImageFix" result="effect1_dropShadow_127_268"/>
<feBlend mode="normal" in="SourceGraphic" in2="effect1_dropShadow_127_268" result="shape"/>
</filter>
<filter id="filter2_d_127_268" x="104" y="239" width="58" height="302" filterUnits="userSpaceOnUse" color-interpolation-filters="sRGB">
<feFlood flood-opacity="0" result="BackgroundImageFix"/>
<feColorMatrix in="SourceAlpha" type="matrix" values="0 0 0 0 0 0 0 0 0 0 0 0 0 0 0 0 0 0 127 0" result="hardAlpha"/>
<feOffset dx="2" dy="4"/>
<feGaussianBlur stdDeviation="2"/>
<feComposite in2="hardAlpha" operator="out"/>
<feColorMatrix type="matrix" values="0 0 0 0 0 0 0 0 0 0 0 0 0 0 0 0 0 0 0.25 0"/>
<feBlend mode="normal" in2="BackgroundImageFix" result="effect1_dropShadow_127_268"/>
<feBlend mode="normal" in="SourceGraphic" in2="effect1_dropShadow_127_268" result="shape"/>
</filter>
<filter id="filter3_d_127_268" x="783.5" y="239" width="58" height="302" filterUnits="userSpaceOnUse" color-interpolation-filters="sRGB">
<feFlood flood-opacity="0" result="BackgroundImageFix"/>
<feColorMatrix in="SourceAlpha" type="matrix" values="0 0 0 0 0 0 0 0 0 0 0 0 0 0 0 0 0 0 127 0" result="hardAlpha"/>
<feOffset dx="-0.5" dy="4"/>
<feGaussianBlur stdDeviation="2"/>
<feComposite in2="hardAlpha" operator="out"/>
<feColorMatrix type="matrix" values="0 0 0 0 0 0 0 0 0 0 0 0 0 0 0 0 0 0 0.25 0"/>
<feBlend mode="normal" in2="BackgroundImageFix" result="effect1_dropShadow_127_268"/>
<feBlend mode="normal" in="SourceGraphic" in2="effect1_dropShadow_127_268" result="shape"/>
</filter>
<filter id="filter4_d_127_268" x="152" y="214" width="640" height="11" filterUnits="userSpaceOnUse" color-interpolation-filters="sRGB">
<feFlood flood-opacity="0" result="BackgroundImageFix"/>
<feColorMatrix in="SourceAlpha" type="matrix" values="0 0 0 0 0 0 0 0 0 0 0 0 0 0 0 0 0 0 127 0" result="hardAlpha"/>
<feOffset dy="3"/>
<feGaussianBlur stdDeviation="2"/>
<feComposite in2="hardAlpha" operator="out"/>
<feColorMatrix type="matrix" values="0 0 0 0 0 0 0 0 0 0 0 0 0 0 0 0 0 0 0.25 0"/>
<feBlend mode="normal" in2="BackgroundImageFix" result="effect1_dropShadow_127_268"/>
<feBlend mode="normal" in="SourceGraphic" in2="effect1_dropShadow_127_268" result="shape"/>
</filter>
<filter id="filter5_d_127_268" x="833.5" y="167.324" width="58" height="373.676" filterUnits="userSpaceOnUse" color-interpolation-filters="sRGB">
<feFlood flood-opacity="0" result="BackgroundImageFix"/>
<feColorMatrix in="SourceAlpha" type="matrix" values="0 0 0 0 0 0 0 0 0 0 0 0 0 0 0 0 0 0 127 0" result="hardAlpha"/>
<feOffset dx="-0.5" dy="4"/>
<feGaussianBlur stdDeviation="2"/>
<feComposite in2="hardAlpha" operator="out"/>
<feColorMatrix type="matrix" values="0 0 0 0 0 0 0 0 0 0 0 0 0 0 0 0 0 0 0.25 0"/>
<feBlend mode="normal" in2="BackgroundImageFix" result="effect1_dropShadow_127_268"/>
<feBlend mode="normal" in="SourceGraphic" in2="effect1_dropShadow_127_268" result="shape"/>
</filter>
<filter id="filter6_d_127_268" x="54" y="163.332" width="58" height="373.668" filterUnits="userSpaceOnUse" color-interpolation-filters="sRGB">
<feFlood flood-opacity="0" result="BackgroundImageFix"/>
<feColorMatrix in="SourceAlpha" type="matrix" values="0 0 0 0 0 0 0 0 0 0 0 0 0 0 0 0 0 0 127 0" result="hardAlpha"/>
<feOffset dx="2"/>
<feGaussianBlur stdDeviation="2"/>
<feComposite in2="hardAlpha" operator="out"/>
<feColorMatrix type="matrix" values="0 0 0 0 0 0 0 0 0 0 0 0 0 0 0 0 0 0 0.25 0"/>
<feBlend mode="normal" in2="BackgroundImageFix" result="effect1_dropShadow_127_268"/>
<feBlend mode="normal" in="SourceGraphic" in2="effect1_dropShadow_127_268" result="shape"/>
</filter>
<filter id="filter7_d_127_268" x="0" y="0" width="479" height="209" filterUnits="userSpaceOnUse" color-interpolation-filters="sRGB">
<feFlood flood-opacity="0" result="BackgroundImageFix"/>
<feColorMatrix in="SourceAlpha" type="matrix" values="0 0 0 0 0 0 0 0 0 0 0 0 0 0 0 0 0 0 127 0" result="hardAlpha"/>
<feOffset dx="3" dy="4"/>
<feGaussianBlur stdDeviation="2"/>
<feComposite in2="hardAlpha" operator="out"/>
<feColorMatrix type="matrix" values="0 0 0 0 0 0 0 0 0 0 0 0 0 0 0 0 0 0 0.25 0"/>
<feBlend mode="normal" in2="BackgroundImageFix" result="effect1_dropShadow_127_268"/>
<feBlend mode="normal" in="SourceGraphic" in2="effect1_dropShadow_127_268" result="shape"/>
</filter>
<filter id="filter8_d_127_268" x="471" y="0" width="479" height="209" filterUnits="userSpaceOnUse" color-interpolation-filters="sRGB">
<feFlood flood-opacity="0" result="BackgroundImageFix"/>
<feColorMatrix in="SourceAlpha" type="matrix" values="0 0 0 0 0 0 0 0 0 0 0 0 0 0 0 0 0 0 127 0" result="hardAlpha"/>
<feOffset dx="3" dy="4"/>
<feGaussianBlur stdDeviation="2"/>
<feComposite in2="hardAlpha" operator="out"/>
<feColorMatrix type="matrix" values="0 0 0 0 0 0 0 0 0 0 0 0 0 0 0 0 0 0 0.25 0"/>
<feBlend mode="normal" in2="BackgroundImageFix" result="effect1_dropShadow_127_268"/>
<feBlend mode="normal" in="SourceGraphic" in2="effect1_dropShadow_127_268" result="shape"/>
</filter>
</defs>
</svg>
