<svg width="950" height="541" viewBox="0 0 950 541" fill="none" xmlns="http://www.w3.org/2000/svg">
<g filter="url(#filter0_d_8_356)">
<path d="M472 50L838 167.5V218H106V167.5L472 50Z" fill="#FC6736"/>
</g>
<mask id="path-2-inside-1_8_356" fill="white">
<path d="M156 512H788V533H156V512Z"/>
</mask>
<path d="M156 512H788V533H156V512Z" fill="#D9D9D9"/>
<path d="M156 512V509H153V512H156ZM788 512H791V509H788V512ZM156 515H788V509H156V515ZM785 512V533H791V512H785ZM159 533V512H153V533H159Z" fill="white" mask="url(#path-2-inside-1_8_356)"/>
<mask id="path-4-inside-2_8_356" fill="white">
<path d="M156 470H788V491H156V470Z"/>
</mask>
<path d="M156 470H788V491H156V470Z" fill="#D9D9D9"/>
<path d="M156 470V467H153V470H156ZM788 470H791V467H788V470ZM156 473H788V467H156V473ZM785 470V491H791V470H785ZM159 491V470H153V491H159Z" fill="white" mask="url(#path-4-inside-2_8_356)"/>
<mask id="path-6-inside-3_8_356" fill="white">
<path d="M156 491H788V512H156V491Z"/>
</mask>
<path d="M156 491H788V512H156V491Z" fill="#D9D9D9"/>
<path d="M156 491V488H153V491H156ZM788 491H791V488H788V491ZM156 494H788V488H156V494ZM785 491V512H791V491H785ZM159 512V491H153V512H159Z" fill="white" mask="url(#path-6-inside-3_8_356)"/>
<mask id="path-8-inside-4_8_356" fill="white">
<path d="M156 428H788V449H156V428Z"/>
</mask>
<path d="M156 428H788V449H156V428Z" fill="#D9D9D9"/>
<path d="M156 428V425H153V428H156ZM788 428H791V425H788V428ZM156 431H788V425H156V431ZM785 428V449H791V428H785ZM159 449V428H153V449H159Z" fill="white" mask="url(#path-8-inside-4_8_356)"/>
<mask id="path-10-inside-5_8_356" fill="white">
<path d="M156 449H788V470H156V449Z"/>
</mask>
<path d="M156 449H788V470H156V449Z" fill="#D9D9D9"/>
<path d="M156 449V446H153V449H156ZM788 449H791V446H788V449ZM156 452H788V446H156V452ZM785 449V470H791V449H785ZM159 470V449H153V470H159Z" fill="white" mask="url(#path-10-inside-5_8_356)"/>
<mask id="path-12-inside-6_8_356" fill="white">
<path d="M156 386H788V407H156V386Z"/>
</mask>
<path d="M156 386H788V407H156V386Z" fill="#D9D9D9"/>
<path d="M156 386V383H153V386H156ZM788 386H791V383H788V386ZM156 389H788V383H156V389ZM785 386V407H791V386H785ZM159 407V386H153V407H159Z" fill="white" mask="url(#path-12-inside-6_8_356)"/>
<mask id="path-14-inside-7_8_356" fill="white">
<path d="M156 407H788V428H156V407Z"/>
</mask>
<path d="M156 407H788V428H156V407Z" fill="#D9D9D9"/>
<path d="M156 407V404H153V407H156ZM788 407H791V404H788V407ZM156 410H788V404H156V410ZM785 407V428H791V407H785ZM159 428V407H153V428H159Z" fill="white" mask="url(#path-14-inside-7_8_356)"/>
<mask id="path-16-inside-8_8_356" fill="white">
<path d="M156 344H788V365H156V344Z"/>
</mask>
<path d="M156 344H788V365H156V344Z" fill="#D9D9D9"/>
<path d="M156 344V341H153V344H156ZM788 344H791V341H788V344ZM156 347H788V341H156V347ZM785 344V365H791V344H785ZM159 365V344H153V365H159Z" fill="white" mask="url(#path-16-inside-8_8_356)"/>
<mask id="path-18-inside-9_8_356" fill="white">
<path d="M156 365H788V386H156V365Z"/>
</mask>
<path d="M156 365H788V386H156V365Z" fill="#D9D9D9"/>
<path d="M156 365V362H153V365H156ZM788 365H791V362H788V365ZM156 368H788V362H156V368ZM785 365V386H791V365H785ZM159 386V365H153V386H159Z" fill="white" mask="url(#path-18-inside-9_8_356)"/>
<mask id="path-20-inside-10_8_356" fill="white">
<path d="M156 302H788V323H156V302Z"/>
</mask>
<path d="M156 302H788V323H156V302Z" fill="#D9D9D9"/>
<path d="M156 302V299H153V302H156ZM788 302H791V299H788V302ZM156 305H788V299H156V305ZM785 302V323H791V302H785ZM159 323V302H153V323H159Z" fill="white" mask="url(#path-20-inside-10_8_356)"/>
<mask id="path-22-inside-11_8_356" fill="white">
<path d="M156 323H788V344H156V323Z"/>
</mask>
<path d="M156 323H788V344H156V323Z" fill="#D9D9D9"/>
<path d="M156 323V320H153V323H156ZM788 323H791V320H788V323ZM156 326H788V320H156V326ZM785 323V344H791V323H785ZM159 344V323H153V344H159Z" fill="white" mask="url(#path-22-inside-11_8_356)"/>
<mask id="path-24-inside-12_8_356" fill="white">
<path d="M156 260H788V281H156V260Z"/>
</mask>
<path d="M156 260H788V281H156V260Z" fill="#D9D9D9"/>
<path d="M156 260V257H153V260H156ZM788 260H791V257H788V260ZM156 263H788V257H156V263ZM785 260V281H791V260H785ZM159 281V260H153V281H159Z" fill="white" mask="url(#path-24-inside-12_8_356)"/>
<mask id="path-26-inside-13_8_356" fill="white">
<path d="M156 281H788V302H156V281Z"/>
</mask>
<path d="M156 281H788V302H156V281Z" fill="#D9D9D9"/>
<path d="M156 281V278H153V281H156ZM788 281H791V278H788V281ZM156 284H788V278H156V284ZM785 281V302H791V281H785ZM159 302V281H153V302H159Z" fill="white" mask="url(#path-26-inside-13_8_356)"/>
<g filter="url(#filter1_d_8_356)">
<path d="M327.157 127.388C326.964 121.869 331.282 117.238 336.802 117.046L604.638 107.692C610.158 107.5 614.788 111.818 614.981 117.337L617.393 186.401C617.586 191.92 613.268 196.551 607.748 196.744L339.911 206.097C334.392 206.29 329.761 201.971 329.568 196.452L327.157 127.388Z" fill="#0C2D57"/>
<path d="M329.655 127.301C329.511 123.162 332.749 119.689 336.889 119.544L604.726 110.191C608.865 110.046 612.338 113.285 612.483 117.425L614.894 186.488C615.039 190.628 611.8 194.101 607.661 194.245L339.824 203.598C335.684 203.743 332.211 200.504 332.067 196.365L329.655 127.301Z" stroke="white" stroke-width="5"/>
</g>
<path d="M398.879 127.409L415.307 126.835L415.486 131.941L404.865 132.312L405.048 137.554L415.571 137.186L415.744 142.136L405.221 142.504L405.406 147.824L416.027 147.453L416.206 152.559L399.777 153.133L398.879 127.409ZM431.053 135.553C432.17 135.514 433.269 135.703 434.351 136.121C435.432 136.538 436.334 137.229 437.057 138.192C437.78 139.143 438.169 140.417 438.225 142.015L438.566 151.778L432.622 151.986L432.315 143.197C432.275 142.053 431.972 141.205 431.407 140.653C430.84 140.087 430.116 139.82 429.232 139.851C428.648 139.871 428.101 140.046 427.592 140.376C427.096 140.693 426.695 141.136 426.39 141.706C426.097 142.263 425.963 142.898 425.988 143.613L426.288 152.207L420.364 152.414L419.805 136.414L425.729 136.207L425.812 138.565C425.953 138.131 426.263 137.691 426.741 137.245C427.233 136.786 427.85 136.4 428.594 136.088C429.35 135.762 430.169 135.584 431.053 135.553ZM440.085 135.706L442.814 135.611L442.584 129.043L448.45 128.838L448.68 135.406L452.266 135.281L452.436 140.153L448.85 140.278L449.006 144.741C449.029 145.403 449.145 145.939 449.355 146.348C449.563 146.744 449.928 146.933 450.447 146.915C450.798 146.902 451.094 146.814 451.336 146.65C451.577 146.485 451.723 146.376 451.773 146.322L453.947 150.461C453.859 150.542 453.578 150.695 453.104 150.919C452.644 151.144 452.053 151.353 451.331 151.547C450.61 151.741 449.8 151.854 448.904 151.886C447.306 151.941 445.972 151.539 444.901 150.679C443.83 149.806 443.261 148.427 443.196 146.544L442.984 140.483L440.256 140.578L440.085 135.706ZM461.585 150.974L455.661 151.181L455.102 135.182L461.027 134.975L461.113 137.45L461.016 137.453C461.109 137.151 461.349 136.765 461.736 136.296C462.123 135.814 462.673 135.379 463.388 134.99C464.103 134.588 464.986 134.368 466.038 134.331C466.779 134.306 467.465 134.399 468.097 134.611C468.728 134.81 469.19 135.008 469.483 135.206L467.352 140.1C467.162 139.886 466.83 139.67 466.354 139.452C465.89 139.221 465.314 139.118 464.626 139.142C463.833 139.169 463.184 139.394 462.679 139.814C462.186 140.235 461.826 140.735 461.599 141.316C461.385 141.895 461.287 142.439 461.305 142.945L461.585 150.974ZM475.683 143.731C475.742 144.301 475.942 144.802 476.282 145.232C476.622 145.662 477.083 145.998 477.663 146.237C478.257 146.464 478.949 146.563 479.742 146.536C480.496 146.509 481.168 146.408 481.761 146.231C482.366 146.054 482.885 145.84 483.319 145.591C483.765 145.341 484.108 145.089 484.346 144.833L486.773 148.417C486.461 148.779 486.012 149.139 485.426 149.498C484.853 149.843 484.089 150.137 483.135 150.378C482.181 150.619 480.969 150.766 479.501 150.817C477.734 150.879 476.151 150.602 474.75 149.988C473.35 149.373 472.231 148.437 471.394 147.178C470.556 145.92 470.105 144.362 470.04 142.504C469.986 140.945 470.275 139.53 470.907 138.259C471.551 136.975 472.511 135.946 473.784 135.173C475.058 134.387 476.61 133.962 478.442 133.898C480.183 133.837 481.701 134.103 482.997 134.695C484.305 135.287 485.326 136.201 486.058 137.437C486.803 138.66 487.209 140.207 487.274 142.077C487.278 142.181 487.278 142.39 487.276 142.702C487.287 143.014 487.281 143.222 487.259 143.327L475.683 143.731ZM481.636 140.421C481.608 140.005 481.484 139.6 481.262 139.205C481.039 138.796 480.716 138.469 480.291 138.224C479.865 137.966 479.328 137.848 478.678 137.87C478.029 137.893 477.481 138.042 477.036 138.318C476.602 138.58 476.276 138.917 476.056 139.328C475.836 139.739 475.721 140.172 475.711 140.628L481.636 140.421ZM496.725 157.864L490.859 158.069L490.017 133.962L495.941 133.755L496.023 136.094C496.192 135.724 496.522 135.316 497.014 134.869C497.518 134.409 498.161 134.01 498.943 133.67C499.737 133.317 500.641 133.123 501.654 133.088C503.213 133.033 504.558 133.37 505.69 134.098C506.834 134.825 507.727 135.822 508.37 137.087C509.012 138.34 509.36 139.745 509.414 141.304C509.469 142.863 509.2 144.297 508.608 145.606C508.016 146.901 507.155 147.952 506.026 148.759C504.909 149.553 503.571 149.977 502.012 150.031C500.895 150.07 499.933 149.908 499.127 149.546C498.333 149.171 497.701 148.751 497.229 148.286C496.77 147.808 496.477 147.434 496.351 147.165L496.725 157.864ZM503.626 141.506C503.601 140.779 503.416 140.135 503.071 139.575C502.726 139.001 502.268 138.562 501.698 138.257C501.141 137.938 500.518 137.791 499.829 137.815C499.115 137.84 498.477 138.031 497.918 138.389C497.37 138.733 496.944 139.203 496.64 139.799C496.335 140.382 496.195 141.038 496.221 141.765C496.246 142.493 496.432 143.143 496.777 143.716C497.122 144.277 497.579 144.709 498.149 145.015C498.732 145.32 499.381 145.46 500.095 145.435C500.784 145.411 501.395 145.227 501.93 144.883C502.477 144.538 502.903 144.075 503.208 143.492C503.512 142.896 503.652 142.234 503.626 141.506ZM520.853 149.373C519.099 149.434 517.528 149.131 516.139 148.465C514.762 147.784 513.662 146.827 512.838 145.594C512.027 144.348 511.593 142.906 511.536 141.269C511.479 139.632 511.812 138.164 512.534 136.864C513.268 135.55 514.298 134.5 515.623 133.712C516.962 132.924 518.508 132.499 520.262 132.438C522.016 132.377 523.575 132.693 524.939 133.387C526.303 134.081 527.384 135.057 528.183 136.317C528.981 137.564 529.408 139.006 529.465 140.643C529.522 142.28 529.197 143.748 528.487 145.048C527.778 146.335 526.767 147.365 525.454 148.139C524.141 148.901 522.607 149.312 520.853 149.373ZM520.683 144.501C521.359 144.477 521.938 144.308 522.421 143.992C522.905 143.675 523.273 143.24 523.527 142.685C523.781 142.129 523.896 141.508 523.872 140.819C523.847 140.117 523.689 139.499 523.397 138.962C523.105 138.426 522.707 138.011 522.202 137.716C521.698 137.422 521.108 137.286 520.432 137.31C519.756 137.333 519.171 137.51 518.675 137.84C518.192 138.169 517.817 138.611 517.551 139.167C517.297 139.722 517.182 140.35 517.207 141.052C517.231 141.74 517.389 142.353 517.681 142.889C517.985 143.425 518.39 143.833 518.894 144.115C519.411 144.396 520.008 144.525 520.683 144.501ZM524.929 131.416L520.052 128.094L515.418 131.729L513.195 128.997L519.899 123.729L526.954 128.516L524.929 131.416ZM530.903 132.535L533.632 132.439L533.402 125.872L539.268 125.667L539.497 132.234L543.083 132.109L543.253 136.981L539.668 137.106L539.823 141.569C539.847 142.232 539.963 142.768 540.172 143.177C540.381 143.572 540.745 143.761 541.265 143.743C541.616 143.731 541.912 143.643 542.153 143.478C542.395 143.314 542.541 143.204 542.591 143.151L544.765 147.289C544.676 147.37 544.395 147.523 543.922 147.748C543.462 147.972 542.871 148.181 542.149 148.376C541.427 148.57 540.618 148.683 539.722 148.714C538.124 148.77 536.789 148.368 535.719 147.508C534.648 146.634 534.079 145.256 534.013 143.372L533.802 137.311L531.073 137.407L530.903 132.535ZM383.007 191.942L382.225 169.555L388.646 169.331L388.74 172.017L385.292 172.137L385.887 189.152L389.334 189.032L389.428 191.718L383.007 191.942ZM391.203 169.942L397.199 169.733C398.257 169.696 399.217 169.85 400.08 170.195C400.942 170.532 401.636 171.071 402.163 171.811C402.697 172.543 402.984 173.475 403.023 174.608C403.062 175.732 402.842 176.699 402.361 177.507C401.889 178.308 401.235 178.931 400.4 179.377C399.565 179.815 398.619 180.052 397.561 180.089L395.3 180.168L395.514 186.302L391.779 186.432L391.203 169.942ZM395.197 177.22L396.421 177.177C396.929 177.159 397.381 177.069 397.775 176.905C398.178 176.741 398.494 176.492 398.725 176.159C398.955 175.817 399.06 175.376 399.041 174.834C399.022 174.285 398.886 173.856 398.633 173.548C398.381 173.231 398.048 173.009 397.635 172.882C397.23 172.755 396.774 172.7 396.266 172.717L395.041 172.76L395.197 177.22ZM408.561 185.846L404.764 185.979L404.405 175.723L408.203 175.59L408.259 177.176L408.196 177.179C408.256 176.985 408.41 176.738 408.658 176.437C408.906 176.128 409.259 175.849 409.717 175.6C410.175 175.342 410.741 175.201 411.416 175.178C411.89 175.161 412.33 175.221 412.735 175.357C413.14 175.484 413.436 175.611 413.624 175.738L412.258 178.875C412.136 178.738 411.923 178.599 411.618 178.46C411.321 178.312 410.952 178.246 410.51 178.261C410.002 178.279 409.586 178.423 409.262 178.692C408.946 178.962 408.716 179.283 408.57 179.655C408.433 180.026 408.37 180.375 408.382 180.699L408.561 185.846ZM419.958 185.748C418.834 185.788 417.827 185.594 416.936 185.166C416.054 184.73 415.349 184.117 414.821 183.326C414.301 182.527 414.023 181.603 413.986 180.554C413.949 179.504 414.162 178.563 414.625 177.73C415.096 176.888 415.756 176.214 416.606 175.709C417.464 175.204 418.455 174.932 419.579 174.892C420.704 174.853 421.703 175.056 422.577 175.501C423.452 175.945 424.145 176.572 424.657 177.379C425.168 178.179 425.442 179.103 425.479 180.152C425.516 181.202 425.307 182.143 424.852 182.976C424.397 183.801 423.749 184.461 422.908 184.957C422.066 185.445 421.083 185.709 419.958 185.748ZM419.849 182.625C420.282 182.61 420.654 182.501 420.964 182.299C421.273 182.096 421.51 181.817 421.672 181.461C421.835 181.105 421.909 180.706 421.893 180.265C421.878 179.815 421.776 179.419 421.589 179.075C421.402 178.731 421.147 178.465 420.823 178.276C420.5 178.087 420.121 178 419.688 178.016C419.255 178.031 418.88 178.144 418.562 178.355C418.253 178.566 418.012 178.85 417.841 179.206C417.679 179.562 417.605 179.964 417.621 180.414C417.636 180.856 417.737 181.248 417.925 181.592C418.12 181.935 418.379 182.197 418.702 182.378C419.034 182.558 419.416 182.64 419.849 182.625ZM427.938 190.673C427.188 190.699 426.569 190.646 426.081 190.513C425.585 190.388 425.213 190.255 424.966 190.114L426.03 187.25C426.167 187.354 426.311 187.424 426.462 187.46C426.614 187.505 426.785 187.524 426.977 187.517C427.202 187.509 427.387 187.44 427.533 187.31C427.686 187.18 427.796 186.988 427.863 186.736C427.938 186.491 427.969 186.19 427.956 185.832L427.575 174.913L431.373 174.781L431.775 186.299C431.802 187.09 431.69 187.811 431.438 188.462C431.185 189.113 430.774 189.636 430.204 190.031C429.634 190.426 428.879 190.64 427.938 190.673ZM429.425 172.735C428.842 172.755 428.331 172.565 427.892 172.163C427.46 171.753 427.235 171.256 427.214 170.673C427.201 170.282 427.284 169.921 427.464 169.589C427.644 169.258 427.893 168.986 428.211 168.775C428.529 168.564 428.884 168.451 429.275 168.438C429.675 168.424 430.04 168.511 430.372 168.7C430.704 168.88 430.971 169.129 431.174 169.447C431.385 169.765 431.498 170.124 431.512 170.523C431.532 171.106 431.337 171.618 430.927 172.057C430.525 172.488 430.025 172.714 429.425 172.735ZM437.215 180.518C437.253 180.884 437.381 181.204 437.599 181.48C437.817 181.756 438.112 181.971 438.485 182.125C438.865 182.27 439.309 182.333 439.817 182.316C440.3 182.299 440.731 182.234 441.111 182.12C441.499 182.007 441.832 181.87 442.11 181.71C442.396 181.55 442.616 181.388 442.768 181.225L444.324 183.522C444.124 183.754 443.836 183.985 443.461 184.215C443.093 184.436 442.604 184.624 441.992 184.779C441.38 184.934 440.604 185.027 439.663 185.06C438.53 185.1 437.515 184.923 436.617 184.529C435.72 184.135 435.003 183.535 434.466 182.728C433.929 181.921 433.64 180.922 433.598 179.731C433.563 178.732 433.748 177.825 434.153 177.01C434.567 176.187 435.182 175.528 435.998 175.032C436.814 174.528 437.81 174.256 438.984 174.215C440.1 174.176 441.073 174.346 441.903 174.726C442.742 175.105 443.396 175.691 443.866 176.483C444.344 177.267 444.603 178.259 444.645 179.458C444.648 179.525 444.648 179.658 444.647 179.858C444.654 180.058 444.65 180.192 444.636 180.259L437.215 180.518ZM441.031 178.396C441.013 178.13 440.933 177.87 440.791 177.616C440.649 177.355 440.441 177.145 440.169 176.988C439.896 176.822 439.552 176.747 439.135 176.761C438.719 176.776 438.368 176.871 438.082 177.048C437.805 177.216 437.595 177.432 437.454 177.695C437.314 177.959 437.24 178.237 437.233 178.529L441.031 178.396ZM445.554 174.286L447.303 174.225L447.156 170.015L450.916 169.883L451.063 174.093L453.362 174.013L453.471 177.136L451.172 177.216L451.272 180.077C451.287 180.502 451.361 180.845 451.496 181.107C451.63 181.361 451.863 181.482 452.196 181.471C452.421 181.463 452.611 181.406 452.766 181.301C452.92 181.195 453.014 181.125 453.046 181.091L454.44 183.744C454.383 183.796 454.203 183.894 453.899 184.038C453.604 184.182 453.225 184.316 452.763 184.44C452.3 184.565 451.782 184.637 451.207 184.657C450.183 184.693 449.327 184.435 448.641 183.884C447.954 183.324 447.59 182.44 447.548 181.233L447.412 177.348L445.663 177.409L445.554 174.286ZM460.092 173.478C460.766 173.454 461.385 173.491 461.947 173.588C462.508 173.677 462.979 173.786 463.359 173.914C463.747 174.042 463.997 174.15 464.108 174.238L462.95 176.517C462.787 176.406 462.486 176.267 462.047 176.099C461.616 175.93 461.138 175.855 460.613 175.874C460.213 175.887 459.878 175.962 459.608 176.096C459.337 176.222 459.206 176.415 459.215 176.673C459.224 176.931 459.381 177.134 459.687 177.282C460 177.421 460.446 177.539 461.025 177.635C461.528 177.718 462.042 177.858 462.566 178.057C463.089 178.255 463.53 178.561 463.886 178.974C464.25 179.378 464.445 179.93 464.469 180.629C464.494 181.346 464.361 181.942 464.069 182.419C463.777 182.897 463.381 183.273 462.882 183.549C462.383 183.825 461.84 184.023 461.252 184.144C460.665 184.273 460.092 184.347 459.534 184.366C458.751 184.394 458.066 184.347 457.478 184.226C456.898 184.104 456.426 183.958 456.062 183.787C455.697 183.616 455.442 183.479 455.297 183.376L456.434 180.835C456.657 181.011 457.018 181.206 457.517 181.422C458.017 181.63 458.541 181.724 459.091 181.705C459.624 181.687 460.033 181.593 460.319 181.425C460.605 181.256 460.744 181.043 460.735 180.785C460.727 180.577 460.651 180.412 460.505 180.293C460.359 180.173 460.155 180.071 459.894 179.989C459.632 179.906 459.317 179.834 458.948 179.772C458.613 179.717 458.255 179.625 457.875 179.496C457.496 179.368 457.135 179.189 456.793 178.959C456.452 178.721 456.17 178.418 455.949 178.05C455.727 177.683 455.608 177.232 455.589 176.699C455.565 176.016 455.766 175.442 456.192 174.977C456.617 174.512 457.176 174.155 457.868 173.906C458.559 173.648 459.301 173.505 460.092 173.478ZM476.684 183.467L472.886 183.6L472.528 173.344L476.326 173.211L476.381 174.798L476.319 174.8C476.379 174.606 476.533 174.359 476.781 174.058C477.028 173.749 477.381 173.47 477.839 173.221C478.297 172.963 478.864 172.822 479.538 172.799C480.013 172.782 480.453 172.842 480.858 172.978C481.263 173.105 481.559 173.233 481.747 173.359L480.38 176.497C480.259 176.359 480.045 176.221 479.74 176.081C479.443 175.933 479.074 175.867 478.633 175.882C478.125 175.9 477.709 176.044 477.385 176.313C477.069 176.583 476.838 176.904 476.693 177.276C476.556 177.647 476.493 177.996 476.504 178.32L476.684 183.467ZM485.721 178.824C485.759 179.19 485.887 179.51 486.105 179.786C486.323 180.062 486.618 180.277 486.99 180.431C487.371 180.576 487.815 180.64 488.323 180.622C488.806 180.605 489.237 180.54 489.617 180.427C490.005 180.313 490.338 180.176 490.615 180.016C490.902 179.856 491.121 179.694 491.274 179.531L492.83 181.828C492.63 182.06 492.342 182.291 491.966 182.521C491.599 182.742 491.109 182.93 490.497 183.085C489.886 183.24 489.109 183.334 488.168 183.366C487.036 183.406 486.021 183.229 485.123 182.835C484.225 182.441 483.508 181.841 482.971 181.034C482.434 180.227 482.145 179.228 482.104 178.037C482.069 177.038 482.254 176.131 482.659 175.316C483.072 174.493 483.687 173.834 484.504 173.338C485.32 172.834 486.315 172.562 487.489 172.521C488.605 172.482 489.579 172.652 490.409 173.032C491.248 173.411 491.902 173.997 492.372 174.79C492.849 175.573 493.109 176.565 493.151 177.764C493.153 177.831 493.154 177.964 493.152 178.164C493.159 178.364 493.156 178.498 493.141 178.565L485.721 178.824ZM489.537 176.702C489.519 176.436 489.439 176.176 489.297 175.923C489.154 175.661 488.947 175.451 488.674 175.294C488.402 175.128 488.057 175.053 487.641 175.067C487.225 175.082 486.873 175.177 486.588 175.354C486.31 175.522 486.101 175.738 485.96 176.002C485.819 176.265 485.745 176.543 485.739 176.835L489.537 176.702ZM485.961 171.736L484.796 170.239L488.734 166.599L490.611 168.797L485.961 171.736ZM503.274 182.539L503.216 180.877C503.147 181.046 502.964 181.295 502.667 181.622C502.378 181.949 501.988 182.25 501.498 182.526C501.007 182.793 500.428 182.938 499.762 182.962C498.763 182.996 497.88 182.786 497.113 182.329C496.346 181.863 495.741 181.23 495.296 180.428C494.851 179.618 494.611 178.714 494.576 177.714C494.541 176.715 494.717 175.8 495.105 174.969C495.493 174.13 496.053 173.452 496.785 172.934C497.518 172.417 498.383 172.141 499.383 172.106C500.024 172.083 500.59 172.168 501.08 172.359C501.57 172.542 501.97 172.77 502.28 173.043C502.589 173.307 502.806 173.554 502.931 173.783L502.879 172.284L506.651 172.152L507.01 182.408L503.274 182.539ZM498.298 177.584C498.315 178.051 498.438 178.468 498.667 178.835C498.897 179.194 499.194 179.471 499.559 179.667C499.933 179.862 500.341 179.952 500.782 179.937C501.24 179.921 501.64 179.802 501.983 179.582C502.325 179.362 502.59 179.065 502.777 178.691C502.972 178.309 503.062 177.885 503.045 177.419C503.029 176.952 502.911 176.539 502.69 176.18C502.477 175.812 502.192 175.531 501.834 175.335C501.477 175.13 501.069 175.036 500.611 175.052C500.17 175.068 499.77 175.19 499.411 175.419C499.06 175.64 498.783 175.941 498.58 176.324C498.376 176.698 498.282 177.118 498.298 177.584ZM513.217 182.192L509.407 182.325L508.807 165.135L512.617 165.002L513.217 182.192ZM515.79 182.102L515.432 171.845L519.23 171.713L519.588 181.969L515.79 182.102ZM517.307 169.666C516.708 169.687 516.192 169.497 515.762 169.095C515.33 168.685 515.104 168.188 515.084 167.605C515.064 167.022 515.254 166.511 515.656 166.072C516.066 165.624 516.566 165.389 517.157 165.369C517.549 165.355 517.91 165.443 518.242 165.631C518.574 165.811 518.845 166.06 519.056 166.378C519.267 166.696 519.38 167.055 519.394 167.454C519.414 168.037 519.22 168.549 518.81 168.988C518.399 169.42 517.899 169.646 517.307 169.666ZM526.433 171.161C527.108 171.138 527.726 171.174 528.288 171.271C528.85 171.36 529.321 171.469 529.7 171.597C530.088 171.726 530.338 171.834 530.45 171.921L529.291 174.201C529.129 174.09 528.828 173.95 528.388 173.782C527.957 173.614 527.479 173.539 526.955 173.557C526.555 173.571 526.22 173.645 525.949 173.78C525.678 173.906 525.548 174.098 525.557 174.356C525.566 174.614 525.723 174.817 526.028 174.965C526.342 175.104 526.788 175.222 527.366 175.319C527.869 175.401 528.383 175.542 528.907 175.74C529.431 175.939 529.871 176.244 530.227 176.657C530.592 177.061 530.786 177.613 530.81 178.313C530.835 179.029 530.702 179.626 530.41 180.103C530.118 180.58 529.723 180.956 529.224 181.232C528.725 181.508 528.181 181.706 527.594 181.827C527.006 181.956 526.433 182.03 525.875 182.05C525.092 182.077 524.407 182.03 523.819 181.909C523.24 181.787 522.767 181.641 522.403 181.471C522.038 181.3 521.784 181.163 521.638 181.059L522.775 178.518C522.998 178.694 523.359 178.89 523.859 179.106C524.358 179.313 524.882 179.408 525.432 179.389C525.965 179.37 526.375 179.276 526.661 179.108C526.947 178.94 527.085 178.726 527.076 178.468C527.069 178.26 526.992 178.096 526.846 177.976C526.7 177.856 526.497 177.755 526.235 177.672C525.974 177.589 525.659 177.517 525.29 177.455C524.954 177.4 524.597 177.308 524.217 177.18C523.837 177.051 523.476 176.872 523.135 176.642C522.793 176.404 522.511 176.101 522.29 175.733C522.069 175.366 521.949 174.916 521.93 174.383C521.906 173.7 522.107 173.126 522.533 172.661C522.959 172.195 523.517 171.838 524.209 171.589C524.901 171.331 525.642 171.189 526.433 171.161ZM535.812 177.075C535.85 177.44 535.978 177.761 536.196 178.037C536.414 178.313 536.709 178.528 537.082 178.682C537.462 178.827 537.906 178.89 538.414 178.873C538.897 178.856 539.329 178.791 539.708 178.677C540.096 178.564 540.429 178.427 540.707 178.267C540.993 178.107 541.213 177.945 541.365 177.781L542.922 180.079C542.721 180.311 542.433 180.542 542.058 180.772C541.69 180.993 541.201 181.181 540.589 181.336C539.977 181.491 539.201 181.584 538.26 181.617C537.127 181.657 536.112 181.48 535.215 181.086C534.317 180.692 533.6 180.091 533.063 179.285C532.526 178.478 532.237 177.479 532.195 176.288C532.16 175.289 532.345 174.382 532.751 173.567C533.164 172.744 533.779 172.084 534.595 171.589C535.411 171.085 536.407 170.813 537.581 170.772C538.697 170.733 539.67 170.903 540.501 171.283C541.339 171.662 541.994 172.248 542.463 173.04C542.941 173.824 543.201 174.816 543.242 176.015C543.245 176.082 543.245 176.215 543.244 176.415C543.251 176.615 543.247 176.749 543.233 176.816L535.812 177.075ZM539.628 174.953C539.611 174.687 539.531 174.427 539.388 174.173C539.246 173.911 539.038 173.702 538.766 173.545C538.493 173.379 538.149 173.304 537.732 173.318C537.316 173.333 536.965 173.428 536.679 173.605C536.402 173.773 536.192 173.989 536.052 174.252C535.911 174.516 535.837 174.793 535.83 175.086L539.628 174.953ZM536.053 169.987L534.887 168.489L538.825 164.85L540.703 167.048L536.053 169.987ZM549.637 170.351C550.311 170.327 550.93 170.364 551.492 170.461C552.053 170.55 552.524 170.659 552.904 170.787C553.292 170.915 553.542 171.023 553.653 171.111L552.495 173.39C552.332 173.279 552.031 173.14 551.592 172.972C551.161 172.803 550.683 172.728 550.158 172.747C549.758 172.761 549.423 172.835 549.153 172.969C548.882 173.095 548.751 173.288 548.76 173.546C548.769 173.804 548.926 174.007 549.232 174.155C549.545 174.294 549.991 174.412 550.57 174.508C551.073 174.591 551.587 174.731 552.111 174.93C552.634 175.128 553.075 175.434 553.431 175.847C553.795 176.251 553.99 176.803 554.014 177.502C554.039 178.219 553.906 178.815 553.614 179.292C553.322 179.77 552.926 180.146 552.427 180.422C551.928 180.698 551.385 180.896 550.797 181.017C550.21 181.146 549.637 181.22 549.079 181.239C548.296 181.267 547.611 181.22 547.023 181.099C546.443 180.977 545.971 180.831 545.607 180.66C545.242 180.49 544.987 180.352 544.842 180.249L545.979 177.708C546.202 177.884 546.563 178.079 547.062 178.295C547.562 178.503 548.086 178.597 548.636 178.578C549.169 178.56 549.578 178.466 549.864 178.298C550.15 178.129 550.289 177.916 550.28 177.658C550.272 177.45 550.196 177.286 550.05 177.166C549.904 177.046 549.7 176.944 549.439 176.862C549.177 176.779 548.862 176.707 548.493 176.645C548.158 176.59 547.8 176.498 547.42 176.369C547.041 176.241 546.68 176.062 546.339 175.832C545.997 175.594 545.715 175.291 545.494 174.923C545.272 174.556 545.153 174.105 545.134 173.572C545.11 172.889 545.311 172.315 545.737 171.85C546.162 171.385 546.721 171.028 547.413 170.779C548.104 170.521 548.846 170.378 549.637 170.351ZM556.4 185.887L556.306 183.201L559.754 183.08L559.16 166.066L555.712 166.186L555.618 163.5L562.04 163.276L562.821 185.662L556.4 185.887Z" fill="white"/>
<mask id="path-31-inside-14_8_356" fill="white">
<path d="M156 218H788V239H156V218Z"/>
</mask>
<path d="M156 218H788V239H156V218Z" fill="#D9D9D9"/>
<path d="M156 218V215H153V218H156ZM788 218H791V215H788V218ZM156 221H788V215H156V221ZM785 218V239H791V218H785ZM159 239V218H153V239H159Z" fill="white" mask="url(#path-31-inside-14_8_356)"/>
<mask id="path-33-inside-15_8_356" fill="white">
<path d="M156 239H788V260H156V239Z"/>
</mask>
<path d="M156 239H788V260H156V239Z" fill="#D9D9D9"/>
<path d="M156 239V236H153V239H156ZM788 239H791V236H788V239ZM156 242H788V236H156V242ZM785 239V260H791V239H785ZM159 260V239H153V260H159Z" fill="white" mask="url(#path-33-inside-15_8_356)"/>
<g filter="url(#filter2_d_8_356)">
<rect x="106" y="218" width="50" height="315" fill="#FC6736"/>
</g>
<g filter="url(#filter3_d_8_356)">
<rect x="788" y="218" width="50" height="315" fill="#FC6736"/>
</g>
<g filter="url(#filter4_d_8_356)">
<path d="M56 183.363L106 167.332V533H56V183.363Z" fill="#FC6736"/>
</g>
<g filter="url(#filter5_d_8_356)">
<path d="M472 0V50L1 201C1 181.474 1 170.526 1 151L472 0Z" fill="#FC6736"/>
</g>
<g filter="url(#filter6_d_8_356)">
<path d="M838 167.324L888 183.367V533H838V167.324Z" fill="#FC6736"/>
</g>
<g filter="url(#filter7_d_8_356)">
<rect x="156" y="215" width="632" height="3" fill="#FC6736"/>
</g>
<g filter="url(#filter8_d_8_356)">
<path d="M943 151V201L472 50C472 30.4738 472 19.5262 472 0L943 151Z" fill="#FC6736"/>
</g>
<defs>
<filter id="filter0_d_8_356" x="102" y="50" width="740" height="186" filterUnits="userSpaceOnUse" color-interpolation-filters="sRGB">
<feFlood flood-opacity="0" result="BackgroundImageFix"/>
<feColorMatrix in="SourceAlpha" type="matrix" values="0 0 0 0 0 0 0 0 0 0 0 0 0 0 0 0 0 0 127 0" result="hardAlpha"/>
<feOffset dy="14"/>
<feGaussianBlur stdDeviation="2"/>
<feComposite in2="hardAlpha" operator="out"/>
<feColorMatrix type="matrix" values="0 0 0 0 0 0 0 0 0 0 0 0 0 0 0 0 0 0 0.25 0"/>
<feBlend mode="normal" in2="BackgroundImageFix" result="effect1_dropShadow_8_356"/>
<feBlend mode="normal" in="SourceGraphic" in2="effect1_dropShadow_8_356" result="shape"/>
</filter>
<filter id="filter1_d_8_356" x="325.15" y="104.686" width="298.249" height="106.417" filterUnits="userSpaceOnUse" color-interpolation-filters="sRGB">
<feFlood flood-opacity="0" result="BackgroundImageFix"/>
<feColorMatrix in="SourceAlpha" type="matrix" values="0 0 0 0 0 0 0 0 0 0 0 0 0 0 0 0 0 0 127 0" result="hardAlpha"/>
<feOffset dx="2" dy="1"/>
<feGaussianBlur stdDeviation="2"/>
<feComposite in2="hardAlpha" operator="out"/>
<feColorMatrix type="matrix" values="0 0 0 0 0 0 0 0 0 0 0 0 0 0 0 0 0 0 0.25 0"/>
<feBlend mode="normal" in2="BackgroundImageFix" result="effect1_dropShadow_8_356"/>
<feBlend mode="normal" in="SourceGraphic" in2="effect1_dropShadow_8_356" result="shape"/>
</filter>
<filter id="filter2_d_8_356" x="104" y="218" width="58" height="323" filterUnits="userSpaceOnUse" color-interpolation-filters="sRGB">
<feFlood flood-opacity="0" result="BackgroundImageFix"/>
<feColorMatrix in="SourceAlpha" type="matrix" values="0 0 0 0 0 0 0 0 0 0 0 0 0 0 0 0 0 0 127 0" result="hardAlpha"/>
<feOffset dx="2" dy="4"/>
<feGaussianBlur stdDeviation="2"/>
<feComposite in2="hardAlpha" operator="out"/>
<feColorMatrix type="matrix" values="0 0 0 0 0 0 0 0 0 0 0 0 0 0 0 0 0 0 0.25 0"/>
<feBlend mode="normal" in2="BackgroundImageFix" result="effect1_dropShadow_8_356"/>
<feBlend mode="normal" in="SourceGraphic" in2="effect1_dropShadow_8_356" result="shape"/>
</filter>
<filter id="filter3_d_8_356" x="783.5" y="218" width="58" height="323" filterUnits="userSpaceOnUse" color-interpolation-filters="sRGB">
<feFlood flood-opacity="0" result="BackgroundImageFix"/>
<feColorMatrix in="SourceAlpha" type="matrix" values="0 0 0 0 0 0 0 0 0 0 0 0 0 0 0 0 0 0 127 0" result="hardAlpha"/>
<feOffset dx="-0.5" dy="4"/>
<feGaussianBlur stdDeviation="2"/>
<feComposite in2="hardAlpha" operator="out"/>
<feColorMatrix type="matrix" values="0 0 0 0 0 0 0 0 0 0 0 0 0 0 0 0 0 0 0.25 0"/>
<feBlend mode="normal" in2="BackgroundImageFix" result="effect1_dropShadow_8_356"/>
<feBlend mode="normal" in="SourceGraphic" in2="effect1_dropShadow_8_356" result="shape"/>
</filter>
<filter id="filter4_d_8_356" x="54" y="163.332" width="58" height="373.668" filterUnits="userSpaceOnUse" color-interpolation-filters="sRGB">
<feFlood flood-opacity="0" result="BackgroundImageFix"/>
<feColorMatrix in="SourceAlpha" type="matrix" values="0 0 0 0 0 0 0 0 0 0 0 0 0 0 0 0 0 0 127 0" result="hardAlpha"/>
<feOffset dx="2"/>
<feGaussianBlur stdDeviation="2"/>
<feComposite in2="hardAlpha" operator="out"/>
<feColorMatrix type="matrix" values="0 0 0 0 0 0 0 0 0 0 0 0 0 0 0 0 0 0 0.25 0"/>
<feBlend mode="normal" in2="BackgroundImageFix" result="effect1_dropShadow_8_356"/>
<feBlend mode="normal" in="SourceGraphic" in2="effect1_dropShadow_8_356" result="shape"/>
</filter>
<filter id="filter5_d_8_356" x="0" y="0" width="479" height="209" filterUnits="userSpaceOnUse" color-interpolation-filters="sRGB">
<feFlood flood-opacity="0" result="BackgroundImageFix"/>
<feColorMatrix in="SourceAlpha" type="matrix" values="0 0 0 0 0 0 0 0 0 0 0 0 0 0 0 0 0 0 127 0" result="hardAlpha"/>
<feOffset dx="3" dy="4"/>
<feGaussianBlur stdDeviation="2"/>
<feComposite in2="hardAlpha" operator="out"/>
<feColorMatrix type="matrix" values="0 0 0 0 0 0 0 0 0 0 0 0 0 0 0 0 0 0 0.25 0"/>
<feBlend mode="normal" in2="BackgroundImageFix" result="effect1_dropShadow_8_356"/>
<feBlend mode="normal" in="SourceGraphic" in2="effect1_dropShadow_8_356" result="shape"/>
</filter>
<filter id="filter6_d_8_356" x="833.5" y="167.324" width="58" height="373.676" filterUnits="userSpaceOnUse" color-interpolation-filters="sRGB">
<feFlood flood-opacity="0" result="BackgroundImageFix"/>
<feColorMatrix in="SourceAlpha" type="matrix" values="0 0 0 0 0 0 0 0 0 0 0 0 0 0 0 0 0 0 127 0" result="hardAlpha"/>
<feOffset dx="-0.5" dy="4"/>
<feGaussianBlur stdDeviation="2"/>
<feComposite in2="hardAlpha" operator="out"/>
<feColorMatrix type="matrix" values="0 0 0 0 0 0 0 0 0 0 0 0 0 0 0 0 0 0 0.25 0"/>
<feBlend mode="normal" in2="BackgroundImageFix" result="effect1_dropShadow_8_356"/>
<feBlend mode="normal" in="SourceGraphic" in2="effect1_dropShadow_8_356" result="shape"/>
</filter>
<filter id="filter7_d_8_356" x="152" y="214" width="640" height="11" filterUnits="userSpaceOnUse" color-interpolation-filters="sRGB">
<feFlood flood-opacity="0" result="BackgroundImageFix"/>
<feColorMatrix in="SourceAlpha" type="matrix" values="0 0 0 0 0 0 0 0 0 0 0 0 0 0 0 0 0 0 127 0" result="hardAlpha"/>
<feOffset dy="3"/>
<feGaussianBlur stdDeviation="2"/>
<feComposite in2="hardAlpha" operator="out"/>
<feColorMatrix type="matrix" values="0 0 0 0 0 0 0 0 0 0 0 0 0 0 0 0 0 0 0.25 0"/>
<feBlend mode="normal" in2="BackgroundImageFix" result="effect1_dropShadow_8_356"/>
<feBlend mode="normal" in="SourceGraphic" in2="effect1_dropShadow_8_356" result="shape"/>
</filter>
<filter id="filter8_d_8_356" x="471" y="0" width="479" height="209" filterUnits="userSpaceOnUse" color-interpolation-filters="sRGB">
<feFlood flood-opacity="0" result="BackgroundImageFix"/>
<feColorMatrix in="SourceAlpha" type="matrix" values="0 0 0 0 0 0 0 0 0 0 0 0 0 0 0 0 0 0 127 0" result="hardAlpha"/>
<feOffset dx="3" dy="4"/>
<feGaussianBlur stdDeviation="2"/>
<feComposite in2="hardAlpha" operator="out"/>
<feColorMatrix type="matrix" values="0 0 0 0 0 0 0 0 0 0 0 0 0 0 0 0 0 0 0.25 0"/>
<feBlend mode="normal" in2="BackgroundImageFix" result="effect1_dropShadow_8_356"/>
<feBlend mode="normal" in="SourceGraphic" in2="effect1_dropShadow_8_356" result="shape"/>
</filter>
</defs>
</svg>
