<svg width="359" height="155" viewBox="0 0 359 155" fill="none" xmlns="http://www.w3.org/2000/svg">
<path d="M239.344 61.3764L241.307 57.9289L237.531 56.081L249.288 32.274L252.617 29.754L253.713 21.7332L250.776 20.2959L244.645 25.8528L244.36 30.1216L232.915 53.8224L229.139 51.9744L227.595 55.6273C227.595 55.6273 230.739 56.6469 228.882 60.4059C227.851 62.4942 224.707 61.4746 221.613 67.7396C220.582 69.8279 217.281 76.5106 217.281 76.5106C217.281 76.5106 216.47 80.2626 221.505 82.7265C226.541 85.1904 229.03 82.2598 229.03 82.2598C229.03 82.2598 232.33 75.5771 233.362 73.4888C236.25 67.6414 233.725 65.3688 234.55 63.6981C236.407 59.9392 239.344 61.3764 239.344 61.3764ZM229.216 63.4217L232.153 64.859L224.315 80.7303L221.378 79.293L229.216 63.4217Z" fill="#D9D9D9"/>
<path d="M133.034 81.7679L120.102 47.825C121.383 46.5946 122.363 45.2292 123.178 43.4286C126.163 36.8264 123.178 28.9935 116.546 26.022C114.737 25.2116 113.094 24.8363 111.315 24.7612L116.123 37.381L106.942 40.8466L102.134 28.2268C100.853 29.4572 99.8728 30.8226 99.0586 32.6232C96.0734 39.2254 99.0577 47.0584 105.69 50.0298C107.499 50.8402 109.142 51.2155 110.921 51.2906L123.853 85.2336C124.848 87.8446 127.561 89.0602 130.184 88.07C132.807 87.0798 134.029 84.3789 133.034 81.7679ZM114.675 52.6113L112.354 46.519L116.288 45.0337L118.609 51.1261L114.675 52.6113ZM126.944 84.8136C125.738 84.2734 124.939 82.8328 125.617 81.3323C126.16 80.1319 127.607 79.3367 129.115 80.0121C130.622 80.6874 131.119 81.9929 130.441 83.4934C129.762 84.9939 128.451 85.489 126.944 84.8136Z" fill="#D9D9D9"/>
<path d="M214.166 47.1288L211.533 44.2429C210.806 43.4459 209.628 43.4459 208.901 44.2429L207.585 45.6852L204.223 41.9998C204.878 39.2823 204.265 36.274 202.321 34.1431L197.057 28.3726C189.789 20.4049 178.004 20.4049 170.735 28.3726L181.264 34.1431V36.5341C181.264 38.6982 182.048 40.7743 183.445 42.3046L189.161 48.5711C191.105 50.702 193.849 51.374 196.328 50.6561L199.69 54.3415L198.374 55.7838C197.647 56.5808 197.647 57.8727 198.374 58.6697L201.007 61.5555C201.734 62.3526 202.912 62.3526 203.639 61.5555L214.168 50.0134C214.893 49.2176 214.893 47.9258 214.166 47.1288ZM180.812 45.1904C180.382 44.7186 180.017 44.197 179.666 43.6665L149.991 74.0388C147.017 77.0841 146.937 82.2246 149.813 85.3795C152.69 88.5344 157.38 88.4464 160.158 85.1844L187.859 52.6569C187.399 52.2858 186.94 51.9084 186.529 51.4569L180.812 45.1904Z" fill="#D9D9D9"/>
<ellipse cx="271.441" cy="66.4794" rx="1.41008" ry="1.42202" fill="#FC6736"/>
<ellipse cx="87.4257" cy="66.4794" rx="1.41009" ry="1.42202" fill="#FC6736"/>
<path d="M77.4524 76.0531C69.4015 83.6156 56.7256 83.2374 49.14 75.2084L-0.000749419 23.1952L24.6924 -3.53547e-05L87.5682 66.551L77.4524 76.0531Z" fill="#FC6736"/>
<path d="M359 23.189L309.872 75.2147C302.289 83.2457 289.613 83.6271 281.56 76.0666L271.442 66.5671L334.301 2.61664e-05L359 23.189Z" fill="#FC6736"/>
<path d="M87.4258 66.4794H271.442V135C271.442 146.046 262.488 155 251.442 155H107.426C96.3801 155 87.4258 146.046 87.4258 135V66.4794Z" fill="#FC6736"/>
<rect x="140.656" y="58.3027" width="7.05043" height="17.7752" rx="3.52522" fill="#0C2D57"/>
<rect x="211.16" y="58.3027" width="7.05043" height="17.7752" rx="3.52522" fill="#0C2D57"/>
<path d="M205.815 108.143L203.834 105.771C203.287 105.115 202.4 105.115 201.853 105.771L200.864 106.956L198.334 103.926C198.827 101.692 198.366 99.2188 196.903 97.4669L192.943 92.7226C187.475 86.1719 178.608 86.1719 173.139 92.7226L181.061 97.4669V99.4327C181.061 101.212 181.651 102.919 182.702 104.177L187.002 109.329C188.465 111.081 190.529 111.634 192.394 111.043L194.924 114.073L193.934 115.259C193.387 115.914 193.387 116.976 193.934 117.632L195.914 120.004C196.461 120.66 197.348 120.66 197.895 120.004L205.816 110.515C206.362 109.861 206.362 108.799 205.815 108.143ZM180.721 106.55C180.397 106.162 180.123 105.733 179.859 105.297L157.533 130.268C155.295 132.771 155.235 136.998 157.399 139.592C159.563 142.185 163.092 142.113 165.182 139.431L186.023 112.688C185.676 112.383 185.332 112.073 185.022 111.702L180.721 106.55Z" fill="#0C2D57"/>
</svg>
