<svg width="183" height="162" viewBox="0 0 183 162" fill="none" xmlns="http://www.w3.org/2000/svg">
<path d="M45.9989 3.24301L57.9992 3.24304L16 158.243L3.99967 158.243L45.9989 3.24301Z" fill="#FC6736" fill-opacity="0.9"/>
<path d="M126.999 3.24313L138 3.24304L178.5 158.243L166.999 158.243L126.999 3.24313Z" fill="#FC6736" fill-opacity="0.9"/>
<rect x="53" y="71.243" width="26" height="3" fill="#8E7A7A"/>
<mask id="path-4-inside-1_135_776" fill="white">
<path d="M55 74.243C55 72.7985 55.2845 71.3681 55.8373 70.0335C56.3901 68.6989 57.2004 67.4863 58.2218 66.4649C59.2433 65.4434 60.4559 64.6332 61.7905 64.0804C63.1251 63.5276 64.5555 63.243 66 63.243C67.4445 63.243 68.8749 63.5276 70.2095 64.0804C71.5441 64.6332 72.7567 65.4434 73.7782 66.4649C74.7996 67.4863 75.6099 68.6989 76.1627 70.0335C76.7155 71.3681 77 72.7985 77 74.243L66 74.243H55Z"/>
</mask>
<path d="M55 74.243C55 72.7985 55.2845 71.3681 55.8373 70.0335C56.3901 68.6989 57.2004 67.4863 58.2218 66.4649C59.2433 65.4434 60.4559 64.6332 61.7905 64.0804C63.1251 63.5276 64.5555 63.243 66 63.243C67.4445 63.243 68.8749 63.5276 70.2095 64.0804C71.5441 64.6332 72.7567 65.4434 73.7782 66.4649C74.7996 67.4863 75.6099 68.6989 76.1627 70.0335C76.7155 71.3681 77 72.7985 77 74.243L66 74.243H55Z" fill="#D9D9D9" stroke="#8E7A7A" stroke-width="8" mask="url(#path-4-inside-1_135_776)"/>
<rect x="86" y="3.24304" width="11" height="155" fill="#FC6736" fill-opacity="0.8"/>
<g clip-path="url(#clip0_135_776)">
<path d="M109.015 38.8339C109.088 38.6769 109.273 38.608 109.43 38.6805L113.16 40.3976L107.298 42.5645L109.015 38.8339Z" fill="#F9EBB2"/>
<path d="M114.235 61.3305L113.583 59.565L119.445 57.3981L120.097 59.163C120.217 59.4872 120.052 59.8468 119.728 59.9664L115.039 61.7001C114.714 61.8196 114.355 61.6541 114.235 61.3305Z" fill="#F76D57"/>
<path d="M113.366 58.9793L119.229 56.8121L118.795 55.6397L112.933 57.8069L113.366 58.9793Z" fill="#F9EBB2"/>
<path d="M118.58 55.0532L113.379 40.9833L111.913 41.5252L117.114 55.595L118.58 55.0532Z" fill="#45AAB8"/>
<path d="M114.181 56.6782L108.98 42.6089L107.515 43.1505L112.716 57.2199L114.181 56.6782Z" fill="#45AAB8"/>
<path d="M116.527 55.8115L111.326 41.7419L109.568 42.392L114.769 56.4616L116.527 55.8115Z" fill="#45AAB8"/>
<path opacity="0.2" d="M111.912 41.5256L117.113 55.5952L118.579 55.0534L113.378 40.9838L111.912 41.5256Z" fill="#231F20"/>
<path opacity="0.2" d="M112.716 57.2202L114.182 56.6786L108.981 42.6093L107.515 43.1509L112.716 57.2202Z" fill="#231F20"/>
<path d="M115.255 62.2861L119.945 60.5524C120.593 60.313 120.923 59.5945 120.684 58.9463C120.684 58.9463 113.843 40.4394 113.749 40.187C113.656 39.9351 113.382 39.8107 113.382 39.8107L109.408 37.9821C109.094 37.8377 108.723 37.9752 108.578 38.2882L106.749 42.2625C106.749 42.2625 106.621 42.5348 106.715 42.7874C106.808 43.04 113.65 61.5473 113.65 61.5473C113.889 62.1953 114.607 62.5257 115.255 62.2861ZM109.43 38.6804L109.879 38.8872L108.809 39.2828L109.016 38.8337C109.088 38.6768 109.273 38.6079 109.43 38.6804ZM108.439 40.0855L110.682 39.2565L113.16 40.3973L107.298 42.5644L108.439 40.0855ZM112.933 57.8062L118.795 55.6394L118.578 55.0533L117.113 55.5949L111.912 41.5254L111.326 41.7421L116.527 55.8112L114.768 56.4614L109.567 42.3921L108.981 42.6087L114.182 56.6779L112.716 57.2196L107.515 43.1505L113.378 40.9833L119.229 56.8118L113.366 58.979L112.933 57.8062ZM114.236 61.3303L113.583 59.5649L119.445 57.3979L120.098 59.1629C120.217 59.487 120.052 59.8467 119.729 59.9662L115.039 61.6999C114.715 61.8195 114.356 61.6539 114.236 61.3303Z" fill="#394240"/>
</g>
<g clip-path="url(#clip1_135_776)">
<path d="M120.334 50.9895L123.385 51.6936L123.526 51.0834L120.475 50.3793L120.334 50.9895Z" fill="#F9EBB2"/>
<path d="M125.997 40.3814C125.129 40.5186 124.412 40.3626 124.395 40.3591C124.379 40.3554 123.666 40.1812 122.946 39.6775L120.618 49.77L123.668 50.4738L125.997 40.3814Z" fill="#B4CCB9"/>
<path d="M120.946 55.3079C121.789 55.5025 122.629 54.9771 122.824 54.1346L123.246 52.304L120.195 51.6003L119.773 53.4308C119.578 54.2732 120.104 55.1138 120.946 55.3079Z" fill="#506C7F"/>
<path d="M122.189 35.9939C122.607 34.1793 123.56 33.4076 124.664 32.5143C125.341 31.9661 126.035 31.4038 126.653 30.5683C126.843 31.5905 127.221 32.4003 127.59 33.189C128.19 34.4757 128.709 35.5874 128.291 37.4016C127.597 40.4061 124.659 39.7764 124.536 39.7489C124.412 39.719 121.495 38.9981 122.189 35.9939Z" fill="#F76D57"/>
<path d="M120.805 55.9186C121.985 56.1906 123.161 55.4551 123.434 54.2755L126.678 40.2119C127.597 39.8922 128.528 39.1574 128.901 37.5421C129.368 35.5173 128.78 34.2575 128.157 32.9234C127.715 31.9765 127.257 30.9974 127.171 29.6599C127.162 29.5217 127.063 29.4058 126.928 29.3752C126.794 29.3439 126.655 29.4048 126.586 29.525C125.922 30.6896 125.082 31.3694 124.27 32.0267C123.126 32.9531 122.045 33.8277 121.578 35.8525C121.205 37.4678 121.72 38.536 122.406 39.2264L119.161 53.2898C118.89 54.4699 119.625 55.6465 120.805 55.9186ZM122.189 35.9938C122.607 34.1793 123.56 33.4076 124.664 32.5143C125.341 31.9661 126.035 31.4038 126.653 30.5683C126.843 31.5905 127.221 32.4003 127.59 33.189C128.19 34.4757 128.709 35.5873 128.291 37.4016C127.597 40.4061 124.659 39.7764 124.536 39.7488C124.412 39.719 121.495 38.998 122.189 35.9938ZM122.945 39.6775C123.665 40.1811 124.379 40.3554 124.395 40.3591C124.411 40.3626 125.128 40.5188 125.996 40.3814L123.668 50.4738L120.617 49.77L122.945 39.6775ZM120.476 50.3798L123.527 51.0838L123.386 51.694L120.336 50.99L120.476 50.3798ZM120.194 51.6003L123.246 52.3041L122.823 54.1347C122.629 54.9772 121.788 55.5026 120.946 55.308C120.103 55.1138 119.578 54.2733 119.772 53.4308L120.194 51.6003Z" fill="#394240"/>
<path d="M125.051 38.9035C125.09 38.7347 124.985 38.5669 124.816 38.528C123.805 38.295 123.175 37.2864 123.408 36.275C123.447 36.1061 123.342 35.9385 123.173 35.8995C123.005 35.8609 122.837 35.9657 122.798 36.1343C122.487 37.4824 123.328 38.8272 124.676 39.1382C124.844 39.1771 125.012 39.0721 125.051 38.9035Z" fill="#394240"/>
</g>
<g filter="url(#filter0_d_135_776)">
<rect x="108" y="49.243" width="20" height="25" fill="#8E7A7A"/>
</g>
<g filter="url(#filter1_dd_135_776)">
<rect x="4" y="74.243" width="175" height="8" fill="#FC6736"/>
</g>
<defs>
<filter id="filter0_d_135_776" x="103" y="45.243" width="28" height="33" filterUnits="userSpaceOnUse" color-interpolation-filters="sRGB">
<feFlood flood-opacity="0" result="BackgroundImageFix"/>
<feColorMatrix in="SourceAlpha" type="matrix" values="0 0 0 0 0 0 0 0 0 0 0 0 0 0 0 0 0 0 127 0" result="hardAlpha"/>
<feOffset dx="-1"/>
<feGaussianBlur stdDeviation="2"/>
<feComposite in2="hardAlpha" operator="out"/>
<feColorMatrix type="matrix" values="0 0 0 0 0 0 0 0 0 0 0 0 0 0 0 0 0 0 0.25 0"/>
<feBlend mode="normal" in2="BackgroundImageFix" result="effect1_dropShadow_135_776"/>
<feBlend mode="normal" in="SourceGraphic" in2="effect1_dropShadow_135_776" result="shape"/>
</filter>
<filter id="filter1_dd_135_776" x="0" y="69.243" width="183" height="19" filterUnits="userSpaceOnUse" color-interpolation-filters="sRGB">
<feFlood flood-opacity="0" result="BackgroundImageFix"/>
<feColorMatrix in="SourceAlpha" type="matrix" values="0 0 0 0 0 0 0 0 0 0 0 0 0 0 0 0 0 0 127 0" result="hardAlpha"/>
<feOffset dy="-1"/>
<feGaussianBlur stdDeviation="2"/>
<feComposite in2="hardAlpha" operator="out"/>
<feColorMatrix type="matrix" values="0 0 0 0 0 0 0 0 0 0 0 0 0 0 0 0 0 0 0.25 0"/>
<feBlend mode="normal" in2="BackgroundImageFix" result="effect1_dropShadow_135_776"/>
<feColorMatrix in="SourceAlpha" type="matrix" values="0 0 0 0 0 0 0 0 0 0 0 0 0 0 0 0 0 0 127 0" result="hardAlpha"/>
<feOffset dy="2"/>
<feGaussianBlur stdDeviation="2"/>
<feComposite in2="hardAlpha" operator="out"/>
<feColorMatrix type="matrix" values="0 0 0 0 0 0 0 0 0 0 0 0 0 0 0 0 0 0 0.25 0"/>
<feBlend mode="normal" in2="effect1_dropShadow_135_776" result="effect2_dropShadow_135_776"/>
<feBlend mode="normal" in="SourceGraphic" in2="effect2_dropShadow_135_776" result="shape"/>
</filter>
<clipPath id="clip0_135_776">
<rect width="20" height="20" fill="white" transform="translate(127.008 46.0818) rotate(114.712)"/>
</clipPath>
<clipPath id="clip1_135_776">
<rect width="20" height="20" fill="white" transform="translate(137.561 46.2024) rotate(147.991)"/>
</clipPath>
</defs>
</svg>
