<svg width="1403" height="764" viewBox="0 0 1403 764" fill="none" xmlns="http://www.w3.org/2000/svg">
<path d="M1282 664.953H82V51L1282 664.953Z" fill="#FC6736"/>
<g filter="url(#filter0_d_156_758)">
<path d="M355.191 435H332.842C332.194 435 331.871 434.676 331.871 434.028L332.259 297.313C332.259 296.795 332.518 296.536 333.037 296.536H371.321C383.499 296.536 393.119 300.26 400.18 307.71C407.305 315.095 410.868 325.168 410.868 337.929C410.868 347.257 409.022 355.387 405.33 362.318C401.572 369.185 396.714 374.497 390.754 378.254C384.795 382.011 378.317 383.89 371.321 383.89H356.163V434.028C356.163 434.676 355.839 435 355.191 435ZM371.321 320.147L356.163 320.342V359.792H371.321C375.531 359.792 379.191 357.784 382.301 353.768C385.41 349.687 386.965 344.407 386.965 337.929C386.965 332.747 385.572 328.504 382.787 325.2C380.001 321.832 376.179 320.147 371.321 320.147ZM459.646 436.943C452.586 436.943 446.075 435.13 440.116 431.502C434.221 427.874 429.46 423.048 425.832 417.024C422.269 410.935 420.488 404.263 420.488 397.007L420.682 333.945C420.682 326.561 422.464 319.921 426.026 314.026C429.524 308.066 434.253 303.305 440.213 299.742C446.173 296.115 452.65 294.301 459.646 294.301C466.902 294.301 473.412 296.082 479.177 299.645C485.007 303.208 489.671 308.001 493.169 314.026C496.732 319.986 498.514 326.625 498.514 333.945L498.708 397.007C498.708 404.263 496.959 410.902 493.461 416.927C489.898 423.016 485.169 427.874 479.274 431.502C473.38 435.13 466.837 436.943 459.646 436.943ZM459.646 412.943C463.663 412.943 467.161 411.323 470.141 408.084C473.12 404.781 474.61 401.088 474.61 397.007L474.416 333.945C474.416 329.54 473.023 325.816 470.238 322.771C467.452 319.726 463.922 318.204 459.646 318.204C455.565 318.204 452.067 319.694 449.152 322.674C446.237 325.654 444.78 329.411 444.78 333.945V397.007C444.78 401.347 446.237 405.105 449.152 408.279C452.067 411.388 455.565 412.943 459.646 412.943ZM537.089 435H514.546C514.028 435 513.769 434.676 513.769 434.028L514.158 297.313C514.158 296.795 514.417 296.536 514.935 296.536H555.163C562.353 296.536 568.96 298.285 574.985 301.783C581.009 305.281 585.803 309.977 589.366 315.872C592.993 321.767 594.807 328.439 594.807 335.889C594.807 340.747 594.062 345.152 592.572 349.104C591.082 353.055 589.333 356.391 587.325 359.112C585.382 361.833 583.6 363.841 581.981 365.136C589.171 373.104 592.767 382.465 592.767 393.218L592.961 434.028C592.961 434.676 592.637 435 591.989 435H569.446C568.928 435 568.669 434.806 568.669 434.417V393.218C568.669 388.424 566.985 384.278 563.616 380.78C560.248 377.282 556.102 375.533 551.179 375.533H538.061L537.867 434.028C537.867 434.676 537.608 435 537.089 435ZM555.163 320.342H538.061V351.63H555.163C559.244 351.63 562.871 350.108 566.045 347.063C569.284 344.018 570.904 340.294 570.904 335.889C570.904 331.678 569.349 328.05 566.24 325.006C563.13 321.896 559.438 320.342 555.163 320.342ZM648.152 435H625.707C625.124 435 624.832 434.676 624.832 434.028V320.536H598.985C598.338 320.536 598.014 320.212 598.014 319.564L598.208 297.313C598.208 296.795 598.467 296.536 598.985 296.536H674.582C675.295 296.536 675.651 296.795 675.651 297.313V319.564C675.651 320.212 675.392 320.536 674.874 320.536H648.735L648.93 434.028C648.93 434.676 648.671 435 648.152 435ZM708.688 435H686.339C685.692 435 685.368 434.676 685.368 434.028L685.756 297.313C685.756 296.795 686.015 296.536 686.534 296.536H750.276C750.924 296.536 751.248 296.795 751.248 297.313V319.759C751.248 320.277 750.988 320.536 750.47 320.536H709.66V351.436H750.47C750.988 351.436 751.248 351.759 751.248 352.407L751.442 374.95C751.442 375.468 751.118 375.728 750.47 375.728H709.66V434.028C709.66 434.676 709.336 435 708.688 435ZM805.953 436.943C798.892 436.943 792.382 435.13 786.422 431.502C780.528 427.874 775.766 423.048 772.139 417.024C768.576 410.935 766.794 404.263 766.794 397.007L766.989 333.945C766.989 326.561 768.77 319.921 772.333 314.026C775.831 308.066 780.56 303.305 786.52 299.742C792.479 296.115 798.957 294.301 805.953 294.301C813.208 294.301 819.719 296.082 825.484 299.645C831.314 303.208 835.978 308.001 839.476 314.026C843.039 319.986 844.82 326.625 844.82 333.945L845.015 397.007C845.015 404.263 843.266 410.902 839.768 416.927C836.205 423.016 831.476 427.874 825.581 431.502C819.686 435.13 813.144 436.943 805.953 436.943ZM805.953 412.943C809.969 412.943 813.467 411.323 816.447 408.084C819.427 404.781 820.917 401.088 820.917 397.007L820.723 333.945C820.723 329.54 819.33 325.816 816.544 322.771C813.759 319.726 810.229 318.204 805.953 318.204C801.872 318.204 798.374 319.694 795.459 322.674C792.544 325.654 791.086 329.411 791.086 333.945V397.007C791.086 401.347 792.544 405.105 795.459 408.279C798.374 411.388 801.872 412.943 805.953 412.943ZM925.178 435H860.853C860.335 435 860.076 434.676 860.076 434.028L860.27 297.507C860.27 296.86 860.594 296.536 861.242 296.536H883.396C884.044 296.536 884.368 296.86 884.368 297.507L884.173 410.514H925.178C925.826 410.514 926.15 410.838 926.15 411.485V434.028C926.15 434.676 925.826 435 925.178 435ZM962.685 435H940.142C939.494 435 939.17 434.676 939.17 434.028L939.365 297.313C939.365 296.795 939.624 296.536 940.142 296.536H962.491C963.009 296.536 963.268 296.795 963.268 297.313L963.462 434.028C963.462 434.676 963.203 435 962.685 435ZM1017.78 436.943C1010.72 436.943 1004.21 435.13 998.249 431.502C992.354 427.874 987.592 423.048 983.965 417.024C980.402 410.935 978.621 404.263 978.621 397.007L978.815 333.945C978.815 326.561 980.596 319.921 984.159 314.026C987.657 308.066 992.386 303.305 998.346 299.742C1004.31 296.115 1010.78 294.301 1017.78 294.301C1025.03 294.301 1031.54 296.082 1037.31 299.645C1043.14 303.208 1047.8 308.001 1051.3 314.026C1054.87 319.986 1056.65 326.625 1056.65 333.945L1056.84 397.007C1056.84 404.263 1055.09 410.902 1051.59 416.927C1048.03 423.016 1043.3 427.874 1037.41 431.502C1031.51 435.13 1024.97 436.943 1017.78 436.943ZM1017.78 412.943C1021.8 412.943 1025.29 411.323 1028.27 408.084C1031.25 404.781 1032.74 401.088 1032.74 397.007L1032.55 333.945C1032.55 329.54 1031.16 325.816 1028.37 322.771C1025.59 319.726 1022.05 318.204 1017.78 318.204C1013.7 318.204 1010.2 319.694 1007.29 322.674C1004.37 325.654 1002.91 329.411 1002.91 333.945V397.007C1002.91 401.347 1004.37 405.105 1007.29 408.279C1010.2 411.388 1013.7 412.943 1017.78 412.943Z" fill="#F5F5F5"/>
</g>
<rect x="3" y="3" width="1397" height="758" rx="27" stroke="#FC6736" stroke-width="6"/>
<defs>
<filter id="filter0_d_156_758" x="327.871" y="294.301" width="732.97" height="150.643" filterUnits="userSpaceOnUse" color-interpolation-filters="sRGB">
<feFlood flood-opacity="0" result="BackgroundImageFix"/>
<feColorMatrix in="SourceAlpha" type="matrix" values="0 0 0 0 0 0 0 0 0 0 0 0 0 0 0 0 0 0 127 0" result="hardAlpha"/>
<feOffset dy="4"/>
<feGaussianBlur stdDeviation="2"/>
<feComposite in2="hardAlpha" operator="out"/>
<feColorMatrix type="matrix" values="0 0 0 0 0 0 0 0 0 0 0 0 0 0 0 0 0 0 0.25 0"/>
<feBlend mode="normal" in2="BackgroundImageFix" result="effect1_dropShadow_156_758"/>
<feBlend mode="normal" in="SourceGraphic" in2="effect1_dropShadow_156_758" result="shape"/>
</filter>
</defs>
</svg>
