<svg width="120" height="100" viewBox="0 0 120 100" fill="none" xmlns="http://www.w3.org/2000/svg">
<rect width="120" height="10" fill="#756666"/>
<path d="M38 10C38 11.7486 37.4922 13.2899 36.7218 14.3685C35.95 15.449 34.9739 16 34 16C33.0261 16 32.05 15.449 31.2782 14.3685C30.5078 13.2899 30 11.7486 30 10C30 8.2514 30.5078 6.71008 31.2782 5.63149C32.05 4.55098 33.0261 4 34 4C34.9739 4 35.95 4.55098 36.7218 5.63149C37.4922 6.71008 38 8.2514 38 10Z" stroke="#756666" stroke-width="2"/>
<path d="M38 22C38 23.7486 37.4922 25.2899 36.7218 26.3685C35.95 27.449 34.9739 28 34 28C33.0261 28 32.05 27.449 31.2782 26.3685C30.5078 25.2899 30 23.7486 30 22C30 20.2514 30.5078 18.7101 31.2782 17.6315C32.05 16.551 33.0261 16 34 16C34.9739 16 35.95 16.551 36.7218 17.6315C37.4922 18.7101 38 20.2514 38 22Z" stroke="#756666" stroke-width="2"/>
<path d="M38 34C38 35.7486 37.4922 37.2899 36.7218 38.3685C35.95 39.449 34.9739 40 34 40C33.0261 40 32.05 39.449 31.2782 38.3685C30.5078 37.2899 30 35.7486 30 34C30 32.2514 30.5078 30.7101 31.2782 29.6315C32.05 28.551 33.0261 28 34 28C34.9739 28 35.95 28.551 36.7218 29.6315C37.4922 30.7101 38 32.2514 38 34Z" stroke="#756666" stroke-width="2"/>
<path d="M64 67C64 68.7486 63.4922 70.2899 62.7218 71.3685C61.95 72.449 60.9739 73 60 73C59.0261 73 58.05 72.449 57.2782 71.3685C56.5078 70.2899 56 68.7486 56 67C56 65.2514 56.5078 63.7101 57.2782 62.6315C58.05 61.551 59.0261 61 60 61C60.9739 61 61.95 61.551 62.7218 62.6315C63.4922 63.7101 64 65.2514 64 67Z" stroke="#D9D9D9" stroke-width="2"/>
<path d="M89 10C89 11.7486 88.4922 13.2899 87.7218 14.3685C86.95 15.449 85.9739 16 85 16C84.0261 16 83.05 15.449 82.2782 14.3685C81.5078 13.2899 81 11.7486 81 10C81 8.2514 81.5078 6.71008 82.2782 5.63149C83.05 4.55098 84.0261 4 85 4C85.9739 4 86.95 4.55098 87.7218 5.63149C88.4922 6.71008 89 8.2514 89 10Z" stroke="#756666" stroke-width="2"/>
<path d="M89 22C89 23.7486 88.4922 25.2899 87.7218 26.3685C86.95 27.449 85.9739 28 85 28C84.0261 28 83.05 27.449 82.2782 26.3685C81.5078 25.2899 81 23.7486 81 22C81 20.2514 81.5078 18.7101 82.2782 17.6315C83.05 16.551 84.0261 16 85 16C85.9739 16 86.95 16.551 87.7218 17.6315C88.4922 18.7101 89 20.2514 89 22Z" stroke="#756666" stroke-width="2"/>
<path d="M89 34C89 35.7486 88.4922 37.2899 87.7218 38.3685C86.95 39.449 85.9739 40 85 40C84.0261 40 83.05 39.449 82.2782 38.3685C81.5078 37.2899 81 35.7486 81 34C81 32.2514 81.5078 30.7101 82.2782 29.6315C83.05 28.551 84.0261 28 85 28C85.9739 28 86.95 28.551 87.7218 29.6315C88.4922 30.7101 89 32.2514 89 34Z" stroke="#756666" stroke-width="2"/>
<g filter="url(#filter0_dd_139_841)">
<rect x="15" y="36" width="90" height="32" rx="5" fill="#FC6736"/>
</g>
<mask id="path-10-inside-1_139_841" fill="white">
<path d="M61 84C59.4177 84 57.871 84.4692 56.5554 85.3482C55.2398 86.2273 54.2145 87.4767 53.609 88.9385C53.0035 90.4003 52.845 92.0089 53.1537 93.5607C53.4624 95.1126 54.2243 96.538 55.3431 97.6569C56.462 98.7757 57.8874 99.5376 59.4393 99.8463C60.9911 100.155 62.5997 99.9965 64.0615 99.391C65.5233 98.7855 66.7727 97.7602 67.6518 96.4446C68.5308 95.129 69 93.5823 69 92H61L61 84Z"/>
</mask>
<path d="M61 84C59.4177 84 57.871 84.4692 56.5554 85.3482C55.2398 86.2273 54.2145 87.4767 53.609 88.9385C53.0035 90.4003 52.845 92.0089 53.1537 93.5607C53.4624 95.1126 54.2243 96.538 55.3431 97.6569C56.462 98.7757 57.8874 99.5376 59.4393 99.8463C60.9911 100.155 62.5997 99.9965 64.0615 99.391C65.5233 98.7855 66.7727 97.7602 67.6518 96.4446C68.5308 95.129 69 93.5823 69 92H61L61 84Z" stroke="#D9D9D9" stroke-width="4" mask="url(#path-10-inside-1_139_841)"/>
<path d="M64 79C64 80.7486 63.4922 82.2899 62.7218 83.3685C61.95 84.449 60.9739 85 60 85C59.0261 85 58.05 84.449 57.2782 83.3685C56.5078 82.2899 56 80.7486 56 79C56 77.2514 56.5078 75.7101 57.2782 74.6315C58.05 73.551 59.0261 73 60 73C60.9739 73 61.95 73.551 62.7218 74.6315C63.4922 75.7101 64 77.2514 64 79Z" stroke="#D9D9D9" stroke-width="2"/>
<circle cx="60" cy="52" r="7" stroke="#D9D9D9" stroke-width="2"/>
<circle cx="60" cy="52" r="2" stroke="#D9D9D9" stroke-width="2"/>
<circle cx="60" cy="65" r="2" fill="#756666"/>
<circle cx="70" cy="65" r="2" fill="#756666"/>
<circle cx="80" cy="65" r="2" fill="#756666"/>
<circle cx="90" cy="65" r="2" fill="#756666"/>
<circle cx="29" cy="65" r="2" fill="#756666"/>
<circle cx="39" cy="65" r="2" fill="#756666"/>
<circle cx="49" cy="65" r="2" fill="#756666"/>
<circle cx="60" cy="39" r="2" fill="#756666"/>
<circle cx="70" cy="39" r="2" fill="#756666"/>
<circle cx="80" cy="39" r="2" fill="#756666"/>
<circle cx="90" cy="39" r="2" fill="#756666"/>
<circle cx="101" cy="52" r="2" fill="#756666"/>
<circle cx="19" cy="52" r="2" fill="#756666"/>
<circle cx="29" cy="39" r="2" fill="#756666"/>
<circle cx="39" cy="39" r="2" fill="#756666"/>
<circle cx="49" cy="39" r="2" fill="#756666"/>
<defs>
<filter id="filter0_dd_139_841" x="11" y="28" width="98" height="48" filterUnits="userSpaceOnUse" color-interpolation-filters="sRGB">
<feFlood flood-opacity="0" result="BackgroundImageFix"/>
<feColorMatrix in="SourceAlpha" type="matrix" values="0 0 0 0 0 0 0 0 0 0 0 0 0 0 0 0 0 0 127 0" result="hardAlpha"/>
<feOffset dy="-4"/>
<feGaussianBlur stdDeviation="2"/>
<feComposite in2="hardAlpha" operator="out"/>
<feColorMatrix type="matrix" values="0 0 0 0 0 0 0 0 0 0 0 0 0 0 0 0 0 0 0.25 0"/>
<feBlend mode="normal" in2="BackgroundImageFix" result="effect1_dropShadow_139_841"/>
<feColorMatrix in="SourceAlpha" type="matrix" values="0 0 0 0 0 0 0 0 0 0 0 0 0 0 0 0 0 0 127 0" result="hardAlpha"/>
<feOffset dy="4"/>
<feGaussianBlur stdDeviation="2"/>
<feComposite in2="hardAlpha" operator="out"/>
<feColorMatrix type="matrix" values="0 0 0 0 0 0 0 0 0 0 0 0 0 0 0 0 0 0 0.25 0"/>
<feBlend mode="normal" in2="effect1_dropShadow_139_841" result="effect2_dropShadow_139_841"/>
<feBlend mode="normal" in="SourceGraphic" in2="effect2_dropShadow_139_841" result="shape"/>
</filter>
</defs>
</svg>
