<?xml version="1.0" encoding="UTF-8" standalone="no"?>
<svg
   xmlns:dc="http://purl.org/dc/elements/1.1/"
   xmlns:cc="http://creativecommons.org/ns#"
   xmlns:rdf="http://www.w3.org/1999/02/22-rdf-syntax-ns#"
   xmlns:svg="http://www.w3.org/2000/svg"
   xmlns="http://www.w3.org/2000/svg"
   xmlns:sodipodi="http://sodipodi.sourceforge.net/DTD/sodipodi-0.dtd"
   xmlns:inkscape="http://www.inkscape.org/namespaces/inkscape"
   width="64pt"
   height="64pt"
   viewBox="0 0 22.577778 22.577778"
   version="1.1"
   id="svg831"
   inkscape:version="1.0 (4035a4fb49, 2020-05-01)"
   sodipodi:docname="1. children toy airplane.svg">
  <defs
     id="defs825">
    <pattern
       id="EMFhbasepattern"
       patternUnits="userSpaceOnUse"
       width="6"
       height="6"
       x="0"
       y="0" />
    <pattern
       id="EMFhbasepattern-9"
       patternUnits="userSpaceOnUse"
       width="6"
       height="6"
       x="0"
       y="0" />
    <pattern
       id="EMFhbasepattern-0"
       patternUnits="userSpaceOnUse"
       width="6"
       height="6"
       x="0"
       y="0" />
    <pattern
       id="EMFhbasepattern-7"
       patternUnits="userSpaceOnUse"
       width="6"
       height="6"
       x="0"
       y="0" />
    <pattern
       id="EMFhbasepattern-2"
       patternUnits="userSpaceOnUse"
       width="6"
       height="6"
       x="0"
       y="0" />
    <pattern
       id="EMFhbasepattern-98"
       patternUnits="userSpaceOnUse"
       width="6"
       height="6"
       x="0"
       y="0" />
    <pattern
       id="EMFhbasepattern-6"
       patternUnits="userSpaceOnUse"
       width="6"
       height="6"
       x="0"
       y="0" />
    <pattern
       id="EMFhbasepattern-01"
       patternUnits="userSpaceOnUse"
       width="6"
       height="6"
       x="0"
       y="0" />
    <pattern
       id="EMFhbasepattern-07"
       patternUnits="userSpaceOnUse"
       width="6"
       height="6"
       x="0"
       y="0" />
    <pattern
       id="EMFhbasepattern-8"
       patternUnits="userSpaceOnUse"
       width="6"
       height="6"
       x="0"
       y="0" />
    <pattern
       id="EMFhbasepattern-4"
       patternUnits="userSpaceOnUse"
       width="6"
       height="6"
       x="0"
       y="0" />
    <pattern
       id="EMFhbasepattern-40"
       patternUnits="userSpaceOnUse"
       width="6"
       height="6"
       x="0"
       y="0" />
    <pattern
       id="EMFhbasepattern-08"
       patternUnits="userSpaceOnUse"
       width="6"
       height="6"
       x="0"
       y="0" />
    <pattern
       id="EMFhbasepattern-04"
       patternUnits="userSpaceOnUse"
       width="6"
       height="6"
       x="0"
       y="0" />
    <pattern
       id="EMFhbasepattern-014"
       patternUnits="userSpaceOnUse"
       width="6"
       height="6"
       x="0"
       y="0" />
    <pattern
       id="EMFhbasepattern-27"
       patternUnits="userSpaceOnUse"
       width="6"
       height="6"
       x="0"
       y="0" />
    <pattern
       id="EMFhbasepattern-09"
       patternUnits="userSpaceOnUse"
       width="6"
       height="6"
       x="0"
       y="0" />
    <pattern
       id="EMFhbasepattern-5"
       patternUnits="userSpaceOnUse"
       width="6"
       height="6"
       x="0"
       y="0" />
    <pattern
       id="EMFhbasepattern-018"
       patternUnits="userSpaceOnUse"
       width="6"
       height="6"
       x="0"
       y="0" />
  </defs>
  <sodipodi:namedview
     id="base"
     pagecolor="#ffffff"
     bordercolor="#666666"
     borderopacity="1.0"
     inkscape:pageopacity="0.0"
     inkscape:pageshadow="2"
     inkscape:zoom="6.2578125"
     inkscape:cx="42.666667"
     inkscape:cy="42.666667"
     inkscape:document-units="pt"
     inkscape:current-layer="layer1"
     showgrid="false"
     units="pt"
     inkscape:window-width="1366"
     inkscape:window-height="705"
     inkscape:window-x="-8"
     inkscape:window-y="-8"
     inkscape:window-maximized="1"
     inkscape:pagecheckerboard="true"
     inkscape:showpageshadow="false"
     inkscape:object-paths="true"
     inkscape:snap-intersection-paths="true"
     inkscape:snap-smooth-nodes="true"
     inkscape:snap-midpoints="true"
     showguides="true"
     inkscape:snap-bbox="true"
     inkscape:bbox-nodes="true"
     inkscape:snap-nodes="false"
     inkscape:snap-global="true"
     inkscape:document-rotation="0">
    <inkscape:grid
       type="xygrid"
       id="grid1378" />
    <sodipodi:guide
       position="0.97013831,21.607643"
       orientation="78.000048,0"
       id="guide1380"
       inkscape:locked="false" />
    <sodipodi:guide
       position="0.97013831,0.97013129"
       orientation="0,78.000005"
       id="guide1382"
       inkscape:locked="false" />
    <sodipodi:guide
       position="21.607639,0.97013129"
       orientation="-78.000048,0"
       id="guide1384"
       inkscape:locked="false" />
    <sodipodi:guide
       position="21.607639,21.607643"
       orientation="0,-78.000005"
       id="guide1386"
       inkscape:locked="false" />
  </sodipodi:namedview>
  <metadata
     id="metadata828">
    <rdf:RDF>
      <cc:Work
         rdf:about="">
        <dc:format>image/svg+xml</dc:format>
        <dc:type
           rdf:resource="http://purl.org/dc/dcmitype/StillImage" />
        <dc:title></dc:title>
      </cc:Work>
    </rdf:RDF>
  </metadata>
  <g
     inkscape:label="Icon"
     inkscape:groupmode="layer"
     id="layer1"
     transform="translate(0,-274.42223)">
    <path
       sodipodi:nodetypes="sccccccccccccccccccccccccccccsccccccccccccsssccscccccccssscccccccccccccsccccscccccccsccccccccccccccsccccccscccccccccscsssssscscsccc"
       d="m 18.207287,286.97648 c 0.05857,-0.12468 0.10837,-0.2575 0.153587,-0.39439 l 0.653413,2.02532 c 0.283272,0.76194 0.855182,1.34698 1.492956,1.66673 0.297922,0.14299 0.634088,0.0705 0.846049,-0.11977 0.21196,-0.19036 0.320225,-0.51749 0.211513,-0.82783 l -1.554781,-4.31356 c 0.174076,-0.0842 0.344246,-0.1762 0.504376,-0.287 0.481817,-0.33295 0.371147,-1.11998 -0.184177,-1.30616 -0.192132,-0.0643 -0.389606,-0.10718 -0.588331,-0.13928 l -1.03804,-3.21825 c -0.283269,-0.76195 -0.85518,-1.34698 -1.492955,-1.66673 -0.317055,-0.1485 -0.680738,-0.0962 -0.84605,0.11977 -0.21196,0.19035 -0.320225,0.51678 -0.211513,0.82586 l 0.832385,2.3644 c -0.323437,-0.19103 -0.684758,-0.28862 -1.07123,-0.24275 l -3.609381,1.11874 c -0.450387,0.11762 -1.01643,0.26684 -1.379066,0.74518 l -0.673586,0.88769 c -0.07624,0.0584 -0.3315045,0.17007 -0.6006979,0.22649 -0.2681438,0.0561 -0.5505226,0.0596 -0.6690301,0.0391 l -0.6833482,-0.3599 c -0.5407028,-0.12064 -1.0540087,-0.1078 -1.5450193,0.0208 l -1.8905986,0.49527 -1.4740779,-2.45876 c -0.1406663,-0.23469 -0.4256007,-0.32942 -0.6547153,-0.27268 -0.2291143,0.0567 -0.4371532,0.27288 -0.4523111,0.54602 l -0.1301599,2.34617 c -0.01,0.17989 0.018493,0.35427 0.077445,0.51479 -0.795718,0.23487 -1.3475835,1.03238 -1.24825249,1.90101 0.0816217,0.71375 0.57805939,1.28239 1.22352119,1.48904 l 0.077445,1.39599 c 0.015163,0.27315 0.2231932,0.48929 0.4523111,0.54602 0.2291179,0.0567 0.5140524,-0.038 0.6547152,-0.27267 l 0.9931305,-1.65761 3.5566678,-0.15165 0.1581466,2.86422 c 0.019459,0.35072 0.2815556,0.61905 0.5727112,0.69115 0.2911588,0.0721 0.6485341,-0.043 0.8291293,-0.34428 l 1.9960309,-3.33278 2.63187,-0.11587 0.834984,1.64005 c -0.401162,0.32567 -0.663822,0.81592 -0.663822,1.3706 0,0.9765 0.7974,1.77605 1.773451,1.77605 0.976053,0 1.77345,-0.79955 1.773453,-1.77605 0,-0.81078 -0.550498,-1.49593 -1.295757,-1.70578 l 0.149033,-1.41842 c 0.681634,-0.0777 1.199159,-0.57565 1.508574,-1.23428 z m -1.28925,-7.9815 c 0.480482,0.24182 0.944197,0.71637 1.159087,1.2938 l 0.948225,2.94166 c -0.271959,0.009 -0.494418,0.0461 -0.768604,0.0846 l -1.473427,-4.19513 c -0.07166,-0.21224 0.02636,-0.20059 0.134719,-0.12493 z m -0.749733,3.12453 c 0.330309,0.0181 0.673689,0.22046 0.983372,0.61371 0.356364,0.45253 0.638404,1.1355 0.728251,1.92119 0.08986,0.78567 -0.03028,1.51485 -0.275292,2.03637 -0.244335,0.52009 -0.588785,0.80976 -0.961894,0.85386 l -4.735931,0.20956 0.502427,-0.83889 c 0.413611,-0.69007 -0.190826,-1.59134 -0.985978,-1.46888 l -1.9706461,0.30262 c -0.9359011,0.14414 -1.6144278,0.98243 -1.5619399,1.92837 l 0.012367,0.21865 -3.1102145,0.13407 0.4191229,-0.69962 c 0.3086926,-0.51499 -0.1490098,-1.19779 -0.7425736,-1.10637 l -1.234584,0.18939 c -0.6482509,0.0999 -1.118652,0.68303 -1.0822918,1.33806 l 0.011057,0.20176 c -0.2781732,-0.17226 -0.4802275,-0.46332 -0.5206463,-0.81677 -0.070061,-0.61271 0.3628032,-1.15754 0.9976889,-1.23264 l 4.2810179,-1.11938 c 0.381863,-0.1 0.7811998,-0.10667 1.1681977,-0.0294 l 0.6892062,0.36251 c 0.3366159,0.0776 0.6712692,0.0458 1.0107074,-0.0255 0.3394382,-0.0712 0.6628892,-0.16979 0.9345612,-0.40481 l 0.73346,-0.96059 c 0.188257,-0.24832 0.585134,-0.38841 1.025673,-0.50437 1.214148,-0.34894 2.487194,-0.76158 3.684879,-1.10313 z m -13.2341866,0.59158 1.2567092,2.10146 -1.3022662,0.34167 c -0.050462,-0.0955 -0.078681,-0.2041 -0.072241,-0.32021 z m 17.1845906,1.34066 c 0.07404,0.0248 0.08133,0.0811 0.01693,0.12556 -0.393206,0.27207 -0.842751,0.44945 -1.315934,0.51674 l -0.265533,0.0372 c -0.01399,-0.25973 -0.07456,-0.53825 -0.120398,-0.76732 l 0.275296,-0.0396 c 0.472579,-0.0627 1.004252,-0.005 1.409648,0.12755 z m -0.732158,1.2001 1.548272,4.29793 c 0.07217,0.12886 -0.0593,0.17897 -0.135368,0.12493 -0.480485,-0.24184 -0.943549,-0.71638 -1.158439,-1.2938 l -0.965147,-2.99436 c 0.242537,-0.024 0.501694,-0.0851 0.710682,-0.13473 z m -7.762188,0.85124 c 0.221833,0.0248 0.343206,0.25451 0.214112,0.4699 l -2.9123658,4.85827 c -0.093119,0.11738 -0.1582698,0.0655 -0.1620519,-0.0417 L 8.555148,287.6409 c -0.033829,-0.60953 0.3960914,-1.13989 0.9983387,-1.23262 l 1.9706503,-0.30263 c 0.03535,-0.005 0.06853,-0.006 0.100224,-0.003 z m -7.0541147,0.78034 c 0.081258,-0.0126 0.1115794,0.0343 0.068988,0.10541 l -1.7044688,2.84859 -0.118447,-2.12295 c -0.017693,-0.31866 0.2047499,-0.59325 0.5193471,-0.64169 z m 11.4483707,1.35757 -0.132115,1.33091 c -0.116859,0.0126 -0.229962,0.0356 -0.339072,0.0697 l -0.686601,-1.34978 z m 0.05336,1.98758 c 0.615513,0 1.107022,0.48962 1.107026,1.10637 -4e-6,0.61671 -0.491513,1.10964 -1.107026,1.10964 -0.615508,0 -1.107023,-0.49293 -1.107023,-1.10964 0,-0.61675 0.491515,-1.10637 1.107023,-1.10637 z m 0,0.77446 c -0.184281,-7.4e-4 -0.334153,0.14827 -0.334513,0.33256 -6.68e-4,0.18504 0.149466,0.33523 0.334513,0.33453 0.18403,-7.6e-4 0.332633,-0.15049 0.331915,-0.33453 -3.35e-4,-0.18326 -0.148647,-0.33186 -0.331915,-0.33256 z"
       style="color:#000000;font-style:normal;font-variant:normal;font-weight:normal;font-stretch:normal;font-size:medium;line-height:normal;font-family:sans-serif;font-variant-ligatures:normal;font-variant-position:normal;font-variant-caps:normal;font-variant-numeric:normal;font-variant-alternates:normal;font-variant-east-asian:normal;font-feature-settings:normal;font-variation-settings:normal;text-indent:0;text-align:start;text-decoration:none;text-decoration-line:none;text-decoration-style:solid;text-decoration-color:#000000;letter-spacing:normal;word-spacing:normal;text-transform:none;writing-mode:lr-tb;direction:ltr;text-orientation:mixed;dominant-baseline:auto;baseline-shift:baseline;text-anchor:start;white-space:normal;shape-padding:0;shape-margin:0;inline-size:0;clip-rule:nonzero;display:inline;overflow:visible;visibility:visible;isolation:auto;mix-blend-mode:normal;color-interpolation:sRGB;color-interpolation-filters:linearRGB;solid-color:#000000;solid-opacity:1;vector-effect:none;fill:#FFF;fill-opacity:1;fill-rule:nonzero;stroke:none;stroke-width:0.529167;stroke-linecap:round;stroke-linejoin:round;stroke-miterlimit:4;stroke-dasharray:none;stroke-dashoffset:0;stroke-opacity:1;color-rendering:auto;image-rendering:auto;shape-rendering:auto;text-rendering:auto;enable-background:accumulate;stop-color:#000000"
       id="path365" />
  </g>
</svg>
