<svg width="1019" height="436" viewBox="0 0 1019 436" fill="none" xmlns="http://www.w3.org/2000/svg">
<mask id="path-1-inside-1_69_2794" fill="white">
<path d="M421.001 39.0001C421.001 22.4315 434.432 9.00006 451.001 9.00006H566.001C582.57 9.00006 596.001 22.4315 596.001 39.0001V89.0001H421.001V39.0001Z"/>
</mask>
<path d="M407.001 39.0001C407.001 14.6995 426.7 -4.99994 451.001 -4.99994H566.001C590.302 -4.99994 610.001 14.6995 610.001 39.0001H582.001C582.001 30.1635 574.838 23.0001 566.001 23.0001H451.001C442.164 23.0001 435.001 30.1635 435.001 39.0001H407.001ZM596.001 89.0001H421.001H596.001ZM407.001 89.0001V39.0001C407.001 14.6995 426.7 -4.99994 451.001 -4.99994V23.0001C442.164 23.0001 435.001 30.1635 435.001 39.0001V89.0001H407.001ZM566.001 -4.99994C590.302 -4.99994 610.001 14.6995 610.001 39.0001V89.0001H582.001V39.0001C582.001 30.1635 574.838 23.0001 566.001 23.0001V-4.99994Z" fill="#FC6736" mask="url(#path-1-inside-1_69_2794)"/>
<circle cx="770.002" cy="187" r="4" fill="#FC6736"/>
<circle cx="248.001" cy="187" r="4" fill="#FC6736"/>
<path d="M248.856 108.999C248.981 97.9538 258.036 89.0001 269.082 89.0001H507.649L506.568 184.721H248.001L248.856 108.999Z" fill="#FC6736"/>
<path d="M511.082 89.0001H748.568C759.613 89.0001 768.669 97.9538 768.794 108.999L769.649 184.721H511.082L511.082 89.0001Z" fill="#FC6736"/>
<path d="M248.001 187H770.001V416C770.001 427.046 761.047 436 750.001 436H268.001C256.955 436 248.001 427.046 248.001 416V187Z" fill="#FC6736"/>
<rect x="399.001" y="164" width="20" height="50" rx="5" fill="#0C2D57"/>
<rect x="599.002" y="164" width="20" height="50" rx="5" fill="#0C2D57"/>
<path d="M379.441 230.442L655.026 256.966C659.149 257.363 662.108 261.02 661.636 265.136L646.145 400.104C645.672 404.219 641.947 407.233 637.824 406.836L362.24 380.312C358.117 379.915 355.157 376.258 355.629 372.143L371.121 237.174C371.593 233.059 375.318 230.045 379.441 230.442Z" fill="#0C2D57" stroke="white" stroke-width="5"/>
<path d="M427.354 266.972L434.118 267.623C435.243 267.731 436.265 267.985 437.186 268.385C438.116 268.786 438.834 269.368 439.34 270.129C439.858 270.882 440.048 271.855 439.911 273.047C439.821 273.832 439.591 274.518 439.222 275.105C438.863 275.693 438.416 276.163 437.883 276.513C437.361 276.855 436.809 277.063 436.226 277.137C436.717 277.245 437.183 277.435 437.625 277.709C438.078 277.973 438.47 278.322 438.803 278.756C439.147 279.181 439.395 279.697 439.546 280.304C439.709 280.902 439.745 281.599 439.654 282.394C439.527 283.497 439.166 284.446 438.572 285.243C437.988 286.03 437.196 286.617 436.196 287.003C435.207 287.38 434.03 287.503 432.667 287.371L425.097 286.643L427.354 266.972ZM429.97 283.511L432 283.706C432.637 283.768 433.166 283.723 433.586 283.573C434.017 283.413 434.347 283.164 434.577 282.824C434.809 282.475 434.953 282.047 435.012 281.54C435.103 280.745 434.921 280.14 434.465 279.725C434.021 279.3 433.355 279.045 432.47 278.96L430.514 278.772L429.97 283.511ZM430.914 275.285L432.721 275.459C433.248 275.509 433.697 275.457 434.067 275.302C434.447 275.148 434.746 274.91 434.964 274.59C435.193 274.26 435.333 273.872 435.384 273.425C435.477 272.62 435.31 272.057 434.884 271.735C434.459 271.402 433.849 271.198 433.052 271.121L431.41 270.963L430.914 275.285ZM447.873 289.197C446.529 289.067 445.366 288.679 444.384 288.032C443.412 287.376 442.683 286.537 442.197 285.516C441.721 284.486 441.555 283.345 441.699 282.093C441.842 280.842 442.264 279.757 442.963 278.84C443.673 277.914 444.578 277.218 445.678 276.751C446.788 276.285 448.015 276.117 449.359 276.247C450.703 276.376 451.855 276.773 452.815 277.438C453.776 278.103 454.488 278.955 454.952 279.994C455.418 281.023 455.579 282.164 455.435 283.416C455.292 284.667 454.875 285.752 454.186 286.67C453.498 287.578 452.61 288.261 451.521 288.719C450.433 289.167 449.217 289.326 447.873 289.197ZM448.3 285.471C448.818 285.521 449.279 285.45 449.684 285.258C450.088 285.065 450.419 284.771 450.676 284.374C450.933 283.977 451.091 283.515 451.152 282.988C451.213 282.452 451.164 281.965 451.002 281.527C450.841 281.09 450.585 280.734 450.234 280.459C449.883 280.184 449.449 280.022 448.932 279.972C448.414 279.922 447.947 279.998 447.532 280.199C447.126 280.401 446.79 280.7 446.523 281.096C446.266 281.493 446.107 281.96 446.045 282.497C445.985 283.023 446.035 283.505 446.196 283.943C446.368 284.381 446.629 284.733 446.981 284.997C447.343 285.263 447.783 285.421 448.3 285.471ZM457.249 289.737L458.653 277.503L463.192 277.94L461.788 290.174L457.249 289.737ZM461.271 275.208C460.555 275.139 459.976 274.833 459.535 274.288C459.096 273.733 458.916 273.108 458.996 272.413C459.076 271.717 459.393 271.14 459.949 270.682C460.516 270.214 461.153 270.014 461.86 270.082C462.328 270.127 462.742 270.287 463.103 270.563C463.465 270.829 463.743 271.167 463.937 271.578C464.132 271.988 464.202 272.432 464.147 272.909C464.067 273.604 463.744 274.181 463.178 274.639C462.614 275.086 461.978 275.276 461.271 275.208ZM465.274 278.14L467.364 278.341L467.941 273.319L472.435 273.752L471.859 278.774L474.606 279.038L474.178 282.764L471.431 282.499L471.039 285.912C470.981 286.418 471.009 286.838 471.121 287.17C471.235 287.493 471.491 287.673 471.89 287.711C472.158 287.737 472.394 287.7 472.597 287.598C472.8 287.497 472.923 287.429 472.968 287.393L474.151 290.761C474.075 290.814 473.843 290.903 473.456 291.026C473.08 291.151 472.605 291.25 472.033 291.326C471.461 291.401 470.831 291.406 470.145 291.34C468.92 291.222 467.949 290.782 467.232 290.02C466.515 289.248 466.24 288.142 466.405 286.701L466.937 282.067L464.846 281.865L465.274 278.14ZM479.968 286.711C479.948 287.151 480.043 287.552 480.253 287.913C480.463 288.275 480.776 288.577 481.191 288.817C481.617 289.049 482.134 289.194 482.741 289.253C483.318 289.308 483.843 289.299 484.314 289.223C484.796 289.149 485.216 289.039 485.575 288.893C485.944 288.748 486.234 288.59 486.445 288.419L487.885 291.39C487.605 291.634 487.222 291.864 486.734 292.078C486.258 292.283 485.642 292.43 484.887 292.518C484.133 292.606 483.193 292.596 482.068 292.488C480.714 292.357 479.539 291.988 478.542 291.38C477.545 290.772 476.799 289.947 476.305 288.905C475.811 287.863 475.645 286.631 475.808 285.211C475.945 284.018 476.327 282.97 476.954 282.066C477.592 281.154 478.441 280.467 479.5 280.006C480.56 279.536 481.792 279.368 483.196 279.503C484.53 279.632 485.656 279.986 486.576 280.567C487.506 281.148 488.179 281.947 488.596 282.961C489.024 283.966 489.156 285.184 488.992 286.615C488.983 286.695 488.959 286.853 488.922 287.091C488.895 287.329 488.866 287.487 488.837 287.565L479.968 286.711ZM484.884 284.788C484.91 284.47 484.862 284.148 484.738 283.825C484.615 283.492 484.406 283.211 484.11 282.981C483.815 282.742 483.419 282.598 482.922 282.55C482.424 282.503 481.99 282.561 481.618 282.726C481.258 282.883 480.971 283.106 480.756 283.397C480.542 283.687 480.405 284.006 480.345 284.352L484.884 284.788ZM508.05 294.627L508.277 292.645C508.165 292.835 507.903 293.101 507.491 293.443C507.09 293.786 506.573 294.083 505.94 294.333C505.309 294.574 504.595 294.656 503.798 294.579C502.604 294.464 501.592 294.075 500.762 293.413C499.933 292.741 499.326 291.894 498.94 290.872C498.555 289.841 498.431 288.729 498.568 287.537C498.705 286.345 499.078 285.286 499.688 284.36C500.298 283.424 501.085 282.707 502.048 282.207C503.011 281.707 504.09 281.514 505.285 281.629C506.051 281.703 506.709 281.892 507.258 282.196C507.808 282.49 508.242 282.823 508.562 283.195C508.883 283.557 509.097 283.884 509.204 284.176L509.409 282.388L513.919 282.822L512.514 295.056L508.05 294.627ZM503.018 287.965C502.954 288.521 503.026 289.036 503.233 289.508C503.442 289.97 503.746 290.345 504.145 290.635C504.555 290.925 505.023 291.096 505.551 291.147C506.098 291.2 506.595 291.122 507.042 290.914C507.489 290.706 507.856 290.394 508.145 289.98C508.446 289.557 508.628 289.067 508.691 288.511C508.755 287.955 508.688 287.446 508.489 286.985C508.302 286.515 508.013 286.136 507.624 285.847C507.235 285.548 506.767 285.373 506.22 285.32C505.692 285.269 505.195 285.352 504.727 285.568C504.27 285.775 503.887 286.09 503.577 286.512C503.268 286.924 503.082 287.409 503.018 287.965ZM509.419 280.596L504.123 276.756L506.584 274.251L510.973 278.892L509.419 280.596ZM528.43 286.629C528.301 287.752 528.413 288.792 528.766 289.75C529.13 290.699 529.689 291.481 530.444 292.096C531.209 292.712 532.133 293.073 533.218 293.177C534.303 293.281 535.285 293.105 536.162 292.647C537.05 292.19 537.775 291.531 538.337 290.671C538.909 289.802 539.26 288.807 539.389 287.684C539.518 286.561 539.4 285.525 539.036 284.576C538.682 283.628 538.123 282.846 537.358 282.23C536.605 281.605 535.685 281.24 534.6 281.136C533.515 281.032 532.528 281.213 531.639 281.68C530.762 282.138 530.037 282.796 529.465 283.655C528.904 284.515 528.558 285.506 528.43 286.629ZM523.786 286.182C523.95 284.752 524.357 283.445 525.006 282.262C525.656 281.069 526.492 280.054 527.514 279.219C528.536 278.383 529.693 277.766 530.987 277.368C532.281 276.97 533.644 276.84 535.078 276.978C536.531 277.118 537.84 277.505 539.005 278.14C540.18 278.775 541.167 279.598 541.967 280.61C542.777 281.622 543.359 282.773 543.715 284.062C544.081 285.343 544.182 286.699 544.018 288.129C543.852 289.57 543.454 290.888 542.824 292.083C542.195 293.268 541.374 294.283 540.361 295.13C539.349 295.967 538.196 296.584 536.903 296.982C535.609 297.38 534.221 297.507 532.738 297.364C531.225 297.219 529.876 296.828 528.691 296.192C527.516 295.556 526.533 294.733 525.743 293.723C524.955 292.703 524.387 291.554 524.041 290.275C523.706 288.987 523.621 287.623 523.786 286.182ZM550.515 292.069C550.403 293.043 550.498 293.841 550.799 294.462C551.101 295.074 551.685 295.421 552.551 295.505C553.437 295.59 554.092 295.362 554.517 294.82C554.952 294.269 555.226 293.507 555.338 292.534L555.988 286.871L560.467 287.302L559.762 293.442C559.612 294.753 559.207 295.869 558.548 296.79C557.9 297.702 557.033 298.372 555.947 298.8C554.861 299.228 553.587 299.371 552.124 299.23C550.67 299.09 549.461 298.708 548.497 298.083C547.532 297.457 546.836 296.637 546.409 295.622C545.983 294.596 545.846 293.428 545.996 292.117L546.701 285.977L551.165 286.407L550.515 292.069ZM562.063 287.456L564.153 287.657L564.73 282.635L569.224 283.067L568.648 288.089L571.395 288.354L570.967 292.079L568.22 291.815L567.828 295.227C567.77 295.734 567.798 296.154 567.91 296.486C568.024 296.808 568.28 296.989 568.679 297.027C568.947 297.053 569.183 297.015 569.386 296.914C569.589 296.813 569.712 296.745 569.757 296.709L570.94 300.077C570.864 300.13 570.632 300.218 570.245 300.342C569.869 300.466 569.394 300.566 568.822 300.642C568.25 300.717 567.62 300.722 566.934 300.656C565.709 300.538 564.738 300.098 564.021 299.336C563.304 298.564 563.029 297.457 563.194 296.017L563.726 291.382L561.636 291.181L562.063 287.456ZM572.702 300.849L574.106 288.615L578.645 289.051L577.241 301.286L572.702 300.849ZM576.724 286.32C576.008 286.251 575.429 285.945 574.988 285.4C574.549 284.845 574.369 284.22 574.449 283.525C574.528 282.829 574.846 282.252 575.402 281.794C575.969 281.326 576.606 281.126 577.313 281.194C577.78 281.239 578.195 281.399 578.556 281.675C578.918 281.941 579.196 282.279 579.39 282.69C579.585 283.1 579.654 283.544 579.6 284.021C579.52 284.716 579.197 285.293 578.631 285.751C578.067 286.198 577.431 286.388 576.724 286.32ZM584.907 302.024L580.353 301.586L582.706 281.08L587.26 281.519L584.907 302.024ZM594.773 290.242C595.579 290.32 596.308 290.46 596.959 290.663C597.611 290.857 598.151 291.059 598.58 291.271C599.019 291.484 599.296 291.652 599.413 291.774L597.629 294.299C597.456 294.141 597.123 293.929 596.63 293.66C596.148 293.393 595.593 293.229 594.966 293.169C594.488 293.123 594.076 293.158 593.731 293.276C593.386 293.383 593.196 293.591 593.161 293.899C593.126 294.207 593.276 294.472 593.613 294.696C593.961 294.91 594.47 295.12 595.141 295.325C595.724 295.502 596.31 295.749 596.897 296.067C597.485 296.384 597.954 296.816 598.304 297.362C598.665 297.899 598.797 298.585 598.702 299.419C598.603 300.274 598.338 300.961 597.906 301.482C597.474 302.003 596.937 302.388 596.294 302.638C595.652 302.887 594.97 303.038 594.25 303.089C593.528 303.15 592.834 303.149 592.167 303.084C591.231 302.994 590.425 302.831 589.747 302.595C589.08 302.36 588.545 302.113 588.142 301.853C587.739 301.593 587.46 301.391 587.306 301.245L589.111 298.406C589.345 298.649 589.739 298.938 590.295 299.273C590.851 299.598 591.458 299.792 592.115 299.855C592.752 299.916 593.256 299.869 593.626 299.714C593.996 299.559 594.198 299.327 594.234 299.019C594.262 298.771 594.2 298.564 594.048 298.399C593.896 298.234 593.672 298.081 593.376 297.942C593.08 297.803 592.718 297.668 592.291 297.537C591.901 297.419 591.493 297.254 591.064 297.042C590.636 296.83 590.239 296.561 589.874 296.234C589.51 295.898 589.229 295.494 589.031 295.023C588.834 294.552 588.772 293.999 588.845 293.363C588.938 292.548 589.279 291.898 589.869 291.412C590.458 290.927 591.186 290.59 592.053 290.402C592.921 290.204 593.828 290.151 594.773 290.242ZM393.448 337.114L397.024 305.958L405.978 306.82L405.549 310.558L400.741 310.095L398.023 333.775L402.831 334.238L402.402 337.976L393.448 337.114ZM419.447 327.523C420.515 327.625 421.503 327.562 422.41 327.333C423.328 327.105 424.02 326.861 424.484 326.601L426.207 331.232C425.608 331.643 424.619 332.022 423.241 332.37C421.874 332.719 420.285 332.806 418.473 332.632C416.778 332.469 415.22 332.02 413.802 331.286C412.383 330.552 411.166 329.597 410.15 328.421C409.148 327.234 408.404 325.891 407.918 324.392C407.446 322.881 407.307 321.28 407.501 319.588C407.695 317.896 408.195 316.356 409 314.968C409.806 313.569 410.834 312.385 412.085 311.416C413.346 310.447 414.754 309.739 416.309 309.291C417.876 308.833 419.507 308.685 421.203 308.848C423.014 309.022 424.549 309.41 425.807 310.012C427.076 310.615 427.957 311.174 428.45 311.69L425.713 315.891C425.319 315.537 424.699 315.167 423.851 314.781C423.016 314.384 422.064 314.134 420.995 314.031C419.811 313.917 418.756 314.003 417.831 314.289C416.907 314.563 416.112 314.991 415.447 315.571C414.782 316.152 414.258 316.828 413.876 317.6C413.494 318.372 413.252 319.198 413.151 320.079C413.048 320.971 413.096 321.837 413.293 322.676C413.492 323.504 413.85 324.265 414.369 324.96C414.889 325.654 415.568 326.229 416.408 326.685C417.249 327.129 418.262 327.409 419.447 327.523ZM436.434 334.361C434.866 334.21 433.509 333.757 432.363 333.002C431.229 332.237 430.379 331.258 429.811 330.067C429.256 328.865 429.063 327.534 429.23 326.074C429.398 324.613 429.89 323.348 430.705 322.278C431.534 321.198 432.59 320.385 433.873 319.841C435.168 319.298 436.6 319.101 438.168 319.252C439.735 319.403 441.08 319.867 442.2 320.642C443.32 321.418 444.151 322.412 444.693 323.624C445.236 324.825 445.424 326.156 445.256 327.616C445.089 329.077 444.603 330.342 443.799 331.413C442.996 332.473 441.96 333.269 440.689 333.803C439.42 334.326 438.001 334.511 436.434 334.361ZM436.933 330.014C437.536 330.072 438.074 329.989 438.546 329.765C439.018 329.541 439.404 329.197 439.704 328.734C440.003 328.271 440.188 327.732 440.259 327.118C440.331 326.492 440.273 325.924 440.085 325.413C439.897 324.903 439.598 324.488 439.189 324.167C438.779 323.846 438.273 323.657 437.669 323.599C437.065 323.541 436.521 323.629 436.036 323.863C435.563 324.099 435.17 324.448 434.859 324.91C434.559 325.374 434.373 325.918 434.302 326.544C434.231 327.158 434.29 327.721 434.478 328.231C434.677 328.742 434.983 329.153 435.393 329.462C435.816 329.772 436.329 329.956 436.933 330.014ZM468.551 322.177C469.631 322.281 470.557 322.598 471.33 323.13C472.104 323.649 472.67 324.395 473.028 325.367C473.398 326.34 473.499 327.557 473.331 329.017L472.369 337.397L467.161 336.896L468.031 329.316C468.145 328.319 468.087 327.499 467.855 326.856C467.624 326.212 467.061 325.848 466.167 325.762C465.633 325.71 465.146 325.804 464.708 326.043C464.27 326.282 463.911 326.64 463.634 327.117C463.357 327.583 463.18 328.158 463.101 328.841L462.231 336.422L457.371 335.954L458.241 328.374C458.355 327.377 458.28 326.555 458.013 325.908C457.759 325.263 457.213 324.9 456.377 324.819C455.843 324.768 455.357 324.862 454.918 325.101C454.481 325.328 454.124 325.681 453.846 326.158C453.581 326.624 453.409 327.205 453.329 327.901L452.459 335.481L447.198 334.975L448.836 320.701L454.097 321.207L453.864 323.241C454.044 322.896 454.388 322.56 454.895 322.233C455.415 321.897 456.038 321.634 456.764 321.446C457.492 321.247 458.244 321.185 459.022 321.259C459.87 321.341 460.564 321.537 461.104 321.847C461.645 322.145 462.071 322.52 462.383 322.972C462.707 323.425 462.951 323.905 463.116 324.413C463.327 324.012 463.694 323.625 464.218 323.254C464.755 322.872 465.399 322.576 466.151 322.367C466.915 322.16 467.715 322.096 468.551 322.177ZM479.815 345.426L474.572 344.922L477.04 323.416L482.336 323.925L482.096 326.011C482.296 325.703 482.644 325.379 483.141 325.04C483.651 324.69 484.276 324.411 485.016 324.201C485.77 323.98 486.599 323.914 487.505 324.001C488.898 324.135 490.05 324.591 490.958 325.37C491.878 326.15 492.54 327.14 492.942 328.339C493.346 329.526 493.468 330.815 493.309 332.206C493.149 333.597 492.719 334.838 492.018 335.931C491.319 337.012 490.413 337.845 489.301 338.429C488.202 339.003 486.955 339.223 485.562 339.089C484.563 338.993 483.729 338.737 483.061 338.321C482.405 337.895 481.899 337.447 481.542 336.979C481.198 336.501 480.987 336.135 480.911 335.882L479.815 345.426ZM488.135 331.708C488.209 331.059 488.131 330.465 487.899 329.927C487.669 329.378 487.32 328.934 486.854 328.596C486.401 328.248 485.867 328.044 485.251 327.985C484.612 327.924 484.02 328.019 483.475 328.271C482.942 328.513 482.501 328.88 482.151 329.374C481.802 329.856 481.59 330.422 481.516 331.071C481.441 331.72 481.519 332.319 481.749 332.869C481.981 333.407 482.33 333.844 482.796 334.182C483.274 334.521 483.832 334.721 484.471 334.783C485.086 334.842 485.655 334.75 486.176 334.508C486.708 334.266 487.149 333.904 487.498 333.422C487.848 332.928 488.06 332.357 488.135 331.708ZM500.076 333.982C500.052 334.495 500.163 334.963 500.408 335.385C500.653 335.807 501.018 336.159 501.502 336.44C501.999 336.71 502.602 336.88 503.311 336.948C503.984 337.013 504.596 337.001 505.146 336.913C505.708 336.827 506.198 336.698 506.617 336.528C507.047 336.358 507.386 336.174 507.631 335.975L509.312 339.441C508.986 339.726 508.538 339.994 507.969 340.244C507.413 340.483 506.695 340.654 505.815 340.757C504.934 340.86 503.837 340.848 502.525 340.722C500.946 340.57 499.575 340.139 498.411 339.429C497.248 338.72 496.378 337.757 495.802 336.541C495.225 335.326 495.032 333.889 495.222 332.232C495.382 330.841 495.827 329.618 496.559 328.564C497.303 327.499 498.294 326.697 499.529 326.16C500.766 325.611 502.204 325.416 503.841 325.573C505.397 325.723 506.712 326.137 507.785 326.814C508.869 327.493 509.655 328.424 510.141 329.607C510.641 330.78 510.794 332.201 510.603 333.87C510.592 333.963 510.565 334.148 510.522 334.425C510.49 334.703 510.457 334.888 510.423 334.978L500.076 333.982ZM505.81 331.739C505.841 331.367 505.785 330.993 505.64 330.615C505.497 330.227 505.253 329.898 504.908 329.631C504.564 329.352 504.102 329.184 503.521 329.128C502.941 329.072 502.434 329.141 502.001 329.333C501.58 329.516 501.245 329.776 500.995 330.116C500.745 330.455 500.585 330.826 500.515 331.229L505.81 331.739ZM501.885 324.207L500.58 321.919L506.8 317.596L508.947 320.985L501.885 324.207ZM512.974 326.874L515.413 327.109L516.085 321.25L521.329 321.754L520.656 327.613L523.861 327.922L523.362 332.268L520.157 331.96L519.7 335.941C519.632 336.532 519.664 337.022 519.796 337.409C519.929 337.785 520.228 337.996 520.692 338.041C521.006 338.071 521.281 338.027 521.517 337.909C521.754 337.791 521.898 337.711 521.95 337.669L523.331 341.599C523.241 341.661 522.971 341.764 522.52 341.908C522.081 342.053 521.527 342.17 520.86 342.258C520.192 342.346 519.458 342.351 518.656 342.274C517.228 342.137 516.095 341.623 515.258 340.734C514.422 339.834 514.101 338.543 514.293 336.862L514.914 331.455L512.475 331.221L512.974 326.874ZM530.118 336.874C530.094 337.387 530.205 337.855 530.45 338.277C530.695 338.699 531.059 339.05 531.544 339.331C532.041 339.602 532.644 339.771 533.352 339.839C534.026 339.904 534.638 339.893 535.188 339.805C535.75 339.718 536.24 339.59 536.659 339.419C537.089 339.25 537.427 339.065 537.673 338.866L539.354 342.333C539.027 342.618 538.58 342.885 538.011 343.135C537.455 343.375 536.737 343.546 535.856 343.648C534.976 343.751 533.879 343.739 532.567 343.613C530.988 343.461 529.616 343.03 528.453 342.321C527.29 341.611 526.42 340.648 525.843 339.433C525.267 338.217 525.074 336.781 525.264 335.123C525.423 333.732 525.869 332.51 526.601 331.455C527.345 330.39 528.335 329.589 529.571 329.052C530.808 328.503 532.246 328.307 533.883 328.465C535.439 328.614 536.754 329.028 537.827 329.705C538.911 330.384 539.697 331.315 540.183 332.499C540.682 333.672 540.836 335.093 540.645 336.762C540.634 336.854 540.607 337.039 540.563 337.316C540.531 337.595 540.499 337.779 540.465 337.869L530.118 336.874ZM535.852 334.631C535.883 334.259 535.826 333.884 535.682 333.507C535.539 333.118 535.295 332.79 534.949 332.522C534.606 332.243 534.144 332.076 533.563 332.02C532.982 331.964 532.475 332.032 532.042 332.225C531.622 332.407 531.287 332.668 531.037 333.007C530.787 333.346 530.627 333.717 530.557 334.121L535.852 334.631ZM554.091 330.41C555.09 330.506 556.042 330.802 556.948 331.3C557.854 331.797 558.564 332.516 559.078 333.456C559.594 334.384 559.77 335.562 559.606 336.987L558.606 345.697L553.293 345.186L554.193 337.345C554.31 336.325 554.154 335.537 553.725 334.98C553.297 334.411 552.689 334.089 551.899 334.013C551.376 333.963 550.867 334.054 550.37 334.288C549.887 334.511 549.471 334.857 549.124 335.328C548.789 335.788 548.585 336.337 548.512 336.974L547.632 344.641L542.337 344.132L543.975 329.858L549.27 330.367L549.029 332.471C549.212 332.102 549.546 331.748 550.032 331.407C550.53 331.057 551.13 330.787 551.833 330.597C552.549 330.396 553.302 330.334 554.091 330.41ZM569.864 343.002C570.526 343.065 571.085 343.008 571.54 342.829C571.996 342.639 572.308 342.481 572.475 342.357L574.485 346.171C574.282 346.304 573.94 346.47 573.459 346.67C572.979 346.858 572.387 347.006 571.682 347.114C570.988 347.223 570.206 347.236 569.335 347.152C567.698 346.994 566.293 346.549 565.121 345.815C563.95 345.069 563.082 344.095 562.515 342.892C561.96 341.69 561.771 340.324 561.946 338.794C562.123 337.253 562.619 335.953 563.433 334.895C564.259 333.837 565.328 333.061 566.641 332.567C567.956 332.06 569.432 331.886 571.069 332.044C571.929 332.126 572.684 332.293 573.337 332.543C574.002 332.783 574.553 333.041 574.991 333.318C575.431 333.583 575.734 333.805 575.901 333.985L573.012 337.363C572.94 337.274 572.803 337.144 572.599 336.972C572.408 336.801 572.15 336.642 571.827 336.493C571.503 336.345 571.109 336.249 570.645 336.204C570.076 336.149 569.525 336.243 568.992 336.484C568.471 336.727 568.03 337.089 567.67 337.57C567.309 338.051 567.091 338.622 567.015 339.282C566.94 339.943 567.023 340.549 567.265 341.099C567.508 341.638 567.857 342.076 568.312 342.413C568.778 342.751 569.295 342.947 569.864 343.002ZM581.423 341.812C581.4 342.325 581.51 342.793 581.756 343.215C582.001 343.637 582.365 343.988 582.85 344.269C583.347 344.54 583.95 344.709 584.658 344.777C585.332 344.842 585.944 344.831 586.494 344.743C587.056 344.656 587.546 344.528 587.965 344.357C588.395 344.188 588.733 344.003 588.979 343.804L590.66 347.271C590.333 347.556 589.886 347.823 589.317 348.073C588.761 348.313 588.043 348.484 587.162 348.586C586.282 348.689 585.185 348.677 583.873 348.551C582.293 348.399 580.922 347.968 579.759 347.259C578.596 346.549 577.726 345.587 577.149 344.371C576.573 343.155 576.379 341.719 576.57 340.061C576.729 338.67 577.175 337.448 577.907 336.393C578.651 335.328 579.641 334.527 580.877 333.99C582.114 333.441 583.551 333.245 585.189 333.403C586.745 333.552 588.06 333.966 589.132 334.643C590.217 335.322 591.002 336.253 591.489 337.437C591.988 338.61 592.142 340.031 591.951 341.7C591.94 341.793 591.913 341.977 591.869 342.254C591.837 342.533 591.804 342.717 591.771 342.807L581.423 341.812ZM587.158 339.569C587.189 339.197 587.132 338.822 586.988 338.445C586.845 338.056 586.6 337.728 586.255 337.46C585.912 337.181 585.45 337.014 584.869 336.958C584.288 336.902 583.781 336.97 583.348 337.163C582.928 337.345 582.593 337.606 582.343 337.945C582.092 338.284 581.932 338.656 581.863 339.059L587.158 339.569ZM601.965 335.017C602.906 335.108 603.756 335.272 604.516 335.509C605.276 335.734 605.907 335.971 606.407 336.218C606.918 336.467 607.242 336.662 607.379 336.804L605.297 339.75C605.095 339.566 604.707 339.318 604.132 339.005C603.569 338.693 602.922 338.502 602.19 338.431C601.633 338.378 601.152 338.419 600.749 338.556C600.347 338.682 600.126 338.924 600.084 339.283C600.043 339.643 600.219 339.953 600.612 340.213C601.018 340.463 601.612 340.708 602.394 340.947C603.075 341.153 603.758 341.442 604.444 341.812C605.129 342.183 605.676 342.687 606.084 343.324C606.506 343.95 606.66 344.75 606.549 345.724C606.434 346.721 606.125 347.523 605.621 348.131C605.116 348.738 604.49 349.188 603.74 349.479C602.99 349.77 602.195 349.945 601.355 350.005C600.513 350.077 599.703 350.075 598.925 350C597.833 349.895 596.892 349.705 596.102 349.429C595.323 349.155 594.699 348.867 594.229 348.564C593.759 348.26 593.434 348.024 593.254 347.854L595.36 344.542C595.632 344.826 596.093 345.163 596.741 345.553C597.39 345.932 598.098 346.159 598.864 346.232C599.607 346.304 600.195 346.249 600.627 346.068C601.058 345.887 601.295 345.617 601.336 345.257C601.369 344.968 601.297 344.726 601.12 344.533C600.942 344.341 600.681 344.163 600.336 344.001C599.99 343.839 599.568 343.681 599.069 343.527C598.615 343.39 598.138 343.198 597.638 342.95C597.138 342.703 596.675 342.389 596.249 342.008C595.825 341.616 595.497 341.145 595.267 340.595C595.036 340.046 594.964 339.4 595.049 338.658C595.158 337.708 595.556 336.949 596.243 336.383C596.931 335.816 597.78 335.423 598.792 335.204C599.804 334.973 600.862 334.911 601.965 335.017ZM608.113 357.775L608.542 354.037L613.35 354.5L616.068 330.82L611.26 330.357L611.689 326.619L620.643 327.481L617.067 358.637L608.113 357.775Z" fill="white"/>
</svg>
