<svg width="840" height="864" viewBox="0 0 840 864" fill="none" xmlns="http://www.w3.org/2000/svg">
<rect y="564" width="840" height="300" rx="20" fill="#FC6736"/>
<rect x="12.5" y="576.5" width="815" height="275" rx="17.5" stroke="white" stroke-width="5"/>
<g filter="url(#filter0_d_141_812)">
<circle cx="420" cy="350" r="350" fill="#FC6736"/>
</g>
<circle cx="420" cy="350" r="330" stroke="white" stroke-width="10"/>
<line x1="419.5" y1="40" x2="419.5" y2="660" stroke="white" stroke-width="5"/>
<line x1="264.165" y1="80.2821" x2="574.165" y2="617.218" stroke="white" stroke-width="5"/>
<line x1="149.782" y1="192.835" x2="686.718" y2="502.835" stroke="white" stroke-width="5"/>
<line x1="107" y1="347.5" x2="727" y2="347.5" stroke="white" stroke-width="5"/>
<line x1="147.282" y1="502.835" x2="684.218" y2="192.835" stroke="white" stroke-width="5"/>
<line x1="259.835" y1="617.218" x2="569.835" y2="80.282" stroke="white" stroke-width="5"/>
<circle cx="420" cy="342" r="260" fill="#FC6736"/>
<line x1="75" y1="639.5" x2="155" y2="639.5" stroke="#0C2D57" stroke-width="5"/>
<line x1="75" y1="686.5" x2="155" y2="686.5" stroke="#0C2D57" stroke-width="5"/>
<line x1="705" y1="639.5" x2="785" y2="639.5" stroke="#0C2D57" stroke-width="5"/>
<line x1="705" y1="686.5" x2="785" y2="686.5" stroke="#0C2D57" stroke-width="5"/>
<line x1="705" y1="737.5" x2="785" y2="737.5" stroke="#0C2D57" stroke-width="5"/>
<line x1="705" y1="784.5" x2="785" y2="784.5" stroke="#0C2D57" stroke-width="5"/>
<line x1="76" y1="737.5" x2="156" y2="737.5" stroke="#0C2D57" stroke-width="5"/>
<line x1="76" y1="786.5" x2="156" y2="786.5" stroke="#0C2D57" stroke-width="5"/>
<g filter="url(#filter1_d_141_812)">
<path d="M229 714C229 708.477 233.477 704 239 704H600C605.523 704 610 708.477 610 714V831C610 836.523 605.523 841 600 841H239C233.477 841 229 836.523 229 831V714Z" fill="#0C2D57"/>
<path d="M239 706.5H600C604.142 706.5 607.5 709.858 607.5 714V831C607.5 835.142 604.142 838.5 600 838.5H239C234.858 838.5 231.5 835.142 231.5 831V714C231.5 709.858 234.858 706.5 239 706.5Z" stroke="white" stroke-width="5"/>
</g>
<path d="M254.688 821.44V772.16H268.823V778.072H261.233V815.528H268.823V821.44H254.688ZM313.007 773.7V810H304.812V788.632L305.17 782.555L303.767 789.512L297.662 807.085H289.605L283.527 789.512L282.152 782.555L282.51 788.632V810H274.287V773.7H285.837L293.152 797.927L293.647 800.815L294.142 797.927L301.457 773.7H313.007ZM331.089 810.66C328.614 810.66 326.414 810.156 324.489 809.147C322.583 808.121 321.079 806.718 319.979 804.94C318.898 803.143 318.357 801.09 318.357 798.78C318.357 796.47 318.898 794.417 319.979 792.62C321.079 790.805 322.583 789.375 324.489 788.33C326.414 787.285 328.614 786.762 331.089 786.762C333.564 786.762 335.746 787.285 337.634 788.33C339.523 789.375 340.998 790.805 342.062 792.62C343.125 794.417 343.657 796.47 343.657 798.78C343.657 801.09 343.125 803.143 342.062 804.94C340.998 806.718 339.523 808.121 337.634 809.147C335.746 810.156 333.564 810.66 331.089 810.66ZM331.089 803.785C332.043 803.785 332.868 803.574 333.564 803.152C334.261 802.731 334.802 802.135 335.187 801.365C335.572 800.595 335.764 799.724 335.764 798.752C335.764 797.762 335.572 796.882 335.187 796.113C334.802 795.342 334.261 794.737 333.564 794.297C332.868 793.857 332.043 793.637 331.089 793.637C330.136 793.637 329.302 793.857 328.587 794.297C327.89 794.737 327.34 795.342 326.937 796.113C326.552 796.882 326.359 797.762 326.359 798.752C326.359 799.724 326.552 800.595 326.937 801.365C327.34 802.135 327.89 802.731 328.587 803.152C329.302 803.574 330.136 803.785 331.089 803.785ZM363.545 786.762C365.121 786.762 366.661 787.083 368.165 787.725C369.668 788.367 370.906 789.384 371.877 790.777C372.849 792.152 373.335 793.967 373.335 796.222V810H364.947V797.597C364.947 795.984 364.562 794.774 363.792 793.967C363.022 793.142 362.014 792.73 360.767 792.73C359.942 792.73 359.163 792.95 358.43 793.39C357.715 793.812 357.128 794.417 356.67 795.205C356.23 795.975 356.01 796.864 356.01 797.872V810H347.65V787.422H356.01V790.75C356.23 790.145 356.688 789.54 357.385 788.935C358.1 788.312 358.989 787.798 360.052 787.395C361.134 786.973 362.298 786.762 363.545 786.762ZM408.478 786.762C410.055 786.762 411.595 787.083 413.098 787.725C414.602 788.367 415.839 789.384 416.811 790.777C417.783 792.152 418.268 793.967 418.268 796.222V810H409.908V797.597C409.908 795.984 409.542 794.774 408.808 793.967C408.093 793.142 407.113 792.73 405.866 792.73C405.041 792.73 404.253 792.95 403.501 793.39C402.749 793.812 402.135 794.417 401.658 795.205C401.2 795.975 400.971 796.864 400.971 797.872V810H392.583V772.16H400.971V790.75C401.173 790.145 401.622 789.54 402.318 788.935C403.033 788.312 403.923 787.798 404.986 787.395C406.068 786.973 407.232 786.762 408.478 786.762ZM423.478 810V787.422H431.838V810H423.478ZM427.768 782.775C426.448 782.775 425.329 782.317 424.413 781.4C423.496 780.465 423.038 779.356 423.038 778.072C423.038 776.789 423.496 775.68 424.413 774.745C425.348 773.792 426.466 773.315 427.768 773.315C428.629 773.315 429.418 773.535 430.133 773.975C430.848 774.397 431.425 774.965 431.865 775.68C432.305 776.395 432.525 777.192 432.525 778.072C432.525 779.356 432.058 780.465 431.123 781.4C430.188 782.317 429.069 782.775 427.768 782.775ZM447.717 786.762C449.202 786.762 450.559 786.891 451.787 787.147C453.015 787.386 454.042 787.661 454.867 787.972C455.71 788.284 456.251 788.541 456.49 788.742L453.767 793.665C453.419 793.408 452.768 793.078 451.815 792.675C450.88 792.272 449.835 792.07 448.68 792.07C447.8 792.07 447.057 792.207 446.452 792.482C445.847 792.739 445.545 793.152 445.545 793.72C445.545 794.288 445.875 794.747 446.535 795.095C447.213 795.425 448.185 795.718 449.45 795.975C450.55 796.195 451.668 796.543 452.805 797.02C453.941 797.497 454.885 798.202 455.637 799.137C456.407 800.054 456.792 801.282 456.792 802.822C456.792 804.399 456.453 805.701 455.775 806.727C455.096 807.754 454.198 808.552 453.08 809.12C451.961 809.688 450.751 810.083 449.45 810.303C448.148 810.541 446.883 810.66 445.655 810.66C443.931 810.66 442.428 810.504 441.145 810.193C439.88 809.881 438.853 809.523 438.065 809.12C437.276 808.717 436.726 808.396 436.415 808.157L439.11 802.657C439.586 803.061 440.365 803.519 441.447 804.032C442.529 804.527 443.675 804.775 444.885 804.775C446.058 804.775 446.965 804.601 447.607 804.252C448.249 803.904 448.57 803.446 448.57 802.877C448.57 802.419 448.414 802.052 448.102 801.777C447.79 801.502 447.35 801.264 446.782 801.062C446.214 800.861 445.526 800.677 444.72 800.512C443.986 800.366 443.207 800.137 442.382 799.825C441.557 799.513 440.778 799.092 440.045 798.56C439.311 798.01 438.715 797.322 438.257 796.497C437.799 795.672 437.57 794.673 437.57 793.5C437.57 791.997 438.055 790.75 439.027 789.76C439.999 788.77 441.255 788.027 442.795 787.532C444.335 787.019 445.975 786.762 447.717 786.762ZM458.929 787.422H462.779V778.155H471.056V787.422H476.116V794.297H471.056V800.595C471.056 801.53 471.194 802.291 471.469 802.877C471.744 803.446 472.248 803.73 472.981 803.73C473.476 803.73 473.898 803.62 474.246 803.4C474.595 803.18 474.806 803.033 474.879 802.96L477.739 808.9C477.611 809.01 477.207 809.212 476.529 809.505C475.869 809.798 475.026 810.064 473.999 810.303C472.972 810.541 471.826 810.66 470.561 810.66C468.306 810.66 466.446 810.027 464.979 808.762C463.512 807.479 462.779 805.508 462.779 802.85V794.297H458.929V787.422ZM492.329 810.66C489.854 810.66 487.654 810.156 485.729 809.147C483.823 808.121 482.319 806.718 481.219 804.94C480.138 803.143 479.597 801.09 479.597 798.78C479.597 796.47 480.138 794.417 481.219 792.62C482.319 790.805 483.823 789.375 485.729 788.33C487.654 787.285 489.854 786.762 492.329 786.762C494.804 786.762 496.986 787.285 498.874 788.33C500.763 789.375 502.239 790.805 503.302 792.62C504.365 794.417 504.897 796.47 504.897 798.78C504.897 801.09 504.365 803.143 503.302 804.94C502.239 806.718 500.763 808.121 498.874 809.147C496.986 810.156 494.804 810.66 492.329 810.66ZM492.329 803.785C493.283 803.785 494.108 803.574 494.804 803.152C495.501 802.731 496.042 802.135 496.427 801.365C496.812 800.595 497.004 799.724 497.004 798.752C497.004 797.762 496.812 796.882 496.427 796.113C496.042 795.342 495.501 794.737 494.804 794.297C494.108 793.857 493.283 793.637 492.329 793.637C491.376 793.637 490.542 793.857 489.827 794.297C489.13 794.737 488.58 795.342 488.177 796.113C487.792 796.882 487.599 797.762 487.599 798.752C487.599 799.724 487.792 800.595 488.177 801.365C488.58 802.135 489.13 802.731 489.827 803.152C490.542 803.574 491.376 803.785 492.329 803.785ZM509.523 810V787.422H517.883V810H509.523ZM513.812 782.775C512.493 782.775 511.374 782.317 510.458 781.4C509.541 780.465 509.083 779.356 509.083 778.072C509.083 776.789 509.541 775.68 510.458 774.745C511.393 773.792 512.511 773.315 513.812 773.315C514.674 773.315 515.463 773.535 516.178 773.975C516.893 774.397 517.47 774.965 517.91 775.68C518.35 776.395 518.57 777.192 518.57 778.072C518.57 779.356 518.103 780.465 517.168 781.4C516.233 782.317 515.114 782.775 513.812 782.775ZM531.287 810H522.927V787.422H531.287V790.915H531.15C531.296 790.493 531.654 789.962 532.222 789.32C532.79 788.66 533.588 788.073 534.615 787.56C535.641 787.028 536.897 786.762 538.382 786.762C539.427 786.762 540.39 786.927 541.27 787.257C542.15 787.569 542.791 787.872 543.195 788.165L539.95 794.957C539.693 794.646 539.235 794.325 538.575 793.995C537.933 793.647 537.126 793.472 536.155 793.472C535.036 793.472 534.11 793.757 533.377 794.325C532.662 794.893 532.13 795.581 531.782 796.387C531.452 797.194 531.287 797.955 531.287 798.67V810ZM551.513 800.485C551.568 801.292 551.825 802.007 552.283 802.63C552.741 803.253 553.374 803.748 554.18 804.115C555.005 804.463 555.977 804.637 557.095 804.637C558.159 804.637 559.112 804.527 559.955 804.307C560.817 804.087 561.56 803.812 562.183 803.482C562.825 803.152 563.32 802.813 563.668 802.465L566.913 807.635C566.455 808.13 565.804 808.616 564.96 809.093C564.135 809.551 563.045 809.927 561.688 810.22C560.331 810.513 558.617 810.66 556.545 810.66C554.052 810.66 551.834 810.192 549.89 809.257C547.947 808.322 546.416 806.947 545.298 805.132C544.18 803.317 543.62 801.099 543.62 798.477C543.62 796.277 544.097 794.297 545.05 792.537C546.022 790.759 547.425 789.357 549.258 788.33C551.091 787.285 553.3 786.762 555.885 786.762C558.342 786.762 560.469 787.212 562.265 788.11C564.08 789.008 565.474 790.347 566.445 792.125C567.435 793.885 567.93 796.085 567.93 798.725C567.93 798.872 567.921 799.165 567.903 799.605C567.903 800.045 567.885 800.338 567.848 800.485H551.513ZM560.065 796.113C560.047 795.526 559.891 794.948 559.598 794.38C559.305 793.793 558.865 793.317 558.278 792.95C557.691 792.565 556.94 792.372 556.023 792.372C555.106 792.372 554.327 792.556 553.685 792.922C553.062 793.271 552.585 793.729 552.255 794.297C551.925 794.866 551.742 795.471 551.705 796.113H560.065ZM572.415 821.44V815.528H580.005V778.072H572.415V772.16H586.55V821.44H572.415Z" fill="white"/>
<path d="M342.292 724.28H352.372C354.15 724.28 355.753 724.595 357.181 725.225C358.609 725.841 359.743 726.786 360.583 728.06C361.437 729.32 361.864 730.902 361.864 732.806C361.864 734.696 361.437 736.306 360.583 737.636C359.743 738.952 358.609 739.96 357.181 740.66C355.753 741.346 354.15 741.689 352.372 741.689H348.571V752H342.292V724.28ZM348.571 736.733H350.629C351.483 736.733 352.246 736.607 352.918 736.355C353.604 736.103 354.15 735.704 354.556 735.158C354.962 734.598 355.165 733.863 355.165 732.953C355.165 732.029 354.962 731.301 354.556 730.769C354.15 730.223 353.604 729.831 352.918 729.593C352.246 729.355 351.483 729.236 350.629 729.236H348.571V736.733ZM372.664 752.504C370.774 752.504 369.094 752.119 367.624 751.349C366.168 750.565 365.02 749.494 364.18 748.136C363.354 746.764 362.941 745.196 362.941 743.432C362.941 741.668 363.354 740.1 364.18 738.728C365.02 737.342 366.168 736.25 367.624 735.452C369.094 734.654 370.774 734.255 372.664 734.255C374.554 734.255 376.22 734.654 377.662 735.452C379.104 736.25 380.231 737.342 381.043 738.728C381.855 740.1 382.261 741.668 382.261 743.432C382.261 745.196 381.855 746.764 381.043 748.136C380.231 749.494 379.104 750.565 377.662 751.349C376.22 752.119 374.554 752.504 372.664 752.504ZM372.664 747.254C373.392 747.254 374.022 747.093 374.554 746.771C375.086 746.449 375.499 745.994 375.793 745.406C376.087 744.818 376.234 744.153 376.234 743.411C376.234 742.655 376.087 741.983 375.793 741.395C375.499 740.807 375.086 740.345 374.554 740.009C374.022 739.673 373.392 739.505 372.664 739.505C371.936 739.505 371.299 739.673 370.753 740.009C370.221 740.345 369.801 740.807 369.493 741.395C369.199 741.983 369.052 742.655 369.052 743.411C369.052 744.153 369.199 744.818 369.493 745.406C369.801 745.994 370.221 746.449 370.753 746.771C371.299 747.093 371.936 747.254 372.664 747.254ZM385.793 752V734.759H392.177V752H385.793ZM389.069 731.21C388.061 731.21 387.207 730.86 386.507 730.16C385.807 729.446 385.457 728.599 385.457 727.619C385.457 726.639 385.807 725.792 386.507 725.078C387.221 724.35 388.075 723.986 389.069 723.986C389.727 723.986 390.329 724.154 390.875 724.49C391.421 724.812 391.862 725.246 392.198 725.792C392.534 726.338 392.702 726.947 392.702 727.619C392.702 728.599 392.345 729.446 391.631 730.16C390.917 730.86 390.063 731.21 389.069 731.21ZM408.441 734.255C409.645 734.255 410.821 734.5 411.969 734.99C413.117 735.48 414.062 736.257 414.804 737.321C415.546 738.371 415.917 739.757 415.917 741.479V752H409.512V742.529C409.512 741.297 409.218 740.373 408.63 739.757C408.042 739.127 407.272 738.812 406.32 738.812C405.69 738.812 405.095 738.98 404.535 739.316C403.989 739.638 403.541 740.1 403.191 740.702C402.855 741.29 402.687 741.969 402.687 742.739V752H396.303V734.759H402.687V737.3C402.855 736.838 403.205 736.376 403.737 735.914C404.283 735.438 404.962 735.046 405.774 734.738C406.6 734.416 407.489 734.255 408.441 734.255ZM418.156 734.759H421.096V727.682H427.417V734.759H431.281V740.009H427.417V744.818C427.417 745.532 427.522 746.113 427.732 746.561C427.942 746.995 428.327 747.212 428.887 747.212C429.265 747.212 429.587 747.128 429.853 746.96C430.119 746.792 430.28 746.68 430.336 746.624L432.52 751.16C432.422 751.244 432.114 751.398 431.596 751.622C431.092 751.846 430.448 752.049 429.664 752.231C428.88 752.413 428.005 752.504 427.039 752.504C425.317 752.504 423.896 752.021 422.776 751.055C421.656 750.075 421.096 748.57 421.096 746.54V740.009H418.156V734.759ZM448.261 752V749.207C448.135 749.487 447.813 749.893 447.295 750.425C446.791 750.957 446.119 751.44 445.279 751.874C444.439 752.294 443.459 752.504 442.339 752.504C440.659 752.504 439.189 752.098 437.929 751.286C436.669 750.46 435.689 749.361 434.989 747.989C434.289 746.603 433.939 745.07 433.939 743.39C433.939 741.71 434.289 740.184 434.989 738.812C435.689 737.426 436.669 736.32 437.929 735.494C439.189 734.668 440.659 734.255 442.339 734.255C443.417 734.255 444.362 734.43 445.174 734.78C445.986 735.116 446.644 735.522 447.148 735.998C447.652 736.46 448.002 736.887 448.198 737.279V734.759H454.54V752H448.261ZM440.197 743.39C440.197 744.174 440.379 744.881 440.743 745.511C441.107 746.127 441.59 746.61 442.192 746.96C442.808 747.31 443.487 747.485 444.229 747.485C444.999 747.485 445.678 747.31 446.266 746.96C446.854 746.61 447.316 746.127 447.652 745.511C448.002 744.881 448.177 744.174 448.177 743.39C448.177 742.606 448.002 741.906 447.652 741.29C447.316 740.66 446.854 740.17 446.266 739.82C445.678 739.456 444.999 739.274 444.229 739.274C443.487 739.274 442.808 739.456 442.192 739.82C441.59 740.17 441.107 740.66 440.743 741.29C440.379 741.906 440.197 742.606 440.197 743.39ZM467.642 761.219C466.438 761.219 465.241 761.114 464.051 760.904C462.875 760.694 461.776 760.337 460.754 759.833C459.732 759.329 458.871 758.636 458.171 757.754L461.909 753.869C462.231 754.247 462.623 754.618 463.085 754.982C463.561 755.346 464.142 755.647 464.828 755.885C465.528 756.123 466.375 756.242 467.369 756.242C468.293 756.242 469.098 756.081 469.784 755.759C470.47 755.437 471.002 754.968 471.38 754.352C471.772 753.736 471.968 752.987 471.968 752.105V751.685H478.247V752.483C478.247 754.387 477.771 755.99 476.819 757.292C475.881 758.594 474.614 759.574 473.018 760.232C471.422 760.89 469.63 761.219 467.642 761.219ZM471.968 752V749.207C471.842 749.487 471.52 749.893 471.002 750.425C470.498 750.957 469.826 751.44 468.986 751.874C468.146 752.294 467.166 752.504 466.046 752.504C464.366 752.504 462.896 752.098 461.636 751.286C460.376 750.46 459.396 749.361 458.696 747.989C457.996 746.603 457.646 745.07 457.646 743.39C457.646 741.71 457.996 740.184 458.696 738.812C459.396 737.426 460.376 736.32 461.636 735.494C462.896 734.668 464.366 734.255 466.046 734.255C467.124 734.255 468.069 734.43 468.881 734.78C469.693 735.116 470.351 735.522 470.855 735.998C471.359 736.46 471.709 736.887 471.905 737.279V734.759H478.247V752H471.968ZM463.904 743.39C463.904 744.174 464.086 744.881 464.45 745.511C464.814 746.127 465.297 746.61 465.899 746.96C466.515 747.31 467.194 747.485 467.936 747.485C468.706 747.485 469.385 747.31 469.973 746.96C470.561 746.61 471.023 746.127 471.359 745.511C471.709 744.881 471.884 744.174 471.884 743.39C471.884 742.606 471.709 741.906 471.359 741.29C471.023 740.66 470.561 740.17 469.973 739.82C469.385 739.456 468.706 739.274 467.936 739.274C467.194 739.274 466.515 739.456 465.899 739.82C465.297 740.17 464.814 740.66 464.45 741.29C464.086 741.906 463.904 742.606 463.904 743.39ZM487.421 744.734C487.463 745.35 487.659 745.896 488.009 746.372C488.359 746.848 488.842 747.226 489.458 747.506C490.088 747.772 490.83 747.905 491.684 747.905C492.496 747.905 493.224 747.821 493.868 747.653C494.526 747.485 495.093 747.275 495.569 747.023C496.059 746.771 496.437 746.512 496.703 746.246L499.181 750.194C498.831 750.572 498.334 750.943 497.69 751.307C497.06 751.657 496.227 751.944 495.191 752.168C494.155 752.392 492.846 752.504 491.264 752.504C489.36 752.504 487.666 752.147 486.182 751.433C484.698 750.719 483.529 749.669 482.675 748.283C481.821 746.897 481.394 745.203 481.394 743.201C481.394 741.521 481.758 740.009 482.486 738.665C483.228 737.307 484.299 736.236 485.699 735.452C487.099 734.654 488.786 734.255 490.76 734.255C492.636 734.255 494.26 734.598 495.632 735.284C497.018 735.97 498.082 736.992 498.824 738.35C499.58 739.694 499.958 741.374 499.958 743.39C499.958 743.502 499.951 743.726 499.937 744.062C499.937 744.398 499.923 744.622 499.895 744.734H487.421ZM493.952 741.395C493.938 740.947 493.819 740.506 493.595 740.072C493.371 739.624 493.035 739.26 492.587 738.98C492.139 738.686 491.565 738.539 490.865 738.539C490.165 738.539 489.57 738.679 489.08 738.959C488.604 739.225 488.24 739.575 487.988 740.009C487.736 740.443 487.596 740.905 487.568 741.395H493.952Z" fill="white"/>
<line x1="423.949" y1="336.372" x2="493.949" y2="215.128" stroke="white" stroke-width="7"/>
<circle cx="420" cy="342" r="15" fill="#D9D9D9"/>
<defs>
<filter id="filter0_d_141_812" x="66" y="0" width="708" height="708" filterUnits="userSpaceOnUse" color-interpolation-filters="sRGB">
<feFlood flood-opacity="0" result="BackgroundImageFix"/>
<feColorMatrix in="SourceAlpha" type="matrix" values="0 0 0 0 0 0 0 0 0 0 0 0 0 0 0 0 0 0 127 0" result="hardAlpha"/>
<feOffset dy="4"/>
<feGaussianBlur stdDeviation="2"/>
<feComposite in2="hardAlpha" operator="out"/>
<feColorMatrix type="matrix" values="0 0 0 0 0 0 0 0 0 0 0 0 0 0 0 0 0 0 0.25 0"/>
<feBlend mode="normal" in2="BackgroundImageFix" result="effect1_dropShadow_141_812"/>
<feBlend mode="normal" in="SourceGraphic" in2="effect1_dropShadow_141_812" result="shape"/>
</filter>
<filter id="filter1_d_141_812" x="227" y="701" width="389" height="145" filterUnits="userSpaceOnUse" color-interpolation-filters="sRGB">
<feFlood flood-opacity="0" result="BackgroundImageFix"/>
<feColorMatrix in="SourceAlpha" type="matrix" values="0 0 0 0 0 0 0 0 0 0 0 0 0 0 0 0 0 0 127 0" result="hardAlpha"/>
<feOffset dx="2" dy="1"/>
<feGaussianBlur stdDeviation="2"/>
<feComposite in2="hardAlpha" operator="out"/>
<feColorMatrix type="matrix" values="0 0 0 0 0 0 0 0 0 0 0 0 0 0 0 0 0 0 0.25 0"/>
<feBlend mode="normal" in2="BackgroundImageFix" result="effect1_dropShadow_141_812"/>
<feBlend mode="normal" in="SourceGraphic" in2="effect1_dropShadow_141_812" result="shape"/>
</filter>
</defs>
</svg>
