<svg width="240" height="560" viewBox="0 0 240 560" fill="none" xmlns="http://www.w3.org/2000/svg">
<path d="M10 3.5H230C233.59 3.5 236.5 6.41015 236.5 10V550C236.5 553.59 233.59 556.5 230 556.5H10C6.41015 556.5 3.5 553.59 3.5 550V10C3.5 6.41015 6.41015 3.5 10 3.5Z" fill="white" stroke="#FC6736" stroke-width="7"/>
<path d="M17 27C17 21.4771 21.4772 17 27 17H213C218.523 17 223 21.4772 223 27V533C223 538.523 218.523 543 213 543H27C21.4772 543 17 538.523 17 533V27Z" fill="#FC6736"/>
<line x1="45" y1="54" x2="195" y2="54" stroke="white" stroke-width="8"/>
<line x1="45" y1="110" x2="195" y2="110" stroke="white" stroke-width="8"/>
<line x1="45" y1="82" x2="195" y2="82" stroke="white" stroke-width="8"/>
<path d="M43.9861 145.191L203.596 156.353C207.728 156.641 210.844 160.225 210.555 164.357L204.765 247.155C204.476 251.287 200.892 254.403 196.76 254.114L37.1499 242.953C33.0179 242.664 29.9024 239.08 30.1914 234.948L35.9812 152.15C36.2701 148.018 39.854 144.903 43.9861 145.191Z" fill="#0C2D57" stroke="white" stroke-width="5"/>
<path d="M64.2185 201.254C65.5646 201.348 66.8001 201.236 67.925 200.918C69.0646 200.601 69.9184 200.271 70.4863 199.928L72.9056 205.699C72.1771 206.236 70.9578 206.746 69.248 207.23C67.5527 207.714 65.5639 207.876 63.2815 207.717C61.1453 207.567 59.167 207.054 57.3464 206.177C55.5258 205.3 53.9457 204.138 52.606 202.692C51.2819 201.232 50.2737 199.566 49.5812 197.694C48.9044 195.809 48.6407 193.799 48.79 191.663C48.9394 189.526 49.4804 187.572 50.413 185.8C51.3466 184.012 52.5706 182.488 54.0849 181.227C55.6139 179.966 57.3409 179.028 59.2658 178.413C61.2064 177.784 63.2447 177.545 65.3809 177.694C67.6633 177.853 69.6102 178.291 71.2215 179.007C72.8475 179.723 73.9839 180.398 74.6306 181.031L71.4316 186.409C70.9179 185.976 70.1184 185.531 69.033 185.073C67.9633 184.601 66.7555 184.318 65.4094 184.224C63.9171 184.119 62.5985 184.262 61.4539 184.653C60.3102 185.029 59.3371 185.593 58.5347 186.345C57.7322 187.098 57.1128 187.966 56.6765 188.95C56.2401 189.934 55.983 190.982 55.9053 192.094C55.8265 193.221 55.9342 194.309 56.2283 195.358C56.5235 196.394 57.0161 197.34 57.706 198.196C58.3959 199.053 59.2804 199.755 60.3597 200.301C61.4399 200.832 62.7262 201.15 64.2185 201.254ZM88.1697 179.817L94.6877 180.273L104.096 210.041L97.0952 209.552L95.395 203.589L84.2462 202.809L81.7108 208.476L74.6879 207.985L88.1697 179.817ZM86.843 197.213L93.6244 197.687L90.9311 187.949L90.8653 187.945L86.843 197.213ZM119.032 181.446C120.831 181.571 122.39 181.879 123.709 182.368C125.027 182.857 126.081 183.35 126.869 183.846C127.658 184.342 128.135 184.67 128.3 184.828L124.77 189.896C124.548 189.704 124.164 189.42 123.617 189.044C123.084 188.668 122.44 188.322 121.683 188.004C120.94 187.688 120.152 187.5 119.318 187.442C118.191 187.363 117.263 187.504 116.532 187.865C115.816 188.212 115.431 188.78 115.376 189.57C115.338 190.112 115.487 190.615 115.822 191.079C116.173 191.53 116.714 191.98 117.448 192.428C118.196 192.862 119.148 193.348 120.301 193.884C121.356 194.355 122.34 194.894 123.253 195.502C124.166 196.11 124.955 196.812 125.62 197.608C126.301 198.391 126.819 199.28 127.176 200.276C127.533 201.271 127.668 202.383 127.582 203.612C127.48 205.075 127.091 206.327 126.415 207.368C125.741 208.394 124.86 209.222 123.772 209.851C122.698 210.482 121.492 210.92 120.151 211.164C118.825 211.424 117.459 211.505 116.054 211.407C114.065 211.268 112.295 210.916 110.747 210.352C109.213 209.789 107.982 209.21 107.053 208.616C106.124 208.022 105.571 207.63 105.393 207.441L109.048 202.162C109.215 202.306 109.536 202.541 110.013 202.869C110.505 203.197 111.105 203.548 111.814 203.921C112.524 204.279 113.281 204.597 114.085 204.874C114.904 205.151 115.716 205.318 116.52 205.375C117.866 205.469 118.894 205.283 119.603 204.818C120.312 204.339 120.697 203.675 120.756 202.826C120.8 202.197 120.628 201.619 120.238 201.092C119.849 200.564 119.245 200.052 118.427 199.553C117.61 199.041 116.583 198.491 115.344 197.904C114.107 197.303 112.958 196.598 111.898 195.789C110.852 194.981 110.023 194.004 109.412 192.858C108.801 191.713 108.552 190.328 108.666 188.704C108.78 187.08 109.331 185.707 110.321 184.586C111.327 183.45 112.598 182.613 114.136 182.074C115.688 181.535 117.32 181.326 119.032 181.446ZM133.241 182.968L139.803 183.427L137.777 212.397L131.215 211.938L133.241 182.968ZM144.873 183.782L163.374 185.076L162.972 190.825L151.011 189.989L150.598 195.893L162.449 196.721L162.059 202.296L150.208 201.467L149.789 207.458L161.75 208.295L161.348 214.045L142.847 212.751L144.873 183.782ZM168.188 185.412L179.995 186.238C181.678 186.355 183.153 186.811 184.421 187.606C185.688 188.4 186.656 189.49 187.324 190.874C188.007 192.245 188.285 193.845 188.157 195.674C188.029 197.503 187.595 198.98 186.855 200.104C186.13 201.215 185.294 202.031 184.346 202.553C183.399 203.06 182.533 203.345 181.75 203.408L187.955 215.905L180.581 215.39L175.109 203.451L173.528 203.34L172.724 214.84L166.162 214.381L168.188 185.412ZM173.846 198.797L176.743 199C177.913 199.082 178.958 198.868 179.875 198.359C180.793 197.85 181.303 196.871 181.404 195.422C181.505 193.974 181.144 192.942 180.319 192.325C179.496 191.694 178.499 191.338 177.329 191.256L174.388 191.05L173.846 198.797Z" fill="white"/>
<circle cx="195" cy="280" r="10" fill="white"/>
<line x1="195" y1="273" x2="195" y2="287" stroke="#FC6736" stroke-width="2"/>
</svg>
