<svg width="438" height="568" viewBox="0 0 438 568" fill="none" xmlns="http://www.w3.org/2000/svg">
<g filter="url(#filter0_d_69_222)">
<path d="M194 10C194 4.47715 198.477 0 204 0H424C429.523 0 434 4.47715 434 10V550C434 555.523 429.523 560 424 560H204C198.477 560 194 555.523 194 550V10Z" fill="white"/>
<path d="M197.5 10C197.5 6.41015 200.41 3.5 204 3.5H424C427.59 3.5 430.5 6.41015 430.5 10V550C430.5 553.59 427.59 556.5 424 556.5H204C200.41 556.5 197.5 553.59 197.5 550V10Z" stroke="#FC6736" stroke-width="7"/>
</g>
<path d="M211 27C211 21.4771 215.477 17 221 17H407C412.523 17 417 21.4772 417 27V533C417 538.523 412.523 543 407 543H221C215.477 543 211 538.523 211 533V27Z" fill="#FC6736"/>
<path d="M229.981 165.15C230.27 161.018 233.854 157.903 237.986 158.191L397.596 169.353C401.728 169.641 404.844 173.225 404.555 177.357L398.765 260.155C398.476 264.287 394.892 267.403 390.76 267.114L231.15 255.953C227.018 255.664 223.902 252.08 224.191 247.948L229.981 165.15Z" fill="#0C2D57" stroke="white" stroke-width="5"/>
<line x1="239" y1="54" x2="389" y2="54" stroke="white" stroke-width="8"/>
<line x1="239" y1="110" x2="389" y2="110" stroke="white" stroke-width="8"/>
<line x1="239" y1="82" x2="389" y2="82" stroke="white" stroke-width="8"/>
<circle cx="394" cy="308" r="10" fill="white"/>
<line x1="394" y1="301" x2="394" y2="315" stroke="#FC6736" stroke-width="2"/>
<path d="M289.655 191.826C290.205 191.865 290.711 191.819 291.171 191.689C291.637 191.559 291.986 191.424 292.219 191.284L293.208 193.645C292.91 193.864 292.412 194.073 291.712 194.271C291.019 194.469 290.205 194.535 289.271 194.47C288.397 194.409 287.588 194.199 286.843 193.84C286.099 193.481 285.452 193.006 284.904 192.414C284.362 191.817 283.95 191.136 283.667 190.37C283.39 189.599 283.282 188.776 283.343 187.902C283.404 187.028 283.625 186.229 284.007 185.504C284.389 184.773 284.89 184.149 285.509 183.633C286.135 183.117 286.841 182.734 287.629 182.482C288.422 182.225 289.256 182.127 290.13 182.188C291.064 182.253 291.86 182.432 292.52 182.725C293.185 183.018 293.65 183.294 293.914 183.553L292.605 185.753C292.395 185.576 292.068 185.394 291.624 185.206C291.187 185.013 290.693 184.898 290.142 184.859C289.531 184.817 288.992 184.875 288.524 185.035C288.056 185.188 287.658 185.419 287.329 185.727C287.001 186.035 286.748 186.39 286.569 186.793C286.391 187.195 286.286 187.624 286.254 188.079C286.222 188.54 286.266 188.985 286.386 189.414C286.507 189.838 286.708 190.225 286.99 190.575C287.273 190.926 287.635 191.213 288.076 191.436C288.518 191.653 289.044 191.783 289.655 191.826ZM300.51 195.039L300.593 193.845C300.531 193.961 300.381 194.125 300.144 194.337C299.912 194.549 299.611 194.736 299.238 194.896C298.867 195.051 298.441 195.111 297.963 195.078C297.244 195.027 296.628 194.81 296.114 194.425C295.6 194.034 295.214 193.535 294.955 192.928C294.697 192.314 294.594 191.648 294.644 190.93C294.694 190.212 294.889 189.57 295.23 189.004C295.57 188.433 296.022 187.989 296.586 187.674C297.149 187.358 297.79 187.225 298.508 187.276C298.969 187.308 299.368 187.411 299.705 187.585C300.042 187.753 300.311 187.946 300.512 188.165C300.714 188.377 300.851 188.57 300.923 188.744L300.998 187.666L303.709 187.856L303.194 195.227L300.51 195.039ZM297.319 191.117C297.296 191.452 297.353 191.76 297.489 192.04C297.627 192.314 297.819 192.535 298.066 192.703C298.318 192.871 298.604 192.966 298.921 192.988C299.25 193.011 299.545 192.957 299.807 192.825C300.069 192.693 300.281 192.5 300.443 192.247C300.612 191.988 300.708 191.691 300.731 191.356C300.754 191.021 300.701 190.716 300.569 190.442C300.445 190.163 300.262 189.939 300.021 189.772C299.78 189.599 299.495 189.501 299.166 189.478C298.849 189.456 298.553 189.513 298.279 189.65C298.011 189.782 297.79 189.977 297.616 190.236C297.442 190.488 297.343 190.782 297.319 191.117ZM308.76 187.993C309.245 188.026 309.685 188.099 310.08 188.211C310.476 188.317 310.805 188.43 311.067 188.551C311.335 188.672 311.506 188.768 311.579 188.839L310.578 190.384C310.47 190.292 310.265 190.17 309.963 190.016C309.667 189.863 309.331 189.774 308.953 189.747C308.666 189.727 308.421 189.755 308.217 189.831C308.013 189.901 307.905 190.029 307.892 190.214C307.879 190.4 307.977 190.557 308.184 190.686C308.398 190.809 308.709 190.927 309.116 191.04C309.47 191.137 309.827 191.276 310.187 191.458C310.547 191.639 310.839 191.891 311.064 192.214C311.294 192.53 311.392 192.94 311.356 193.443C311.32 193.958 311.18 194.375 310.935 194.695C310.69 195.014 310.379 195.254 310.001 195.414C309.623 195.574 309.219 195.675 308.789 195.717C308.358 195.765 307.942 195.775 307.541 195.747C306.979 195.708 306.492 195.623 306.08 195.492C305.674 195.361 305.347 195.221 305.099 195.071C304.85 194.922 304.678 194.804 304.582 194.72L305.587 192.985C305.734 193.128 305.978 193.295 306.319 193.488C306.661 193.674 307.029 193.781 307.424 193.809C307.807 193.835 308.108 193.799 308.325 193.7C308.543 193.601 308.658 193.459 308.671 193.273C308.681 193.124 308.639 193 308.543 192.903C308.448 192.807 308.31 192.719 308.129 192.64C307.948 192.561 307.727 192.485 307.468 192.413C307.232 192.349 306.983 192.256 306.72 192.135C306.458 192.015 306.213 191.859 305.986 191.669C305.759 191.473 305.58 191.235 305.45 190.955C305.319 190.675 305.267 190.344 305.294 189.961C305.328 189.47 305.515 189.074 305.855 188.773C306.195 188.472 306.622 188.258 307.136 188.132C307.65 187.999 308.192 187.953 308.76 187.993ZM312.731 195.894L313.247 188.523L315.976 188.714L315.461 196.085L312.731 195.894ZM314.753 187.103C314.322 187.073 313.968 186.898 313.689 186.578C313.411 186.252 313.287 185.879 313.316 185.46C313.346 185.041 313.521 184.69 313.841 184.405C314.168 184.115 314.544 183.985 314.969 184.015C315.251 184.035 315.503 184.125 315.726 184.284C315.95 184.438 316.126 184.637 316.253 184.881C316.38 185.124 316.434 185.39 316.414 185.677C316.385 186.096 316.207 186.447 315.88 186.731C315.554 187.009 315.178 187.133 314.753 187.103ZM319.731 193.262C319.73 193.526 319.798 193.766 319.933 193.98C320.069 194.194 320.264 194.37 320.519 194.508C320.78 194.64 321.093 194.719 321.459 194.745C321.806 194.769 322.119 194.755 322.4 194.702C322.686 194.65 322.935 194.577 323.146 194.484C323.363 194.391 323.532 194.291 323.654 194.186L324.595 195.948C324.434 196.099 324.211 196.242 323.925 196.379C323.645 196.51 323.28 196.607 322.83 196.672C322.381 196.737 321.818 196.746 321.142 196.698C320.328 196.642 319.614 196.438 319.001 196.089C318.388 195.739 317.919 195.255 317.596 194.637C317.272 194.019 317.14 193.282 317.2 192.426C317.25 191.708 317.451 191.072 317.802 190.519C318.16 189.961 318.65 189.535 319.272 189.242C319.895 188.943 320.628 188.822 321.472 188.881C322.274 188.938 322.958 189.133 323.524 189.467C324.096 189.802 324.52 190.27 324.797 190.873C325.08 191.47 325.191 192.2 325.131 193.062C325.128 193.11 325.118 193.205 325.102 193.349C325.092 193.492 325.079 193.588 325.064 193.635L319.731 193.262ZM322.623 192.029C322.63 191.837 322.593 191.645 322.51 191.453C322.427 191.255 322.295 191.089 322.111 190.956C321.929 190.817 321.688 190.737 321.388 190.716C321.089 190.695 320.831 190.737 320.613 190.842C320.401 190.942 320.235 191.081 320.115 191.259C319.994 191.437 319.92 191.63 319.894 191.839L322.623 192.029ZM328.78 197.016L326.05 196.825L326.566 189.454L329.295 189.645L329.216 190.785L329.171 190.782C329.228 190.648 329.357 190.482 329.557 190.286C329.758 190.083 330.032 189.91 330.378 189.766C330.726 189.616 331.142 189.558 331.627 189.592C331.968 189.615 332.278 189.691 332.558 189.819C332.838 189.941 333.041 190.054 333.166 190.159L331.951 192.303C331.875 192.195 331.732 192.08 331.524 191.957C331.323 191.829 331.063 191.754 330.746 191.731C330.381 191.706 330.072 191.777 329.82 191.946C329.574 192.115 329.384 192.328 329.252 192.583C329.126 192.839 329.055 193.084 329.038 193.317L328.78 197.016ZM343.874 198.072L343.958 196.877C343.896 196.993 343.746 197.157 343.508 197.369C343.277 197.582 342.975 197.768 342.603 197.929C342.232 198.083 341.806 198.143 341.327 198.11C340.609 198.06 339.993 197.842 339.478 197.457C338.965 197.067 338.578 196.567 338.32 195.96C338.062 195.347 337.958 194.681 338.009 193.962C338.059 193.244 338.254 192.602 338.594 192.037C338.935 191.465 339.387 191.021 339.951 190.706C340.514 190.39 341.155 190.258 341.873 190.308C342.334 190.34 342.733 190.443 343.069 190.617C343.406 190.785 343.676 190.978 343.877 191.197C344.079 191.41 344.215 191.603 344.288 191.776L344.363 190.699L347.074 190.888L346.559 198.259L343.874 198.072ZM340.684 194.149C340.661 194.485 340.717 194.792 340.854 195.073C340.991 195.347 341.183 195.568 341.43 195.735C341.683 195.903 341.968 195.999 342.286 196.021C342.615 196.044 342.91 195.989 343.172 195.857C343.434 195.725 343.646 195.532 343.808 195.279C343.976 195.02 344.072 194.723 344.096 194.388C344.119 194.053 344.065 193.748 343.934 193.475C343.809 193.195 343.627 192.972 343.386 192.805C343.145 192.631 342.86 192.533 342.531 192.51C342.214 192.488 341.918 192.546 341.644 192.683C341.376 192.814 341.155 193.01 340.98 193.268C340.806 193.52 340.708 193.814 340.684 194.149ZM344.321 189.622L341.048 187.399L342.455 185.856L345.206 188.574L344.321 189.622ZM279.643 210.622L276.608 210.409L273.217 198.263L276.243 198.475L278.364 207.095L281.665 198.854L284.691 199.066L279.643 210.622ZM286.429 207.975C286.429 208.239 286.496 208.478 286.631 208.692C286.767 208.906 286.962 209.082 287.217 209.221C287.478 209.353 287.792 209.432 288.157 209.458C288.504 209.482 288.818 209.468 289.098 209.415C289.384 209.363 289.633 209.29 289.844 209.197C290.061 209.104 290.23 209.004 290.352 208.898L291.294 210.66C291.133 210.812 290.909 210.955 290.623 211.092C290.343 211.222 289.978 211.32 289.529 211.385C289.079 211.45 288.516 211.459 287.84 211.411C287.026 211.354 286.312 211.151 285.699 210.801C285.086 210.452 284.618 209.968 284.294 209.35C283.97 208.732 283.838 207.995 283.898 207.139C283.948 206.421 284.149 205.785 284.501 205.232C284.858 204.674 285.348 204.248 285.97 203.955C286.593 203.655 287.326 203.535 288.17 203.594C288.972 203.65 289.656 203.846 290.222 204.18C290.794 204.515 291.218 204.983 291.495 205.586C291.778 206.183 291.889 206.913 291.829 207.775C291.826 207.823 291.816 207.918 291.8 208.061C291.79 208.205 291.777 208.3 291.762 208.347L286.429 207.975ZM289.321 206.742C289.328 206.55 289.291 206.358 289.208 206.166C289.126 205.968 288.993 205.802 288.81 205.669C288.627 205.53 288.386 205.45 288.087 205.429C287.787 205.408 287.529 205.45 287.311 205.555C287.1 205.655 286.933 205.793 286.813 205.971C286.692 206.149 286.618 206.343 286.592 206.551L289.321 206.742ZM290.478 203.359L288.4 201.598L286.097 203.043L285.209 201.682L288.54 199.587L291.548 202.125L290.478 203.359ZM292.887 204.141L294.144 204.229L294.355 201.203L297.058 201.392L296.846 204.417L298.498 204.533L298.341 206.778L296.689 206.662L296.545 208.718C296.524 209.023 296.551 209.275 296.628 209.473C296.705 209.664 296.863 209.769 297.102 209.785C297.264 209.797 297.404 209.77 297.523 209.707C297.641 209.643 297.714 209.6 297.739 209.577L298.537 211.582C298.493 211.615 298.357 211.672 298.128 211.752C297.906 211.833 297.625 211.9 297.284 211.954C296.944 212.009 296.567 212.022 296.154 211.993C295.418 211.941 294.825 211.692 294.375 211.246C293.925 210.793 293.731 210.133 293.791 209.265L293.987 206.473L292.73 206.385L292.887 204.141ZM301.913 209.057C301.912 209.322 301.98 209.561 302.115 209.775C302.251 209.989 302.446 210.165 302.701 210.303C302.962 210.436 303.275 210.515 303.64 210.54C303.988 210.565 304.301 210.55 304.582 210.498C304.868 210.446 305.117 210.373 305.328 210.279C305.545 210.186 305.714 210.087 305.836 209.981L306.777 211.743C306.616 211.894 306.393 212.038 306.107 212.174C305.827 212.305 305.462 212.403 305.012 212.468C304.563 212.533 304 212.541 303.323 212.494C302.509 212.437 301.796 212.234 301.183 211.884C300.57 211.535 300.101 211.051 299.778 210.433C299.454 209.815 299.322 209.078 299.382 208.222C299.432 207.503 299.633 206.868 299.984 206.315C300.342 205.757 300.832 205.331 301.454 205.037C302.076 204.738 302.81 204.618 303.654 204.677C304.456 204.733 305.14 204.928 305.706 205.263C306.278 205.597 306.702 206.066 306.979 206.669C307.262 207.266 307.373 207.996 307.313 208.857C307.309 208.905 307.3 209.001 307.284 209.144C307.274 209.288 307.261 209.383 307.246 209.43L301.913 209.057ZM304.805 207.825C304.812 207.633 304.774 207.441 304.692 207.249C304.609 207.05 304.477 206.885 304.293 206.752C304.111 206.613 303.87 206.533 303.57 206.512C303.271 206.491 303.013 206.533 302.795 206.638C302.583 206.737 302.417 206.876 302.296 207.054C302.176 207.232 302.102 207.425 302.075 207.634L304.805 207.825ZM319.133 205.759C319.689 205.798 320.172 205.949 320.58 206.213C320.99 206.47 321.297 206.846 321.503 207.342C321.715 207.838 321.794 208.463 321.742 209.217L321.439 213.544L318.755 213.357L319.028 209.442C319.064 208.927 319.016 208.506 318.882 208.178C318.749 207.85 318.452 207.67 317.991 207.637C317.715 207.618 317.468 207.673 317.249 207.802C317.029 207.931 316.853 208.12 316.722 208.37C316.59 208.613 316.512 208.911 316.488 209.264L316.214 213.179L313.709 213.004L313.983 209.089C314.019 208.575 313.961 208.152 313.81 207.823C313.664 207.494 313.376 207.315 312.945 207.284C312.67 207.265 312.422 207.32 312.203 207.449C311.984 207.572 311.808 207.758 311.677 208.008C311.551 208.252 311.476 208.553 311.451 208.912L311.177 212.827L308.466 212.637L308.981 205.266L311.693 205.456L311.619 206.506C311.704 206.326 311.873 206.148 312.126 205.973C312.385 205.793 312.699 205.649 313.067 205.543C313.436 205.43 313.821 205.388 314.222 205.416C314.659 205.447 315.019 205.538 315.303 205.69C315.588 205.836 315.815 206.024 315.986 206.252C316.162 206.481 316.298 206.725 316.394 206.984C316.493 206.775 316.673 206.571 316.933 206.372C317.2 206.169 317.524 206.008 317.905 205.89C318.293 205.773 318.702 205.729 319.133 205.759ZM325.41 210.7C325.41 210.965 325.477 211.204 325.612 211.418C325.748 211.632 325.943 211.808 326.198 211.946C326.459 212.079 326.773 212.158 327.138 212.183C327.485 212.208 327.799 212.194 328.079 212.141C328.365 212.089 328.614 212.016 328.825 211.923C329.042 211.829 329.211 211.73 329.333 211.624L330.275 213.386C330.114 213.537 329.89 213.681 329.604 213.817C329.324 213.948 328.959 214.046 328.51 214.111C328.06 214.176 327.497 214.184 326.821 214.137C326.007 214.08 325.293 213.877 324.68 213.527C324.067 213.178 323.599 212.694 323.275 212.076C322.951 211.458 322.819 210.721 322.879 209.865C322.929 209.147 323.13 208.511 323.482 207.958C323.839 207.4 324.329 206.974 324.951 206.681C325.574 206.381 326.307 206.261 327.151 206.32C327.953 206.376 328.637 206.571 329.203 206.906C329.775 207.24 330.199 207.709 330.476 208.312C330.759 208.909 330.87 209.639 330.81 210.501C330.807 210.548 330.797 210.644 330.781 210.787C330.771 210.931 330.758 211.026 330.743 211.073L325.41 210.7ZM328.302 209.468C328.309 209.276 328.272 209.084 328.189 208.892C328.107 208.694 327.974 208.528 327.791 208.395C327.608 208.256 327.367 208.176 327.068 208.155C326.768 208.134 326.51 208.176 326.292 208.281C326.081 208.38 325.914 208.519 325.794 208.697C325.673 208.875 325.599 209.069 325.573 209.277L328.302 209.468ZM337.566 207.048C338.081 207.084 338.576 207.224 339.053 207.468C339.529 207.712 339.91 208.072 340.195 208.549C340.481 209.021 340.598 209.624 340.546 210.36L340.232 214.858L337.494 214.667L337.777 210.618C337.814 210.091 337.716 209.687 337.483 209.406C337.25 209.119 336.93 208.962 336.523 208.933C336.254 208.914 335.994 208.968 335.745 209.095C335.502 209.217 335.297 209.401 335.129 209.648C334.968 209.889 334.876 210.174 334.853 210.504L334.576 214.463L331.846 214.272L332.362 206.901L335.091 207.092L335.015 208.178C335.101 207.986 335.264 207.799 335.506 207.617C335.753 207.43 336.055 207.283 336.412 207.175C336.774 207.062 337.159 207.02 337.566 207.048ZM341.705 207.554L342.962 207.642L343.173 204.617L345.876 204.806L345.664 207.831L347.316 207.947L347.159 210.191L345.507 210.076L345.364 212.132C345.342 212.437 345.37 212.688 345.446 212.886C345.523 213.078 345.681 213.182 345.92 213.199C346.082 213.21 346.222 213.184 346.341 213.12C346.46 213.056 346.532 213.013 346.558 212.991L347.356 214.996C347.311 215.029 347.175 215.085 346.947 215.166C346.725 215.246 346.443 215.314 346.103 215.368C345.762 215.423 345.385 215.435 344.972 215.406C344.236 215.355 343.643 215.106 343.193 214.659C342.743 214.207 342.549 213.547 342.61 212.679L342.805 209.887L341.548 209.799L341.705 207.554ZM352.176 208.07C352.66 208.104 353.1 208.177 353.496 208.289C353.891 208.394 354.22 208.508 354.482 208.628C354.75 208.749 354.921 208.845 354.994 208.917L353.993 210.462C353.885 210.37 353.68 210.247 353.378 210.094C353.082 209.941 352.746 209.851 352.369 209.825C352.081 209.805 351.836 209.833 351.632 209.909C351.429 209.979 351.32 210.106 351.307 210.292C351.294 210.477 351.392 210.635 351.599 210.763C351.813 210.887 352.124 211.005 352.531 211.117C352.885 211.214 353.242 211.353 353.602 211.535C353.963 211.717 354.255 211.969 354.479 212.291C354.709 212.608 354.807 213.018 354.772 213.52C354.736 214.035 354.595 214.452 354.35 214.772C354.105 215.092 353.794 215.332 353.416 215.492C353.038 215.652 352.634 215.753 352.204 215.795C351.773 215.843 351.358 215.853 350.957 215.825C350.394 215.786 349.907 215.7 349.495 215.569C349.089 215.439 348.762 215.298 348.514 215.149C348.266 214.999 348.093 214.882 347.997 214.797L349.003 213.063C349.149 213.205 349.393 213.373 349.734 213.565C350.076 213.751 350.445 213.858 350.84 213.886C351.223 213.913 351.523 213.877 351.74 213.778C351.958 213.678 352.073 213.536 352.086 213.351C352.096 213.201 352.054 213.078 351.958 212.981C351.863 212.884 351.725 212.796 351.544 212.717C351.363 212.638 351.143 212.563 350.883 212.491C350.647 212.426 350.398 212.333 350.136 212.213C349.873 212.092 349.629 211.937 349.401 211.746C349.174 211.55 348.996 211.312 348.865 211.032C348.734 210.752 348.682 210.421 348.709 210.038C348.743 209.547 348.93 209.151 349.27 208.85C349.61 208.549 350.037 208.335 350.551 208.209C351.065 208.077 351.607 208.03 352.176 208.07ZM286.821 249.417L288.383 227.071L294.793 227.52L294.605 230.2L291.164 229.96L289.976 246.943L293.418 247.184L293.23 249.865L286.821 249.417ZM305.049 242.07C305.814 242.124 306.516 242.06 307.155 241.879C307.802 241.699 308.287 241.512 308.61 241.317L309.985 244.596C309.571 244.901 308.878 245.191 307.906 245.466C306.943 245.741 305.813 245.833 304.516 245.742C303.303 245.657 302.179 245.366 301.144 244.867C300.11 244.369 299.212 243.709 298.451 242.887C297.698 242.058 297.126 241.111 296.732 240.048C296.348 238.977 296.198 237.834 296.283 236.621C296.368 235.407 296.675 234.297 297.205 233.289C297.735 232.274 298.431 231.408 299.291 230.691C300.16 229.975 301.141 229.442 302.235 229.093C303.337 228.735 304.496 228.599 305.709 228.684C307.006 228.775 308.112 229.023 309.028 229.43C309.952 229.837 310.597 230.22 310.965 230.58L309.147 233.636C308.855 233.39 308.401 233.137 307.784 232.876C307.177 232.608 306.49 232.448 305.725 232.394C304.878 232.335 304.128 232.416 303.478 232.638C302.828 232.851 302.275 233.172 301.819 233.6C301.363 234.027 301.011 234.52 300.764 235.079C300.516 235.639 300.37 236.234 300.325 236.866C300.281 237.506 300.342 238.124 300.509 238.721C300.677 239.309 300.957 239.846 301.349 240.333C301.741 240.82 302.243 241.218 302.856 241.529C303.47 241.831 304.201 242.011 305.049 242.07ZM321.297 246.615L317.082 246.32L312.373 229.451L316.575 229.744L319.522 241.717L324.107 230.271L328.309 230.565L321.297 246.615ZM328.723 252.347L328.911 249.666L332.352 249.907L333.54 232.923L330.098 232.682L330.286 230.001L336.695 230.45L335.132 252.795L328.723 252.347Z" fill="white"/>
<defs>
<filter id="filter0_d_69_222" x="190" y="0" width="248" height="568" filterUnits="userSpaceOnUse" color-interpolation-filters="sRGB">
<feFlood flood-opacity="0" result="BackgroundImageFix"/>
<feColorMatrix in="SourceAlpha" type="matrix" values="0 0 0 0 0 0 0 0 0 0 0 0 0 0 0 0 0 0 127 0" result="hardAlpha"/>
<feOffset dy="4"/>
<feGaussianBlur stdDeviation="2"/>
<feComposite in2="hardAlpha" operator="out"/>
<feColorMatrix type="matrix" values="0 0 0 0 0 0 0 0 0 0 0 0 0 0 0 0 0 0 0.25 0"/>
<feBlend mode="normal" in2="BackgroundImageFix" result="effect1_dropShadow_69_222"/>
<feBlend mode="normal" in="SourceGraphic" in2="effect1_dropShadow_69_222" result="shape"/>
</filter>
</defs>
</svg>
