<svg width="950" height="541" viewBox="0 0 950 541" fill="none" xmlns="http://www.w3.org/2000/svg">
<g filter="url(#filter0_d_25_66)">
<path d="M472 50L838 167.5V218H106V167.5L472 50Z" fill="#FC6736"/>
</g>
<g filter="url(#filter1_d_25_66)">
<mask id="path-2-inside-1_25_66" fill="white">
<path d="M156 512H788V533H156V512Z"/>
</mask>
<path d="M156 512H788V533H156V512Z" fill="#D9D9D9"/>
<path d="M156 512V509H153V512H156ZM788 512H791V509H788V512ZM156 515H788V509H156V515ZM785 512V533H791V512H785ZM159 533V512H153V533H159Z" fill="white" mask="url(#path-2-inside-1_25_66)"/>
</g>
<mask id="path-4-inside-2_25_66" fill="white">
<path d="M156 470H788V491H156V470Z"/>
</mask>
<path d="M156 470H788V491H156V470Z" fill="#D9D9D9"/>
<path d="M156 470V467H153V470H156ZM788 470H791V467H788V470ZM156 473H788V467H156V473ZM785 470V491H791V470H785ZM159 491V470H153V491H159Z" fill="white" mask="url(#path-4-inside-2_25_66)"/>
<mask id="path-6-inside-3_25_66" fill="white">
<path d="M156 491H788V512H156V491Z"/>
</mask>
<path d="M156 491H788V512H156V491Z" fill="#D9D9D9"/>
<path d="M156 491V488H153V491H156ZM788 491H791V488H788V491ZM156 494H788V488H156V494ZM785 491V512H791V491H785ZM159 512V491H153V512H159Z" fill="white" mask="url(#path-6-inside-3_25_66)"/>
<mask id="path-8-inside-4_25_66" fill="white">
<path d="M156 428H788V449H156V428Z"/>
</mask>
<path d="M156 428H788V449H156V428Z" fill="#D9D9D9"/>
<path d="M156 428V425H153V428H156ZM788 428H791V425H788V428ZM156 431H788V425H156V431ZM785 428V449H791V428H785ZM159 449V428H153V449H159Z" fill="white" mask="url(#path-8-inside-4_25_66)"/>
<mask id="path-10-inside-5_25_66" fill="white">
<path d="M156 449H788V470H156V449Z"/>
</mask>
<path d="M156 449H788V470H156V449Z" fill="#D9D9D9"/>
<path d="M156 449V446H153V449H156ZM788 449H791V446H788V449ZM156 452H788V446H156V452ZM785 449V470H791V449H785ZM159 470V449H153V470H159Z" fill="white" mask="url(#path-10-inside-5_25_66)"/>
<mask id="path-12-inside-6_25_66" fill="white">
<path d="M156 386H788V407H156V386Z"/>
</mask>
<path d="M156 386H788V407H156V386Z" fill="#D9D9D9"/>
<path d="M156 386V383H153V386H156ZM788 386H791V383H788V386ZM156 389H788V383H156V389ZM785 386V407H791V386H785ZM159 407V386H153V407H159Z" fill="white" mask="url(#path-12-inside-6_25_66)"/>
<mask id="path-14-inside-7_25_66" fill="white">
<path d="M156 407H788V428H156V407Z"/>
</mask>
<path d="M156 407H788V428H156V407Z" fill="#D9D9D9"/>
<path d="M156 407V404H153V407H156ZM788 407H791V404H788V407ZM156 410H788V404H156V410ZM785 407V428H791V407H785ZM159 428V407H153V428H159Z" fill="white" mask="url(#path-14-inside-7_25_66)"/>
<mask id="path-16-inside-8_25_66" fill="white">
<path d="M156 344H788V365H156V344Z"/>
</mask>
<path d="M156 344H788V365H156V344Z" fill="#D9D9D9"/>
<path d="M156 344V341H153V344H156ZM788 344H791V341H788V344ZM156 347H788V341H156V347ZM785 344V365H791V344H785ZM159 365V344H153V365H159Z" fill="white" mask="url(#path-16-inside-8_25_66)"/>
<mask id="path-18-inside-9_25_66" fill="white">
<path d="M156 365H788V386H156V365Z"/>
</mask>
<path d="M156 365H788V386H156V365Z" fill="#D9D9D9"/>
<path d="M156 365V362H153V365H156ZM788 365H791V362H788V365ZM156 368H788V362H156V368ZM785 365V386H791V365H785ZM159 386V365H153V386H159Z" fill="white" mask="url(#path-18-inside-9_25_66)"/>
<mask id="path-20-inside-10_25_66" fill="white">
<path d="M156 302H788V323H156V302Z"/>
</mask>
<path d="M156 302H788V323H156V302Z" fill="#D9D9D9"/>
<path d="M156 302V299H153V302H156ZM788 302H791V299H788V302ZM156 305H788V299H156V305ZM785 302V323H791V302H785ZM159 323V302H153V323H159Z" fill="white" mask="url(#path-20-inside-10_25_66)"/>
<mask id="path-22-inside-11_25_66" fill="white">
<path d="M156 323H788V344H156V323Z"/>
</mask>
<path d="M156 323H788V344H156V323Z" fill="#D9D9D9"/>
<path d="M156 323V320H153V323H156ZM788 323H791V320H788V323ZM156 326H788V320H156V326ZM785 323V344H791V323H785ZM159 344V323H153V344H159Z" fill="white" mask="url(#path-22-inside-11_25_66)"/>
<mask id="path-24-inside-12_25_66" fill="white">
<path d="M156 260H788V281H156V260Z"/>
</mask>
<path d="M156 260H788V281H156V260Z" fill="#D9D9D9"/>
<path d="M156 260V257H153V260H156ZM788 260H791V257H788V260ZM156 263H788V257H156V263ZM785 260V281H791V260H785ZM159 281V260H153V281H159Z" fill="white" mask="url(#path-24-inside-12_25_66)"/>
<mask id="path-26-inside-13_25_66" fill="white">
<path d="M156 281H788V302H156V281Z"/>
</mask>
<path d="M156 281H788V302H156V281Z" fill="#D9D9D9"/>
<path d="M156 281V278H153V281H156ZM788 281H791V278H788V281ZM156 284H788V278H156V284ZM785 281V302H791V281H785ZM159 302V281H153V302H159Z" fill="white" mask="url(#path-26-inside-13_25_66)"/>
<mask id="path-28-inside-14_25_66" fill="white">
<path d="M156 239H788V260H156V239Z"/>
</mask>
<path d="M156 239H788V260H156V239Z" fill="#D9D9D9"/>
<path d="M156 239V236H153V239H156ZM788 239H791V236H788V239ZM156 242H788V236H156V242ZM785 239V260H791V239H785ZM159 260V239H153V260H159Z" fill="white" mask="url(#path-28-inside-14_25_66)"/>
<g filter="url(#filter2_d_25_66)">
<rect x="106" y="239" width="50" height="294" fill="#FC6736"/>
</g>
<g filter="url(#filter3_d_25_66)">
<rect x="788" y="239" width="50" height="294" fill="#FC6736"/>
</g>
<g filter="url(#filter4_d_25_66)">
<rect x="156" y="215" width="632" height="3" fill="#FC6736"/>
</g>
<rect x="106" y="218" width="732" height="21" fill="#FC6736"/>
<g filter="url(#filter5_d_25_66)">
<path d="M838 167.324L888 183.367V533H838V167.324Z" fill="#FC6736"/>
</g>
<g filter="url(#filter6_d_25_66)">
<path d="M56 183.363L106 167.332V533H56V183.363Z" fill="#FC6736"/>
</g>
<g filter="url(#filter7_d_25_66)">
<path d="M472 0V50L1 201C1 181.474 1 170.526 1 151L472 0Z" fill="#FC6736"/>
</g>
<g filter="url(#filter8_d_25_66)">
<path d="M943 151V201L472 50C472 30.4738 472 19.5262 472 0L943 151Z" fill="#FC6736"/>
</g>
<g filter="url(#filter9_d_25_66)">
<path d="M321.868 131.294C321.291 125.802 325.275 120.881 330.768 120.304L597.3 92.29C602.792 91.7127 607.713 95.6973 608.29 101.19L617.844 192.089C618.422 197.582 614.437 202.503 608.944 203.08L342.412 231.094C336.92 231.671 331.999 227.686 331.422 222.194L321.868 131.294Z" fill="#0C2D57"/>
<path d="M324.354 131.033C323.921 126.913 326.91 123.223 331.029 122.79L597.561 94.7763C601.681 94.3433 605.371 97.3318 605.804 101.451L615.358 192.351C615.791 196.47 612.802 200.161 608.683 200.594L342.151 228.607C338.032 229.04 334.341 226.052 333.908 221.932L324.354 131.033Z" stroke="white" stroke-width="5"/>
</g>
<path d="M414.297 127.887L425.615 126.698L425.985 130.215L418.668 130.984L419.047 134.596L426.298 133.834L426.656 137.244L419.406 138.006L419.791 141.672L427.108 140.903L427.478 144.42L416.16 145.61L414.297 127.887ZM436.91 131.958C437.68 131.878 438.449 131.955 439.215 132.191C439.982 132.427 440.639 132.861 441.185 133.491C441.73 134.113 442.06 134.974 442.176 136.075L442.883 142.801L438.788 143.231L438.151 137.176C438.068 136.389 437.818 135.818 437.401 135.463C436.983 135.1 436.469 134.95 435.861 135.014C435.458 135.057 435.089 135.204 434.753 135.457C434.426 135.699 434.171 136.025 433.987 136.433C433.812 136.832 433.75 137.277 433.802 137.769L434.424 143.69L430.343 144.119L429.184 133.096L433.266 132.667L433.436 134.292C433.513 133.985 433.705 133.666 434.015 133.335C434.332 132.994 434.739 132.698 435.238 132.446C435.744 132.185 436.302 132.022 436.91 131.958ZM443.156 131.628L445.036 131.43L444.56 126.906L448.601 126.481L449.077 131.005L451.547 130.746L451.9 134.102L449.43 134.362L449.753 137.437C449.801 137.893 449.907 138.257 450.071 138.53C450.235 138.793 450.495 138.906 450.854 138.868C451.095 138.843 451.295 138.768 451.454 138.642C451.613 138.517 451.708 138.435 451.74 138.395L453.442 141.148C453.385 141.209 453.198 141.328 452.882 141.506C452.575 141.683 452.177 141.856 451.688 142.025C451.199 142.194 450.645 142.311 450.028 142.376C448.927 142.492 447.986 142.278 447.205 141.736C446.423 141.185 445.964 140.26 445.827 138.962L445.388 134.787L443.509 134.984L443.156 131.628ZM458.742 141.134L454.66 141.563L453.502 130.54L457.583 130.111L457.762 131.817L457.695 131.824C457.745 131.61 457.892 131.332 458.137 130.99C458.381 130.638 458.74 130.311 459.215 130.008C459.689 129.696 460.288 129.501 461.013 129.425C461.523 129.372 462.002 129.403 462.448 129.519C462.894 129.626 463.223 129.74 463.435 129.863L462.199 133.346C462.058 133.207 461.817 133.074 461.478 132.946C461.147 132.809 460.744 132.766 460.27 132.815C459.724 132.873 459.287 133.059 458.958 133.374C458.638 133.688 458.413 134.051 458.285 134.463C458.165 134.874 458.124 135.254 458.16 135.603L458.742 141.134ZM468.128 135.451C468.196 135.842 468.358 136.178 468.614 136.459C468.87 136.739 469.204 136.949 469.617 137.086C470.037 137.214 470.521 137.249 471.067 137.192C471.586 137.137 472.046 137.035 472.446 136.884C472.855 136.732 473.204 136.56 473.491 136.367C473.788 136.173 474.012 135.982 474.164 135.794L476.014 138.151C475.815 138.417 475.522 138.687 475.135 138.963C474.756 139.229 474.243 139.469 473.595 139.682C472.948 139.894 472.119 140.054 471.107 140.16C469.89 140.288 468.783 140.174 467.786 139.817C466.789 139.46 465.971 138.868 465.332 138.039C464.693 137.21 464.306 136.156 464.172 134.876C464.059 133.802 464.19 132.811 464.565 131.902C464.948 130.984 465.561 130.228 466.403 129.632C467.245 129.028 468.297 128.66 469.559 128.527C470.758 128.401 471.819 128.511 472.743 128.857C473.675 129.203 474.424 129.785 474.989 130.603C475.563 131.412 475.918 132.46 476.053 133.749C476.061 133.821 476.071 133.965 476.085 134.18C476.107 134.395 476.114 134.539 476.103 134.613L468.128 135.451ZM472.079 132.877C472.04 132.592 471.934 132.318 471.762 132.055C471.589 131.784 471.349 131.574 471.044 131.425C470.738 131.267 470.361 131.212 469.914 131.259C469.466 131.306 469.095 131.435 468.801 131.647C468.514 131.849 468.305 132.098 468.173 132.392C468.041 132.686 467.983 132.991 467.998 133.306L472.079 132.877ZM483.342 144.196L479.301 144.62L477.555 128.012L481.637 127.583L481.806 129.194C481.905 128.931 482.114 128.633 482.432 128.301C482.758 127.959 483.183 127.652 483.706 127.379C484.237 127.097 484.852 126.92 485.55 126.846C486.624 126.733 487.57 126.901 488.386 127.349C489.211 127.796 489.876 128.441 490.381 129.284C490.885 130.118 491.193 131.072 491.306 132.146C491.419 133.22 491.303 134.223 490.958 135.155C490.611 136.079 490.067 136.846 489.326 137.458C488.593 138.06 487.69 138.417 486.615 138.53C485.846 138.611 485.174 138.546 484.6 138.335C484.033 138.114 483.576 137.854 483.228 137.556C482.888 137.248 482.668 137.004 482.568 136.825L483.342 144.196ZM487.319 132.565C487.266 132.064 487.107 131.628 486.842 131.258C486.576 130.879 486.239 130.597 485.83 130.414C485.43 130.221 484.993 130.149 484.518 130.199C484.026 130.251 483.595 130.414 483.226 130.688C482.864 130.952 482.593 131.297 482.411 131.724C482.229 132.141 482.164 132.6 482.217 133.101C482.27 133.603 482.429 134.043 482.695 134.422C482.96 134.792 483.297 135.069 483.705 135.253C484.123 135.435 484.578 135.5 485.07 135.449C485.544 135.399 485.958 135.242 486.31 134.979C486.671 134.715 486.943 134.374 487.126 133.956C487.307 133.53 487.371 133.066 487.319 132.565ZM499.596 137.166C498.388 137.293 497.288 137.16 496.296 136.766C495.313 136.363 494.507 135.755 493.878 134.944C493.258 134.122 492.889 133.147 492.77 132.019C492.652 130.892 492.81 129.861 493.246 128.929C493.69 127.986 494.351 127.211 495.228 126.603C496.114 125.994 497.161 125.626 498.37 125.499C499.578 125.372 500.67 125.515 501.646 125.928C502.621 126.342 503.415 126.964 504.027 127.796C504.639 128.618 505.004 129.593 505.122 130.721C505.241 131.849 505.086 132.879 504.659 133.81C504.232 134.733 503.583 135.494 502.714 136.092C501.844 136.681 500.804 137.039 499.596 137.166ZM499.243 133.81C499.709 133.761 500.101 133.615 500.419 133.374C500.738 133.132 500.971 132.813 501.119 132.418C501.268 132.022 501.317 131.587 501.267 131.113C501.217 130.629 501.077 130.21 500.85 129.853C500.622 129.497 500.327 129.23 499.965 129.051C499.602 128.871 499.188 128.806 498.722 128.855C498.257 128.904 497.861 129.054 497.535 129.306C497.217 129.557 496.98 129.88 496.822 130.277C496.674 130.672 496.625 131.112 496.676 131.595C496.726 132.07 496.864 132.485 497.092 132.841C497.328 133.196 497.627 133.459 497.989 133.629C498.36 133.798 498.778 133.858 499.243 133.81ZM501.543 124.568L498.015 122.509L494.99 125.243L493.323 123.464L497.699 119.502L502.802 122.467L501.543 124.568ZM505.723 125.052L507.603 124.854L507.128 120.33L511.169 119.905L511.644 124.429L514.115 124.17L514.468 127.526L511.997 127.786L512.32 130.86C512.368 131.317 512.474 131.681 512.639 131.954C512.802 132.217 513.063 132.33 513.421 132.292C513.663 132.267 513.863 132.191 514.022 132.066C514.18 131.941 514.276 131.859 514.308 131.819L516.009 134.572C515.952 134.632 515.765 134.752 515.449 134.93C515.142 135.107 514.744 135.28 514.255 135.449C513.766 135.618 513.213 135.735 512.595 135.8C511.494 135.915 510.553 135.702 509.772 135.16C508.99 134.609 508.531 133.684 508.395 132.386L507.956 128.211L506.076 128.408L505.723 125.052Z" fill="white"/>
<path d="M340.823 206.947L337.358 173.976L346.815 172.982L347.231 176.938L342.153 177.472L344.786 202.531L349.864 201.997L350.28 205.953L340.823 206.947ZM350.653 173.621L359.484 172.692C361.042 172.529 362.475 172.657 363.784 173.077C365.092 173.486 366.173 174.209 367.026 175.248C367.89 176.273 368.41 177.62 368.585 179.288C368.759 180.944 368.534 182.394 367.908 183.638C367.293 184.868 366.392 185.856 365.206 186.6C364.018 187.333 362.645 187.781 361.087 187.945L357.757 188.295L358.706 197.329L353.205 197.907L350.653 173.621ZM357.301 183.953L359.104 183.763C359.852 183.685 360.509 183.504 361.074 183.221C361.652 182.937 362.094 182.537 362.399 182.022C362.703 181.494 362.813 180.831 362.73 180.034C362.645 179.224 362.4 178.605 361.995 178.176C361.589 177.735 361.075 177.442 360.452 177.297C359.841 177.15 359.162 177.116 358.413 177.195L356.61 177.384L357.301 183.953ZM377.922 195.309L372.329 195.897L370.741 180.791L376.334 180.204L376.58 182.54L376.488 182.55C376.557 182.257 376.758 181.877 377.093 181.407C377.427 180.926 377.92 180.477 378.57 180.062C379.22 179.634 380.041 179.368 381.035 179.263C381.734 179.19 382.39 179.232 383.002 179.391C383.612 179.538 384.063 179.695 384.353 179.863L382.66 184.636C382.466 184.445 382.137 184.263 381.672 184.088C381.219 183.901 380.667 183.841 380.016 183.909C379.268 183.988 378.669 184.243 378.218 184.675C377.78 185.105 377.472 185.603 377.296 186.167C377.132 186.73 377.075 187.25 377.125 187.729L377.922 195.309ZM394.739 193.988C393.083 194.162 391.575 193.979 390.217 193.44C388.869 192.887 387.764 192.055 386.903 190.942C386.053 189.816 385.547 188.48 385.385 186.935C385.222 185.389 385.44 183.978 386.037 182.7C386.645 181.408 387.551 180.345 388.753 179.512C389.967 178.678 391.402 178.173 393.058 177.999C394.714 177.825 396.21 178.022 397.547 178.588C398.884 179.154 399.972 180.007 400.811 181.147C401.649 182.274 402.149 183.61 402.311 185.156C402.474 186.701 402.263 188.113 401.677 189.389C401.091 190.654 400.202 191.696 399.011 192.516C397.819 193.323 396.394 193.814 394.739 193.988ZM394.255 189.388C394.893 189.321 395.43 189.122 395.867 188.791C396.303 188.46 396.623 188.023 396.826 187.481C397.03 186.939 397.097 186.343 397.029 185.692C396.959 185.03 396.769 184.455 396.457 183.967C396.145 183.479 395.741 183.112 395.244 182.867C394.747 182.621 394.179 182.532 393.542 182.599C392.904 182.666 392.361 182.872 391.914 183.217C391.479 183.56 391.153 184.003 390.937 184.547C390.734 185.089 390.667 185.691 390.737 186.354C390.805 187.004 390.995 187.573 391.307 188.061C391.631 188.548 392.041 188.908 392.536 189.141C393.044 189.373 393.617 189.455 394.255 189.388ZM407.028 200.435C405.924 200.551 405.004 200.536 404.27 200.39C403.524 200.257 402.962 200.099 402.583 199.916L403.857 195.578C404.07 195.717 404.29 195.805 404.517 195.843C404.746 195.894 405.001 195.904 405.283 195.874C405.615 195.84 405.881 195.719 406.082 195.511C406.296 195.303 406.439 195.009 406.51 194.629C406.596 194.261 406.611 193.813 406.555 193.285L404.865 177.205L410.458 176.617L412.241 193.581C412.364 194.746 412.272 195.822 411.967 196.809C411.661 197.796 411.108 198.611 410.307 199.253C409.507 199.895 408.414 200.289 407.028 200.435ZM407.372 173.798C406.513 173.888 405.739 173.659 405.049 173.112C404.37 172.551 403.985 171.841 403.895 170.982C403.834 170.406 403.92 169.864 404.152 169.355C404.383 168.847 404.723 168.421 405.171 168.076C405.618 167.732 406.13 167.529 406.706 167.469C407.295 167.407 407.844 167.498 408.354 167.742C408.862 167.974 409.282 168.314 409.614 168.763C409.959 169.21 410.162 169.728 410.224 170.317C410.314 171.176 410.079 171.951 409.52 172.642C408.971 173.32 408.255 173.705 407.372 173.798ZM419.677 184.484C419.77 185.02 419.992 185.48 420.343 185.865C420.693 186.25 421.151 186.537 421.717 186.725C422.293 186.9 422.955 186.948 423.704 186.87C424.415 186.795 425.045 186.654 425.594 186.448C426.155 186.24 426.632 186.004 427.026 185.739C427.432 185.473 427.739 185.212 427.948 184.954L430.483 188.185C430.211 188.548 429.81 188.919 429.279 189.297C428.759 189.662 428.056 189.99 427.169 190.282C426.282 190.573 425.145 190.792 423.759 190.938C422.091 191.113 420.574 190.956 419.208 190.467C417.842 189.978 416.721 189.166 415.845 188.03C414.969 186.895 414.439 185.45 414.255 183.696C414.1 182.224 414.28 180.866 414.794 179.621C415.319 178.363 416.159 177.326 417.313 176.51C418.466 175.682 419.908 175.177 421.637 174.996C423.281 174.823 424.735 174.974 426 175.449C427.278 175.922 428.304 176.719 429.079 177.841C429.865 178.949 430.351 180.386 430.537 182.152C430.547 182.25 430.562 182.447 430.58 182.743C430.611 183.037 430.62 183.235 430.605 183.335L419.677 184.484ZM425.091 180.957C425.038 180.566 424.893 180.191 424.656 179.831C424.419 179.459 424.091 179.171 423.673 178.967C423.253 178.751 422.737 178.675 422.124 178.739C421.51 178.804 421.002 178.981 420.598 179.272C420.206 179.549 419.919 179.889 419.738 180.292C419.557 180.696 419.477 181.113 419.498 181.545L425.091 180.957ZM431.344 174.422L433.92 174.151L433.269 167.951L438.807 167.369L439.458 173.569L442.844 173.213L443.327 177.813L439.942 178.169L440.385 182.382C440.45 183.008 440.596 183.507 440.821 183.88C441.045 184.241 441.402 184.396 441.893 184.344C442.224 184.309 442.498 184.206 442.716 184.034C442.934 183.863 443.064 183.75 443.108 183.695L445.439 187.468C445.361 187.551 445.106 187.714 444.672 187.958C444.251 188.201 443.706 188.438 443.036 188.67C442.366 188.901 441.607 189.062 440.761 189.151C439.252 189.309 437.963 189.017 436.893 188.274C435.821 187.518 435.192 186.251 435.005 184.473L434.404 178.751L431.828 179.021L431.344 174.422ZM452.724 171.728C453.718 171.624 454.635 171.614 455.475 171.7C456.313 171.773 457.019 171.885 457.593 172.035C458.179 172.184 458.559 172.318 458.733 172.436L457.258 175.921C457.006 175.774 456.548 175.599 455.882 175.396C455.228 175.192 454.514 175.13 453.742 175.212C453.153 175.273 452.666 175.418 452.28 175.644C451.894 175.858 451.72 176.156 451.76 176.536C451.8 176.916 452.053 177.2 452.519 177.386C452.996 177.559 453.667 177.687 454.531 177.77C455.283 177.84 456.055 177.994 456.849 178.233C457.643 178.472 458.325 178.878 458.893 179.451C459.473 180.01 459.817 180.805 459.925 181.835C460.036 182.89 459.901 183.784 459.519 184.519C459.138 185.254 458.593 185.85 457.884 186.309C457.176 186.768 456.394 187.117 455.539 187.356C454.685 187.607 453.847 187.775 453.025 187.862C451.872 187.983 450.855 187.984 449.975 187.866C449.106 187.747 448.394 187.58 447.839 187.365C447.283 187.151 446.892 186.975 446.667 186.837L448.083 182.968C448.431 183.204 448.984 183.456 449.744 183.724C450.502 183.979 451.286 184.064 452.096 183.979C452.881 183.896 453.476 183.716 453.881 183.438C454.286 183.159 454.468 182.83 454.428 182.45C454.396 182.143 454.266 181.909 454.038 181.747C453.81 181.585 453.499 181.456 453.104 181.361C452.71 181.266 452.237 181.192 451.686 181.138C451.185 181.092 450.648 180.993 450.074 180.843C449.5 180.692 448.949 180.465 448.421 180.161C447.891 179.844 447.445 179.426 447.08 178.907C446.715 178.387 446.492 177.734 446.409 176.949C446.303 175.944 446.541 175.075 447.121 174.345C447.702 173.614 448.49 173.029 449.485 172.59C450.479 172.138 451.559 171.851 452.724 171.728ZM478.252 184.764L472.659 185.352L471.071 170.246L476.665 169.658L476.91 171.995L476.818 172.005C476.887 171.712 477.089 171.332 477.424 170.862C477.757 170.381 478.25 169.932 478.901 169.516C479.55 169.089 480.372 168.822 481.365 168.718C482.064 168.645 482.72 168.687 483.332 168.846C483.942 168.993 484.393 169.15 484.683 169.318L482.99 174.091C482.796 173.9 482.467 173.718 482.002 173.543C481.549 173.355 480.997 173.296 480.347 173.364C479.598 173.443 478.999 173.698 478.548 174.13C478.11 174.56 477.803 175.057 477.626 175.622C477.462 176.185 477.405 176.705 477.456 177.184L478.252 184.764ZM491.115 176.976C491.209 177.511 491.431 177.972 491.781 178.357C492.132 178.741 492.59 179.028 493.155 179.217C493.732 179.392 494.394 179.44 495.142 179.361C495.853 179.286 496.484 179.146 497.032 178.939C497.593 178.732 498.071 178.495 498.465 178.231C498.871 177.965 499.178 177.703 499.387 177.446L501.921 180.676C501.649 181.04 501.248 181.411 500.717 181.789C500.198 182.153 499.494 182.482 498.607 182.773C497.72 183.065 496.584 183.284 495.198 183.429C493.529 183.605 492.012 183.448 490.646 182.959C489.281 182.47 488.16 181.658 487.284 180.522C486.408 179.386 485.878 177.941 485.694 176.187C485.539 174.716 485.719 173.357 486.233 172.113C486.758 170.855 487.597 169.818 488.752 169.002C489.905 168.174 491.346 167.669 493.076 167.487C494.719 167.314 496.174 167.465 497.439 167.94C498.716 168.413 499.743 169.211 500.518 170.332C501.304 171.44 501.79 172.877 501.975 174.644C501.986 174.742 502 174.939 502.019 175.234C502.05 175.529 502.058 175.726 502.044 175.827L491.115 176.976ZM496.53 173.449C496.476 173.058 496.331 172.682 496.095 172.323C495.858 171.951 495.53 171.663 495.111 171.459C494.692 171.242 494.175 171.166 493.562 171.231C492.949 171.295 492.44 171.473 492.037 171.763C491.644 172.04 491.358 172.38 491.177 172.784C490.996 173.187 490.916 173.605 490.936 174.037L496.53 173.449ZM490.738 166.487L488.863 164.396L494.301 158.615L497.3 161.667L490.738 166.487ZM517.414 180.648L517.157 178.201C517.073 178.458 516.828 178.843 516.423 179.357C516.03 179.869 515.486 180.354 514.79 180.812C514.093 181.257 513.254 181.531 512.272 181.635C510.8 181.789 509.475 181.569 508.297 180.974C507.117 180.366 506.157 179.493 505.417 178.356C504.676 177.206 504.228 175.895 504.074 174.423C503.919 172.951 504.085 171.582 504.572 170.315C505.058 169.037 505.814 167.977 506.842 167.138C507.87 166.298 509.12 165.801 510.592 165.646C511.536 165.547 512.38 165.613 513.124 165.845C513.866 166.065 514.48 166.36 514.966 166.73C515.45 167.089 515.796 167.431 516.004 167.756L515.772 165.548L521.328 164.964L522.916 180.069L517.414 180.648ZM509.556 173.847C509.629 174.534 509.853 175.136 510.23 175.655C510.606 176.161 511.073 176.54 511.633 176.791C512.205 177.041 512.816 177.132 513.466 177.063C514.141 176.992 514.719 176.776 515.202 176.416C515.685 176.055 516.046 175.589 516.283 175.019C516.532 174.434 516.62 173.799 516.548 173.112C516.476 172.425 516.258 171.828 515.895 171.32C515.542 170.799 515.092 170.413 514.545 170.16C513.996 169.895 513.385 169.798 512.71 169.869C512.06 169.938 511.482 170.16 510.976 170.535C510.48 170.897 510.102 171.371 509.841 171.957C509.579 172.53 509.484 173.16 509.556 173.847ZM532.058 179.109L526.446 179.698L523.786 154.382L529.397 153.792L532.058 179.109ZM535.848 178.71L534.26 163.605L539.854 163.017L541.441 178.122L535.848 178.71ZM536.804 160.194C535.921 160.287 535.14 160.059 534.463 159.51C533.784 158.949 533.399 158.239 533.309 157.38C533.218 156.522 533.447 155.747 533.995 155.057C534.553 154.354 535.268 153.956 536.139 153.865C536.715 153.804 537.258 153.896 537.767 154.14C538.275 154.372 538.702 154.711 539.046 155.159C539.391 155.606 539.594 156.124 539.656 156.713C539.746 157.572 539.512 158.347 538.952 159.038C538.391 159.717 537.675 160.102 536.804 160.194ZM550.431 161.459C551.425 161.354 552.342 161.345 553.181 161.43C554.02 161.503 554.726 161.615 555.3 161.766C555.886 161.915 556.266 162.049 556.44 162.167L554.964 165.651C554.713 165.504 554.255 165.329 553.589 165.126C552.935 164.922 552.221 164.861 551.449 164.942C550.86 165.004 550.373 165.148 549.987 165.375C549.601 165.589 549.427 165.886 549.467 166.266C549.507 166.647 549.76 166.93 550.226 167.117C550.703 167.29 551.374 167.418 552.238 167.501C552.99 167.57 553.762 167.725 554.556 167.964C555.35 168.203 556.032 168.609 556.6 169.181C557.18 169.74 557.524 170.535 557.632 171.566C557.743 172.62 557.608 173.515 557.226 174.25C556.844 174.984 556.299 175.581 555.591 176.04C554.883 176.499 554.101 176.848 553.246 177.086C552.392 177.337 551.554 177.506 550.732 177.592C549.579 177.713 548.562 177.715 547.682 177.597C546.813 177.477 546.101 177.31 545.546 177.096C544.99 176.881 544.599 176.705 544.374 176.568L545.79 172.699C546.138 172.935 546.691 173.187 547.451 173.454C548.209 173.709 548.993 173.794 549.803 173.709C550.588 173.627 551.183 173.446 551.588 173.168C551.992 172.89 552.175 172.561 552.135 172.181C552.103 171.874 551.973 171.64 551.745 171.477C551.517 171.315 551.206 171.187 550.811 171.092C550.417 170.997 549.944 170.923 549.393 170.869C548.892 170.822 548.354 170.724 547.781 170.573C547.207 170.423 546.656 170.196 546.128 169.891C545.598 169.575 545.151 169.157 544.787 168.637C544.422 168.117 544.199 167.465 544.116 166.68C544.01 165.674 544.248 164.806 544.828 164.075C545.409 163.345 546.197 162.76 547.192 162.32C548.186 161.868 549.266 161.581 550.431 161.459ZM564.889 169.222C564.983 169.757 565.205 170.218 565.555 170.603C565.906 170.987 566.364 171.274 566.929 171.463C567.506 171.638 568.168 171.686 568.916 171.607C569.628 171.532 570.258 171.392 570.807 171.185C571.368 170.978 571.845 170.741 572.239 170.477C572.645 170.211 572.952 169.949 573.161 169.692L575.695 172.922C575.424 173.286 575.022 173.657 574.492 174.035C573.972 174.399 573.269 174.728 572.381 175.019C571.494 175.311 570.358 175.53 568.972 175.675C567.304 175.851 565.787 175.694 564.421 175.205C563.055 174.716 561.934 173.904 561.058 172.768C560.182 171.632 559.652 170.187 559.468 168.433C559.313 166.962 559.493 165.603 560.007 164.359C560.532 163.101 561.372 162.064 562.526 161.248C563.679 160.42 565.12 159.915 566.85 159.733C568.493 159.56 569.948 159.711 571.213 160.186C572.491 160.659 573.517 161.457 574.292 162.578C575.078 163.686 575.564 165.123 575.75 166.89C575.76 166.988 575.774 167.185 575.793 167.48C575.824 167.775 575.832 167.972 575.818 168.073L564.889 169.222ZM570.304 165.695C570.25 165.304 570.106 164.928 569.869 164.569C569.632 164.197 569.304 163.909 568.886 163.705C568.466 163.488 567.95 163.412 567.336 163.477C566.723 163.541 566.215 163.719 565.811 164.009C565.419 164.286 565.132 164.626 564.951 165.03C564.77 165.433 564.69 165.851 564.711 166.283L570.304 165.695ZM564.512 158.733L562.637 156.642L568.075 150.861L571.075 153.913L564.512 158.733ZM584.605 157.867C585.599 157.763 586.516 157.753 587.355 157.838C588.194 157.911 588.9 158.023 589.474 158.174C590.06 158.323 590.44 158.457 590.614 158.575L589.138 162.06C588.887 161.912 588.429 161.737 587.763 161.535C587.109 161.33 586.395 161.269 585.623 161.35C585.034 161.412 584.547 161.556 584.161 161.783C583.775 161.997 583.601 162.294 583.641 162.675C583.681 163.055 583.934 163.338 584.4 163.525C584.877 163.698 585.548 163.826 586.412 163.909C587.164 163.979 587.936 164.133 588.73 164.372C589.524 164.611 590.206 165.017 590.774 165.589C591.354 166.149 591.698 166.943 591.806 167.974C591.917 169.029 591.782 169.923 591.4 170.658C591.019 171.392 590.474 171.989 589.765 172.448C589.057 172.907 588.275 173.256 587.42 173.494C586.566 173.745 585.728 173.914 584.906 174C583.753 174.122 582.736 174.123 581.856 174.005C580.987 173.885 580.275 173.718 579.72 173.504C579.164 173.289 578.773 173.113 578.548 172.976L579.964 169.107C580.312 169.343 580.865 169.595 581.625 169.862C582.383 170.117 583.167 170.202 583.977 170.117C584.762 170.035 585.357 169.854 585.762 169.576C586.167 169.298 586.349 168.969 586.309 168.589C586.277 168.282 586.147 168.048 585.919 167.886C585.691 167.724 585.38 167.595 584.985 167.5C584.591 167.405 584.118 167.331 583.567 167.277C583.066 167.231 582.528 167.132 581.955 166.982C581.381 166.831 580.83 166.604 580.302 166.3C579.772 165.983 579.325 165.565 578.961 165.045C578.596 164.526 578.373 163.873 578.29 163.088C578.184 162.082 578.422 161.214 579.002 160.484C579.583 159.753 580.371 159.168 581.366 158.728C582.36 158.277 583.44 157.989 584.605 157.867ZM596.195 180.106L595.779 176.15L600.857 175.616L598.223 150.557L593.145 151.091L592.73 147.136L602.187 146.142L605.652 179.112L596.195 180.106Z" fill="white"/>
<defs>
<filter id="filter0_d_25_66" x="102" y="50" width="740" height="186" filterUnits="userSpaceOnUse" color-interpolation-filters="sRGB">
<feFlood flood-opacity="0" result="BackgroundImageFix"/>
<feColorMatrix in="SourceAlpha" type="matrix" values="0 0 0 0 0 0 0 0 0 0 0 0 0 0 0 0 0 0 127 0" result="hardAlpha"/>
<feOffset dy="14"/>
<feGaussianBlur stdDeviation="2"/>
<feComposite in2="hardAlpha" operator="out"/>
<feColorMatrix type="matrix" values="0 0 0 0 0 0 0 0 0 0 0 0 0 0 0 0 0 0 0.25 0"/>
<feBlend mode="normal" in2="BackgroundImageFix" result="effect1_dropShadow_25_66"/>
<feBlend mode="normal" in="SourceGraphic" in2="effect1_dropShadow_25_66" result="shape"/>
</filter>
<filter id="filter1_d_25_66" x="152" y="512" width="640" height="29" filterUnits="userSpaceOnUse" color-interpolation-filters="sRGB">
<feFlood flood-opacity="0" result="BackgroundImageFix"/>
<feColorMatrix in="SourceAlpha" type="matrix" values="0 0 0 0 0 0 0 0 0 0 0 0 0 0 0 0 0 0 127 0" result="hardAlpha"/>
<feOffset dy="4"/>
<feGaussianBlur stdDeviation="2"/>
<feComposite in2="hardAlpha" operator="out"/>
<feColorMatrix type="matrix" values="0 0 0 0 0 0 0 0 0 0 0 0 0 0 0 0 0 0 0.25 0"/>
<feBlend mode="normal" in2="BackgroundImageFix" result="effect1_dropShadow_25_66"/>
<feBlend mode="normal" in="SourceGraphic" in2="effect1_dropShadow_25_66" result="shape"/>
</filter>
<filter id="filter2_d_25_66" x="104" y="239" width="58" height="302" filterUnits="userSpaceOnUse" color-interpolation-filters="sRGB">
<feFlood flood-opacity="0" result="BackgroundImageFix"/>
<feColorMatrix in="SourceAlpha" type="matrix" values="0 0 0 0 0 0 0 0 0 0 0 0 0 0 0 0 0 0 127 0" result="hardAlpha"/>
<feOffset dx="2" dy="4"/>
<feGaussianBlur stdDeviation="2"/>
<feComposite in2="hardAlpha" operator="out"/>
<feColorMatrix type="matrix" values="0 0 0 0 0 0 0 0 0 0 0 0 0 0 0 0 0 0 0.25 0"/>
<feBlend mode="normal" in2="BackgroundImageFix" result="effect1_dropShadow_25_66"/>
<feBlend mode="normal" in="SourceGraphic" in2="effect1_dropShadow_25_66" result="shape"/>
</filter>
<filter id="filter3_d_25_66" x="783.5" y="239" width="58" height="302" filterUnits="userSpaceOnUse" color-interpolation-filters="sRGB">
<feFlood flood-opacity="0" result="BackgroundImageFix"/>
<feColorMatrix in="SourceAlpha" type="matrix" values="0 0 0 0 0 0 0 0 0 0 0 0 0 0 0 0 0 0 127 0" result="hardAlpha"/>
<feOffset dx="-0.5" dy="4"/>
<feGaussianBlur stdDeviation="2"/>
<feComposite in2="hardAlpha" operator="out"/>
<feColorMatrix type="matrix" values="0 0 0 0 0 0 0 0 0 0 0 0 0 0 0 0 0 0 0.25 0"/>
<feBlend mode="normal" in2="BackgroundImageFix" result="effect1_dropShadow_25_66"/>
<feBlend mode="normal" in="SourceGraphic" in2="effect1_dropShadow_25_66" result="shape"/>
</filter>
<filter id="filter4_d_25_66" x="152" y="214" width="640" height="11" filterUnits="userSpaceOnUse" color-interpolation-filters="sRGB">
<feFlood flood-opacity="0" result="BackgroundImageFix"/>
<feColorMatrix in="SourceAlpha" type="matrix" values="0 0 0 0 0 0 0 0 0 0 0 0 0 0 0 0 0 0 127 0" result="hardAlpha"/>
<feOffset dy="3"/>
<feGaussianBlur stdDeviation="2"/>
<feComposite in2="hardAlpha" operator="out"/>
<feColorMatrix type="matrix" values="0 0 0 0 0 0 0 0 0 0 0 0 0 0 0 0 0 0 0.25 0"/>
<feBlend mode="normal" in2="BackgroundImageFix" result="effect1_dropShadow_25_66"/>
<feBlend mode="normal" in="SourceGraphic" in2="effect1_dropShadow_25_66" result="shape"/>
</filter>
<filter id="filter5_d_25_66" x="833.5" y="167.324" width="58" height="373.676" filterUnits="userSpaceOnUse" color-interpolation-filters="sRGB">
<feFlood flood-opacity="0" result="BackgroundImageFix"/>
<feColorMatrix in="SourceAlpha" type="matrix" values="0 0 0 0 0 0 0 0 0 0 0 0 0 0 0 0 0 0 127 0" result="hardAlpha"/>
<feOffset dx="-0.5" dy="4"/>
<feGaussianBlur stdDeviation="2"/>
<feComposite in2="hardAlpha" operator="out"/>
<feColorMatrix type="matrix" values="0 0 0 0 0 0 0 0 0 0 0 0 0 0 0 0 0 0 0.25 0"/>
<feBlend mode="normal" in2="BackgroundImageFix" result="effect1_dropShadow_25_66"/>
<feBlend mode="normal" in="SourceGraphic" in2="effect1_dropShadow_25_66" result="shape"/>
</filter>
<filter id="filter6_d_25_66" x="54" y="163.332" width="58" height="373.668" filterUnits="userSpaceOnUse" color-interpolation-filters="sRGB">
<feFlood flood-opacity="0" result="BackgroundImageFix"/>
<feColorMatrix in="SourceAlpha" type="matrix" values="0 0 0 0 0 0 0 0 0 0 0 0 0 0 0 0 0 0 127 0" result="hardAlpha"/>
<feOffset dx="2"/>
<feGaussianBlur stdDeviation="2"/>
<feComposite in2="hardAlpha" operator="out"/>
<feColorMatrix type="matrix" values="0 0 0 0 0 0 0 0 0 0 0 0 0 0 0 0 0 0 0.25 0"/>
<feBlend mode="normal" in2="BackgroundImageFix" result="effect1_dropShadow_25_66"/>
<feBlend mode="normal" in="SourceGraphic" in2="effect1_dropShadow_25_66" result="shape"/>
</filter>
<filter id="filter7_d_25_66" x="0" y="0" width="479" height="209" filterUnits="userSpaceOnUse" color-interpolation-filters="sRGB">
<feFlood flood-opacity="0" result="BackgroundImageFix"/>
<feColorMatrix in="SourceAlpha" type="matrix" values="0 0 0 0 0 0 0 0 0 0 0 0 0 0 0 0 0 0 127 0" result="hardAlpha"/>
<feOffset dx="3" dy="4"/>
<feGaussianBlur stdDeviation="2"/>
<feComposite in2="hardAlpha" operator="out"/>
<feColorMatrix type="matrix" values="0 0 0 0 0 0 0 0 0 0 0 0 0 0 0 0 0 0 0.25 0"/>
<feBlend mode="normal" in2="BackgroundImageFix" result="effect1_dropShadow_25_66"/>
<feBlend mode="normal" in="SourceGraphic" in2="effect1_dropShadow_25_66" result="shape"/>
</filter>
<filter id="filter8_d_25_66" x="471" y="0" width="479" height="209" filterUnits="userSpaceOnUse" color-interpolation-filters="sRGB">
<feFlood flood-opacity="0" result="BackgroundImageFix"/>
<feColorMatrix in="SourceAlpha" type="matrix" values="0 0 0 0 0 0 0 0 0 0 0 0 0 0 0 0 0 0 127 0" result="hardAlpha"/>
<feOffset dx="3" dy="4"/>
<feGaussianBlur stdDeviation="2"/>
<feComposite in2="hardAlpha" operator="out"/>
<feColorMatrix type="matrix" values="0 0 0 0 0 0 0 0 0 0 0 0 0 0 0 0 0 0 0.25 0"/>
<feBlend mode="normal" in2="BackgroundImageFix" result="effect1_dropShadow_25_66"/>
<feBlend mode="normal" in="SourceGraphic" in2="effect1_dropShadow_25_66" result="shape"/>
</filter>
<filter id="filter9_d_25_66" x="319.812" y="89.2344" width="304.087" height="146.915" filterUnits="userSpaceOnUse" color-interpolation-filters="sRGB">
<feFlood flood-opacity="0" result="BackgroundImageFix"/>
<feColorMatrix in="SourceAlpha" type="matrix" values="0 0 0 0 0 0 0 0 0 0 0 0 0 0 0 0 0 0 127 0" result="hardAlpha"/>
<feOffset dx="2" dy="1"/>
<feGaussianBlur stdDeviation="2"/>
<feComposite in2="hardAlpha" operator="out"/>
<feColorMatrix type="matrix" values="0 0 0 0 0 0 0 0 0 0 0 0 0 0 0 0 0 0 0.25 0"/>
<feBlend mode="normal" in2="BackgroundImageFix" result="effect1_dropShadow_25_66"/>
<feBlend mode="normal" in="SourceGraphic" in2="effect1_dropShadow_25_66" result="shape"/>
</filter>
</defs>
</svg>
