<svg width="950" height="541" viewBox="0 0 950 541" fill="none" xmlns="http://www.w3.org/2000/svg">
<g filter="url(#filter0_d_132_2454)">
<path d="M472 50L838 167.5V218H106V167.5L472 50Z" fill="#FC6736"/>
</g>
<g filter="url(#filter1_d_132_2454)">
<mask id="path-2-inside-1_132_2454" fill="white">
<path d="M156 512H788V533H156V512Z"/>
</mask>
<path d="M156 512H788V533H156V512Z" fill="#D9D9D9"/>
<path d="M156 512V509H153V512H156ZM788 512H791V509H788V512ZM156 515H788V509H156V515ZM785 512V533H791V512H785ZM159 533V512H153V533H159Z" fill="white" mask="url(#path-2-inside-1_132_2454)"/>
</g>
<mask id="path-4-inside-2_132_2454" fill="white">
<path d="M156 470H788V491H156V470Z"/>
</mask>
<path d="M156 470H788V491H156V470Z" fill="#D9D9D9"/>
<path d="M156 470V467H153V470H156ZM788 470H791V467H788V470ZM156 473H788V467H156V473ZM785 470V491H791V470H785ZM159 491V470H153V491H159Z" fill="white" mask="url(#path-4-inside-2_132_2454)"/>
<mask id="path-6-inside-3_132_2454" fill="white">
<path d="M156 491H788V512H156V491Z"/>
</mask>
<path d="M156 491H788V512H156V491Z" fill="#D9D9D9"/>
<path d="M156 491V488H153V491H156ZM788 491H791V488H788V491ZM156 494H788V488H156V494ZM785 491V512H791V491H785ZM159 512V491H153V512H159Z" fill="white" mask="url(#path-6-inside-3_132_2454)"/>
<mask id="path-8-inside-4_132_2454" fill="white">
<path d="M156 428H788V449H156V428Z"/>
</mask>
<path d="M156 428H788V449H156V428Z" fill="#D9D9D9"/>
<path d="M156 428V425H153V428H156ZM788 428H791V425H788V428ZM156 431H788V425H156V431ZM785 428V449H791V428H785ZM159 449V428H153V449H159Z" fill="white" mask="url(#path-8-inside-4_132_2454)"/>
<mask id="path-10-inside-5_132_2454" fill="white">
<path d="M156 449H788V470H156V449Z"/>
</mask>
<path d="M156 449H788V470H156V449Z" fill="#D9D9D9"/>
<path d="M156 449V446H153V449H156ZM788 449H791V446H788V449ZM156 452H788V446H156V452ZM785 449V470H791V449H785ZM159 470V449H153V470H159Z" fill="white" mask="url(#path-10-inside-5_132_2454)"/>
<mask id="path-12-inside-6_132_2454" fill="white">
<path d="M156 386H788V407H156V386Z"/>
</mask>
<path d="M156 386H788V407H156V386Z" fill="#D9D9D9"/>
<path d="M156 386V383H153V386H156ZM788 386H791V383H788V386ZM156 389H788V383H156V389ZM785 386V407H791V386H785ZM159 407V386H153V407H159Z" fill="white" mask="url(#path-12-inside-6_132_2454)"/>
<mask id="path-14-inside-7_132_2454" fill="white">
<path d="M156 407H788V428H156V407Z"/>
</mask>
<path d="M156 407H788V428H156V407Z" fill="#D9D9D9"/>
<path d="M156 407V404H153V407H156ZM788 407H791V404H788V407ZM156 410H788V404H156V410ZM785 407V428H791V407H785ZM159 428V407H153V428H159Z" fill="white" mask="url(#path-14-inside-7_132_2454)"/>
<mask id="path-16-inside-8_132_2454" fill="white">
<path d="M156 344H788V365H156V344Z"/>
</mask>
<path d="M156 344H788V365H156V344Z" fill="#D9D9D9"/>
<path d="M156 344V341H153V344H156ZM788 344H791V341H788V344ZM156 347H788V341H156V347ZM785 344V365H791V344H785ZM159 365V344H153V365H159Z" fill="white" mask="url(#path-16-inside-8_132_2454)"/>
<mask id="path-18-inside-9_132_2454" fill="white">
<path d="M156 365H788V386H156V365Z"/>
</mask>
<path d="M156 365H788V386H156V365Z" fill="#D9D9D9"/>
<path d="M156 365V362H153V365H156ZM788 365H791V362H788V365ZM156 368H788V362H156V368ZM785 365V386H791V365H785ZM159 386V365H153V386H159Z" fill="white" mask="url(#path-18-inside-9_132_2454)"/>
<mask id="path-20-inside-10_132_2454" fill="white">
<path d="M156 302H788V323H156V302Z"/>
</mask>
<path d="M156 302H788V323H156V302Z" fill="#D9D9D9"/>
<path d="M156 302V299H153V302H156ZM788 302H791V299H788V302ZM156 305H788V299H156V305ZM785 302V323H791V302H785ZM159 323V302H153V323H159Z" fill="white" mask="url(#path-20-inside-10_132_2454)"/>
<mask id="path-22-inside-11_132_2454" fill="white">
<path d="M156 323H788V344H156V323Z"/>
</mask>
<path d="M156 323H788V344H156V323Z" fill="#D9D9D9"/>
<path d="M156 323V320H153V323H156ZM788 323H791V320H788V323ZM156 326H788V320H156V326ZM785 323V344H791V323H785ZM159 344V323H153V344H159Z" fill="white" mask="url(#path-22-inside-11_132_2454)"/>
<mask id="path-24-inside-12_132_2454" fill="white">
<path d="M156 260H788V281H156V260Z"/>
</mask>
<path d="M156 260H788V281H156V260Z" fill="#D9D9D9"/>
<path d="M156 260V257H153V260H156ZM788 260H791V257H788V260ZM156 263H788V257H156V263ZM785 260V281H791V260H785ZM159 281V260H153V281H159Z" fill="white" mask="url(#path-24-inside-12_132_2454)"/>
<mask id="path-26-inside-13_132_2454" fill="white">
<path d="M156 281H788V302H156V281Z"/>
</mask>
<path d="M156 281H788V302H156V281Z" fill="#D9D9D9"/>
<path d="M156 281V278H153V281H156ZM788 281H791V278H788V281ZM156 284H788V278H156V284ZM785 281V302H791V281H785ZM159 302V281H153V302H159Z" fill="white" mask="url(#path-26-inside-13_132_2454)"/>
<mask id="path-28-inside-14_132_2454" fill="white">
<path d="M156 239H788V260H156V239Z"/>
</mask>
<path d="M156 239H788V260H156V239Z" fill="#D9D9D9"/>
<path d="M156 239V236H153V239H156ZM788 239H791V236H788V239ZM156 242H788V236H156V242ZM785 239V260H791V239H785ZM159 260V239H153V260H159Z" fill="white" mask="url(#path-28-inside-14_132_2454)"/>
<g filter="url(#filter2_d_132_2454)">
<rect x="106" y="239" width="50" height="294" fill="#FC6736"/>
</g>
<g filter="url(#filter3_d_132_2454)">
<rect x="788" y="239" width="50" height="294" fill="#FC6736"/>
</g>
<g filter="url(#filter4_d_132_2454)">
<rect x="156" y="215" width="632" height="3" fill="#FC6736"/>
</g>
<rect x="106" y="218" width="732" height="21" fill="#FC6736"/>
<g filter="url(#filter5_d_132_2454)">
<path d="M838 167.324L888 183.367V533H838V167.324Z" fill="#FC6736"/>
</g>
<g filter="url(#filter6_d_132_2454)">
<path d="M56 183.363L106 167.332V533H56V183.363Z" fill="#FC6736"/>
</g>
<g filter="url(#filter7_d_132_2454)">
<path d="M472 0V50L1 201C1 181.474 1 170.526 1 151L472 0Z" fill="#FC6736"/>
</g>
<g filter="url(#filter8_d_132_2454)">
<path d="M943 151V201L472 50C472 30.4738 472 19.5262 472 0L943 151Z" fill="#FC6736"/>
</g>
<g filter="url(#filter9_d_132_2454)">
<path d="M314.05 130.714C313.47 125.221 317.453 120.303 322.946 119.729L587.664 92.0402C593.157 91.4657 598.08 95.4523 598.66 100.945L608.13 190.612C608.71 196.104 604.727 201.022 599.235 201.597L334.517 229.285C329.024 229.86 324.101 225.873 323.52 220.381L314.05 130.714Z" fill="#0C2D57"/>
<path d="M323.208 122.215L587.926 94.5264C592.046 94.0955 595.738 97.0855 596.173 101.205L605.644 190.872C606.079 194.991 603.092 198.68 598.972 199.111L334.254 226.799C330.134 227.23 326.442 224.24 326.007 220.121L316.537 130.454C316.102 126.334 319.089 122.646 323.208 122.215Z" stroke="white" stroke-width="5"/>
</g>
<path d="M348.571 149.22L373.724 146.589L374.55 154.406L358.288 156.107L359.136 164.132L375.248 162.447L376.048 170.024L359.936 171.71L360.796 179.854L377.058 178.154L377.883 185.97L352.73 188.601L348.571 149.22ZM398.833 158.291C400.543 158.112 402.251 158.285 403.956 158.81C405.66 159.336 407.119 160.299 408.333 161.701C409.545 163.082 410.28 164.996 410.539 167.442L412.117 182.389L403.017 183.341L401.596 169.886C401.411 168.136 400.855 166.867 399.927 166.079C398.997 165.271 397.855 164.938 396.503 165.08C395.608 165.173 394.788 165.501 394.042 166.061C393.315 166.6 392.748 167.323 392.341 168.23C391.951 169.115 391.815 170.105 391.93 171.199L393.32 184.355L384.249 185.304L381.662 160.81L390.733 159.862L391.114 163.472C391.283 162.79 391.711 162.082 392.398 161.347C393.102 160.589 394.008 159.931 395.116 159.373C396.241 158.793 397.48 158.432 398.833 158.291ZM412.713 157.563L416.89 157.126L415.828 147.072L424.809 146.132L425.871 156.186L431.361 155.612L432.149 163.071L426.659 163.645L427.38 170.477C427.487 171.491 427.724 172.301 428.089 172.906C428.453 173.492 429.032 173.743 429.828 173.66C430.365 173.603 430.81 173.436 431.163 173.158C431.515 172.88 431.727 172.697 431.798 172.609L435.582 178.728C435.456 178.862 435.041 179.127 434.339 179.522C433.656 179.915 432.772 180.299 431.685 180.674C430.598 181.049 429.369 181.309 427.996 181.452C425.55 181.708 423.458 181.233 421.722 180.027C419.984 178.802 418.962 176.747 418.658 173.863L417.678 164.584L413.5 165.021L412.713 157.563ZM447.361 178.703L438.291 179.652L435.704 155.158L444.775 154.209L445.175 157.998L445.026 158.014C445.136 157.54 445.463 156.922 446.006 156.162C446.547 155.381 447.346 154.654 448.401 153.981C449.454 153.287 450.786 152.856 452.397 152.688C453.531 152.569 454.594 152.639 455.587 152.897C456.577 153.136 457.308 153.391 457.779 153.663L455.037 161.401C454.722 161.092 454.188 160.796 453.435 160.512C452.698 160.207 451.803 160.11 450.749 160.22C449.536 160.347 448.564 160.761 447.833 161.46C447.122 162.158 446.624 162.964 446.339 163.879C446.073 164.791 445.981 165.636 446.063 166.411L447.361 178.703ZM468.216 166.085C468.368 166.954 468.729 167.7 469.297 168.325C469.866 168.949 470.609 169.414 471.526 169.72C472.461 170.005 473.535 170.083 474.749 169.956C475.903 169.836 476.924 169.608 477.814 169.274C478.724 168.937 479.498 168.555 480.136 168.126C480.795 167.695 481.293 167.271 481.631 166.854L485.744 172.094C485.304 172.683 484.653 173.284 483.793 173.897C482.95 174.488 481.81 175.019 480.371 175.492C478.933 175.964 477.09 176.317 474.842 176.552C472.137 176.835 469.676 176.58 467.461 175.786C465.245 174.992 463.427 173.674 462.005 171.832C460.584 169.99 459.723 167.647 459.423 164.803C459.171 162.416 459.461 160.214 460.294 158.196C461.144 156.157 462.505 154.476 464.377 153.154C466.246 151.812 468.583 150.995 471.388 150.702C474.053 150.423 476.412 150.669 478.465 151.439C480.537 152.208 482.202 153.502 483.46 155.321C484.736 157.118 485.525 159.448 485.827 162.312C485.844 162.472 485.868 162.791 485.898 163.27C485.949 163.748 485.962 164.068 485.939 164.231L468.216 166.085ZM476.994 160.371C476.907 159.736 476.672 159.128 476.289 158.544C475.903 157.941 475.371 157.474 474.693 157.143C474.012 156.792 473.174 156.668 472.18 156.772C471.185 156.876 470.361 157.163 469.707 157.634C469.07 158.083 468.606 158.634 468.313 159.288C468.02 159.942 467.89 160.619 467.924 161.32L476.994 160.371ZM502.038 185.532L493.057 186.471L489.16 149.567L498.23 148.618L498.608 152.198C498.828 151.612 499.291 150.95 499.998 150.213C500.722 149.453 501.665 148.771 502.828 148.167C504.009 147.541 505.375 147.147 506.927 146.984C509.314 146.735 511.415 147.108 513.229 148.105C515.064 149.099 516.543 150.533 517.666 152.407C518.787 154.26 519.473 156.38 519.725 158.767C519.977 161.154 519.72 163.382 518.953 165.453C518.184 167.505 516.977 169.209 515.33 170.568C513.702 171.905 511.694 172.698 509.307 172.948C507.596 173.127 506.103 172.981 504.826 172.511C503.568 172.02 502.551 171.442 501.778 170.779C501.021 170.094 500.532 169.552 500.309 169.153L502.038 185.532ZM510.863 159.694C510.746 158.58 510.392 157.611 509.802 156.788C509.211 155.945 508.461 155.32 507.553 154.912C506.663 154.482 505.691 154.323 504.637 154.433C503.542 154.547 502.585 154.909 501.765 155.518C500.962 156.104 500.359 156.871 499.956 157.818C499.551 158.745 499.408 159.766 499.525 160.88C499.643 161.993 499.998 162.972 500.59 163.815C501.179 164.638 501.928 165.253 502.836 165.661C503.764 166.067 504.774 166.213 505.869 166.098C506.923 165.988 507.841 165.64 508.624 165.056C509.427 164.469 510.031 163.712 510.436 162.785C510.839 161.838 510.981 160.808 510.863 159.694ZM538.154 169.93C535.469 170.211 533.024 169.914 530.82 169.038C528.633 168.141 526.842 166.79 525.444 164.986C524.065 163.159 523.243 160.993 522.978 158.487C522.713 155.981 523.065 153.692 524.033 151.62C525.018 149.526 526.485 147.804 528.434 146.454C530.403 145.102 532.73 144.285 535.416 144.004C538.101 143.724 540.528 144.043 542.697 144.962C544.865 145.882 546.63 147.266 547.992 149.114C549.352 150.942 550.164 153.11 550.428 155.616C550.693 158.122 550.351 160.41 549.404 162.48C548.454 164.53 547.013 166.219 545.082 167.547C543.149 168.855 540.839 169.649 538.154 169.93ZM537.366 162.472C538.401 162.364 539.272 162.041 539.979 161.505C540.687 160.968 541.205 160.26 541.535 159.381C541.864 158.502 541.973 157.536 541.862 156.482C541.749 155.408 541.439 154.475 540.933 153.683C540.427 152.891 539.771 152.296 538.965 151.898C538.158 151.5 537.238 151.355 536.204 151.463C535.169 151.571 534.289 151.905 533.564 152.463C532.859 153.019 532.331 153.738 531.982 154.619C531.652 155.498 531.544 156.475 531.658 157.549C531.769 158.603 532.078 159.526 532.584 160.318C533.109 161.107 533.774 161.691 534.579 162.07C535.403 162.446 536.332 162.58 537.366 162.472ZM542.468 141.94L534.624 137.361L527.904 143.433L524.198 139.477L533.918 130.678L545.263 137.274L542.468 141.94ZM551.759 143.019L555.936 142.582L554.874 132.528L563.855 131.589L564.917 141.643L570.407 141.068L571.195 148.527L565.705 149.101L566.426 155.933C566.533 156.948 566.77 157.757 567.135 158.363C567.499 158.948 568.078 159.199 568.874 159.116C569.411 159.06 569.856 158.892 570.209 158.614C570.562 158.336 570.773 158.153 570.845 158.065L574.628 164.185C574.502 164.319 574.087 164.583 573.385 164.978C572.702 165.372 571.818 165.756 570.731 166.131C569.645 166.506 568.415 166.765 567.042 166.909C564.596 167.165 562.504 166.69 560.768 165.484C559.03 164.258 558.008 162.203 557.704 159.319L556.724 150.041L552.547 150.478L551.759 143.019Z" fill="white"/>
<defs>
<filter id="filter0_d_132_2454" x="102" y="50" width="740" height="186" filterUnits="userSpaceOnUse" color-interpolation-filters="sRGB">
<feFlood flood-opacity="0" result="BackgroundImageFix"/>
<feColorMatrix in="SourceAlpha" type="matrix" values="0 0 0 0 0 0 0 0 0 0 0 0 0 0 0 0 0 0 127 0" result="hardAlpha"/>
<feOffset dy="14"/>
<feGaussianBlur stdDeviation="2"/>
<feComposite in2="hardAlpha" operator="out"/>
<feColorMatrix type="matrix" values="0 0 0 0 0 0 0 0 0 0 0 0 0 0 0 0 0 0 0.25 0"/>
<feBlend mode="normal" in2="BackgroundImageFix" result="effect1_dropShadow_132_2454"/>
<feBlend mode="normal" in="SourceGraphic" in2="effect1_dropShadow_132_2454" result="shape"/>
</filter>
<filter id="filter1_d_132_2454" x="152" y="512" width="640" height="29" filterUnits="userSpaceOnUse" color-interpolation-filters="sRGB">
<feFlood flood-opacity="0" result="BackgroundImageFix"/>
<feColorMatrix in="SourceAlpha" type="matrix" values="0 0 0 0 0 0 0 0 0 0 0 0 0 0 0 0 0 0 127 0" result="hardAlpha"/>
<feOffset dy="4"/>
<feGaussianBlur stdDeviation="2"/>
<feComposite in2="hardAlpha" operator="out"/>
<feColorMatrix type="matrix" values="0 0 0 0 0 0 0 0 0 0 0 0 0 0 0 0 0 0 0.25 0"/>
<feBlend mode="normal" in2="BackgroundImageFix" result="effect1_dropShadow_132_2454"/>
<feBlend mode="normal" in="SourceGraphic" in2="effect1_dropShadow_132_2454" result="shape"/>
</filter>
<filter id="filter2_d_132_2454" x="104" y="239" width="58" height="302" filterUnits="userSpaceOnUse" color-interpolation-filters="sRGB">
<feFlood flood-opacity="0" result="BackgroundImageFix"/>
<feColorMatrix in="SourceAlpha" type="matrix" values="0 0 0 0 0 0 0 0 0 0 0 0 0 0 0 0 0 0 127 0" result="hardAlpha"/>
<feOffset dx="2" dy="4"/>
<feGaussianBlur stdDeviation="2"/>
<feComposite in2="hardAlpha" operator="out"/>
<feColorMatrix type="matrix" values="0 0 0 0 0 0 0 0 0 0 0 0 0 0 0 0 0 0 0.25 0"/>
<feBlend mode="normal" in2="BackgroundImageFix" result="effect1_dropShadow_132_2454"/>
<feBlend mode="normal" in="SourceGraphic" in2="effect1_dropShadow_132_2454" result="shape"/>
</filter>
<filter id="filter3_d_132_2454" x="783.5" y="239" width="58" height="302" filterUnits="userSpaceOnUse" color-interpolation-filters="sRGB">
<feFlood flood-opacity="0" result="BackgroundImageFix"/>
<feColorMatrix in="SourceAlpha" type="matrix" values="0 0 0 0 0 0 0 0 0 0 0 0 0 0 0 0 0 0 127 0" result="hardAlpha"/>
<feOffset dx="-0.5" dy="4"/>
<feGaussianBlur stdDeviation="2"/>
<feComposite in2="hardAlpha" operator="out"/>
<feColorMatrix type="matrix" values="0 0 0 0 0 0 0 0 0 0 0 0 0 0 0 0 0 0 0.25 0"/>
<feBlend mode="normal" in2="BackgroundImageFix" result="effect1_dropShadow_132_2454"/>
<feBlend mode="normal" in="SourceGraphic" in2="effect1_dropShadow_132_2454" result="shape"/>
</filter>
<filter id="filter4_d_132_2454" x="152" y="214" width="640" height="11" filterUnits="userSpaceOnUse" color-interpolation-filters="sRGB">
<feFlood flood-opacity="0" result="BackgroundImageFix"/>
<feColorMatrix in="SourceAlpha" type="matrix" values="0 0 0 0 0 0 0 0 0 0 0 0 0 0 0 0 0 0 127 0" result="hardAlpha"/>
<feOffset dy="3"/>
<feGaussianBlur stdDeviation="2"/>
<feComposite in2="hardAlpha" operator="out"/>
<feColorMatrix type="matrix" values="0 0 0 0 0 0 0 0 0 0 0 0 0 0 0 0 0 0 0.25 0"/>
<feBlend mode="normal" in2="BackgroundImageFix" result="effect1_dropShadow_132_2454"/>
<feBlend mode="normal" in="SourceGraphic" in2="effect1_dropShadow_132_2454" result="shape"/>
</filter>
<filter id="filter5_d_132_2454" x="833.5" y="167.324" width="58" height="373.676" filterUnits="userSpaceOnUse" color-interpolation-filters="sRGB">
<feFlood flood-opacity="0" result="BackgroundImageFix"/>
<feColorMatrix in="SourceAlpha" type="matrix" values="0 0 0 0 0 0 0 0 0 0 0 0 0 0 0 0 0 0 127 0" result="hardAlpha"/>
<feOffset dx="-0.5" dy="4"/>
<feGaussianBlur stdDeviation="2"/>
<feComposite in2="hardAlpha" operator="out"/>
<feColorMatrix type="matrix" values="0 0 0 0 0 0 0 0 0 0 0 0 0 0 0 0 0 0 0.25 0"/>
<feBlend mode="normal" in2="BackgroundImageFix" result="effect1_dropShadow_132_2454"/>
<feBlend mode="normal" in="SourceGraphic" in2="effect1_dropShadow_132_2454" result="shape"/>
</filter>
<filter id="filter6_d_132_2454" x="54" y="163.332" width="58" height="373.668" filterUnits="userSpaceOnUse" color-interpolation-filters="sRGB">
<feFlood flood-opacity="0" result="BackgroundImageFix"/>
<feColorMatrix in="SourceAlpha" type="matrix" values="0 0 0 0 0 0 0 0 0 0 0 0 0 0 0 0 0 0 127 0" result="hardAlpha"/>
<feOffset dx="2"/>
<feGaussianBlur stdDeviation="2"/>
<feComposite in2="hardAlpha" operator="out"/>
<feColorMatrix type="matrix" values="0 0 0 0 0 0 0 0 0 0 0 0 0 0 0 0 0 0 0.25 0"/>
<feBlend mode="normal" in2="BackgroundImageFix" result="effect1_dropShadow_132_2454"/>
<feBlend mode="normal" in="SourceGraphic" in2="effect1_dropShadow_132_2454" result="shape"/>
</filter>
<filter id="filter7_d_132_2454" x="0" y="0" width="479" height="209" filterUnits="userSpaceOnUse" color-interpolation-filters="sRGB">
<feFlood flood-opacity="0" result="BackgroundImageFix"/>
<feColorMatrix in="SourceAlpha" type="matrix" values="0 0 0 0 0 0 0 0 0 0 0 0 0 0 0 0 0 0 127 0" result="hardAlpha"/>
<feOffset dx="3" dy="4"/>
<feGaussianBlur stdDeviation="2"/>
<feComposite in2="hardAlpha" operator="out"/>
<feColorMatrix type="matrix" values="0 0 0 0 0 0 0 0 0 0 0 0 0 0 0 0 0 0 0.25 0"/>
<feBlend mode="normal" in2="BackgroundImageFix" result="effect1_dropShadow_132_2454"/>
<feBlend mode="normal" in="SourceGraphic" in2="effect1_dropShadow_132_2454" result="shape"/>
</filter>
<filter id="filter8_d_132_2454" x="471" y="0" width="479" height="209" filterUnits="userSpaceOnUse" color-interpolation-filters="sRGB">
<feFlood flood-opacity="0" result="BackgroundImageFix"/>
<feColorMatrix in="SourceAlpha" type="matrix" values="0 0 0 0 0 0 0 0 0 0 0 0 0 0 0 0 0 0 127 0" result="hardAlpha"/>
<feOffset dx="3" dy="4"/>
<feGaussianBlur stdDeviation="2"/>
<feComposite in2="hardAlpha" operator="out"/>
<feColorMatrix type="matrix" values="0 0 0 0 0 0 0 0 0 0 0 0 0 0 0 0 0 0 0.25 0"/>
<feBlend mode="normal" in2="BackgroundImageFix" result="effect1_dropShadow_132_2454"/>
<feBlend mode="normal" in="SourceGraphic" in2="effect1_dropShadow_132_2454" result="shape"/>
</filter>
<filter id="filter9_d_132_2454" x="311.994" y="88.9852" width="302.192" height="145.355" filterUnits="userSpaceOnUse" color-interpolation-filters="sRGB">
<feFlood flood-opacity="0" result="BackgroundImageFix"/>
<feColorMatrix in="SourceAlpha" type="matrix" values="0 0 0 0 0 0 0 0 0 0 0 0 0 0 0 0 0 0 127 0" result="hardAlpha"/>
<feOffset dx="2" dy="1"/>
<feGaussianBlur stdDeviation="2"/>
<feComposite in2="hardAlpha" operator="out"/>
<feColorMatrix type="matrix" values="0 0 0 0 0 0 0 0 0 0 0 0 0 0 0 0 0 0 0.25 0"/>
<feBlend mode="normal" in2="BackgroundImageFix" result="effect1_dropShadow_132_2454"/>
<feBlend mode="normal" in="SourceGraphic" in2="effect1_dropShadow_132_2454" result="shape"/>
</filter>
</defs>
</svg>
